<svg id="Layer_1" data-name="Layer 1" xmlns="http://www.w3.org/2000/svg" viewBox="0 0 1130 831.6"><defs><style>.cls-1,.cls-17,.cls-8{fill:#5bc8de;}.cls-1,.cls-10,.cls-3,.cls-5{opacity:0.1;}.cls-1,.cls-10,.cls-20,.cls-3,.cls-5,.cls-8{isolation:isolate;}.cls-2{fill:#d0d2d5;stroke:#000;}.cls-10,.cls-11,.cls-12,.cls-13,.cls-14,.cls-15,.cls-16,.cls-17,.cls-18,.cls-2{stroke-miterlimit:10;}.cls-10,.cls-2{stroke-width:2px;}.cls-4{fill:#263238;}.cls-10,.cls-12,.cls-13,.cls-5,.cls-6{fill:#fff;}.cls-7{fill:#a7d4f3;}.cls-8{opacity:0.3;}.cls-9{fill:#3f3d56;}.cls-10,.cls-11,.cls-12,.cls-13,.cls-14,.cls-15,.cls-17,.cls-18{stroke:#1a2e35;}.cls-11{fill:#adadad;}.cls-11,.cls-12,.cls-13,.cls-14,.cls-15,.cls-16,.cls-18{stroke-linecap:round;}.cls-13,.cls-18{stroke-width:3px;}.cls-14,.cls-16,.cls-18{fill:none;}.cls-15{fill:#7a7a7a;}.cls-16{stroke:#878787;}.cls-19{fill:#ffbe9d;}.cls-20{opacity:0.2;}</style></defs><title>e-learning</title><path class="cls-1" d="M656.5,124.7c-72.4-2.5-141.4-25.9-207.3-51.5S318.1,19.3,247.4,5.7C201.9-3,149.9-4.2,113.2,20.1,78,43.6,66.6,84.1,60.5,121.7c-4.6,28.3-7.3,58,5.3,84.5,8.8,18.4,24.3,33.8,35.1,51.4,37.4,61.3,11,136.8-29.6,196.6-19,28.1-41.1,54.8-55.8,84.7S-6.1,603,6.8,633.4c12.8,30.2,43.1,52.9,76,68.8,66.8,32.4,145.5,41.7,222.3,46.9,169.9,11.6,340.8,6.6,511.2,1.6,63.1-1.9,126.4-3.8,188.4-13.5,34.4-5.4,70-14,95-34.8,31.8-26.3,39.6-70.9,18.3-104-35.7-55.4-134.3-69.2-159.3-128.6-13.7-32.7.4-69.2,20.3-99.5,42.8-65.1,114.5-122.2,118.3-196.6,2.6-51.1-31.9-102.3-85.2-126.5C956.2,21.9,878.7,25,837.5,67,795.1,110.3,720.5,126.9,656.5,124.7Z"/><polygon class="cls-2" points="664.2 755.9 469.2 753.4 469.8 748.4 479.2 665.9 650.4 665.9 663 748.4 664 754.6 664.2 755.9"/><polygon class="cls-3" points="664 754.6 566.7 754.6 469.2 753.4 469.8 748.4 663 748.4 664 754.6"/><rect class="cls-2" x="436.7" y="749.6" width="258.8" height="6.3"/><path class="cls-4" d="M942.3,170.4A16.37,16.37,0,0,0,926.1,154H203.5a16.28,16.28,0,0,0-16.2,16.3h0v438h755Z"/><path class="cls-2" d="M187.3,604v51.3a16.26,16.26,0,0,0,16.2,16.2H926.1a16.26,16.26,0,0,0,16.2-16.2V604Z"/><rect class="cls-5" x="218.6" y="181.5" width="696.3" height="393.8"/><path class="cls-4" d="M568.5,652.1a17.08,17.08,0,0,0,13.3-6.4h0a21.41,21.41,0,0,0,1.3-1.9l-9.3-1.5,10,.1a16.87,16.87,0,0,0,.3-13.4l-13.4,7,12.4-9.1a16.89,16.89,0,0,0-29.2,17,12.74,12.74,0,0,0,1.3,1.9h0A17.61,17.61,0,0,0,568.5,652.1Z"/><polygon class="cls-3" points="585.4 671.5 663.2 749.6 651.3 671.5 585.4 671.5"/><rect class="cls-6" x="219" y="181.6" width="696" height="23"/><path class="cls-7" d="M222.8,185.6h18.4a.79.79,0,0,1,.8.8v12.4a.79.79,0,0,1-.8.8H222.8a.79.79,0,0,1-.8-.8V186.4A.74.74,0,0,1,222.8,185.6Z"/><path class="cls-8" d="M460.6,185.6H669.4a.65.65,0,0,1,.6.6V199a.65.65,0,0,1-.6.6H460.6a.65.65,0,0,1-.6-.6V186.2A.58.58,0,0,1,460.6,185.6Z"/><path class="cls-4" d="M663.8,194h-.5l-.2-.2a4.49,4.49,0,0,0,1-2.7,4.15,4.15,0,1,0-4.2,4.2,4.27,4.27,0,0,0,2.7-1l.2.2v.5l3.2,3.2,1-1Zm-3.9,0a2.9,2.9,0,1,1,2.9-2.9h0a2.9,2.9,0,0,1-2.9,2.9Z"/><circle class="cls-7" cx="905" cy="192.6" r="7"/><ellipse class="cls-7" cx="957.1" cy="758.5" rx="59.5" ry="11.4"/><ellipse class="cls-9" cx="956.1" cy="753.7" rx="6.9" ry="9.1"/><ellipse class="cls-9" cx="956.1" cy="742.6" rx="6.9" ry="9.1"/><ellipse class="cls-9" cx="956.1" cy="731.5" rx="6.9" ry="9.1"/><ellipse class="cls-9" cx="956.1" cy="720.5" rx="6.9" ry="9.1"/><ellipse class="cls-9" cx="956.1" cy="709.4" rx="6.9" ry="9.1"/><ellipse class="cls-9" cx="956.1" cy="698.3" rx="6.9" ry="9.1"/><ellipse class="cls-9" cx="956.1" cy="687.2" rx="6.9" ry="9.1"/><path class="cls-7" d="M982,611.4c.9-1.2,1.8-2.5,2.6-3.8l-18.2-3,19.7.2a33.38,33.38,0,0,0,.6-26.3l-26.4,13.7,24.3-17.9a33.15,33.15,0,0,0-57.4,33.2,37.75,37.75,0,0,0,2.6,3.9,37.87,37.87,0,0,0-3.8,6l23.6,12.3-25.2-8.5a33.14,33.14,0,0,0,5.3,31.1,33.19,33.19,0,1,0,52.2,0,32.78,32.78,0,0,0,.1-40.9Z"/><path class="cls-3" d="M922.8,631.9a33.13,33.13,0,0,0,7.1,20.5,33.19,33.19,0,1,0,52.2,0C986.5,646.8,922.8,628.2,922.8,631.9Z"/><ellipse class="cls-1" cx="297" cy="810.6" rx="99" ry="21"/><rect class="cls-4" x="645.8" y="394.5" width="146.5" height="147.9"/><rect class="cls-7" x="683.8" y="432.8" width="70.6" height="71.3"/><path class="cls-4" d="M717.5,470.1l-1.7,2.8v9.7h-3.2V453.8h3.2v13.9l7.6-13.9h3.3l-7.3,13.1,7.5,15.7h-3.3Z"/><rect class="cls-10" x="493.6" y="394.5" width="146.5" height="147.9"/><path class="cls-11" d="M640.4,542.1V517.6c-7.6-3.4-28.9-12.7-39.2-16.5-12.7-4.7-28.3-14.1-56.5-8.3,0,0-37.3,20.3-44.9,23.2-3,1.1-5,2-6.4,2.6v23.6h147Z"/><polyline class="cls-11" points="523.2 512.7 518.2 526.4 535.2 530 523.8 541.2"/><path class="cls-11" d="M611.6,538l2.3-4-13-6.5,14.5-7.6L609,504.1c-2.9-1.2-5.6-2.2-7.8-3.1-12.7-4.7-28.3-14.1-56.5-8.3,0,0-8.1,4.4-17.6,9.4l-2.5,6.9"/><path class="cls-12" d="M553.9,542.1h27.8c1.8-4.6,3.6-10.1,5.3-16,5.1-18.5,1.4-29.7,1.4-29.7l-46.7-1.1a112.35,112.35,0,0,0,7.6,36.6C550.9,535.8,552.4,539.2,553.9,542.1Z"/><polygon class="cls-7" points="563.9 542.1 579 542.1 574.3 533.7 581.6 520.3 571.1 505.4 555.5 519.2 566.4 535.1 563.9 542.1"/><path class="cls-12" d="M541.7,495.3a112.35,112.35,0,0,0,7.6,36.6c.3.8.6,1.5.9,2.2l18.7-19.3,15.8,18.9c.8-2.4,1.6-5,2.3-7.6,5.1-18.5,1.4-29.7,1.4-29.7Z"/><path class="cls-12" d="M543.5,497.4s4,12.7,10.5,18.1,17.9,3.5,22.5,1.1c5.9-3.2,13.9-16.6,11.6-16.7C585,499.9,543.5,497.4,543.5,497.4Z"/><path class="cls-12" d="M532.3,455.1s-4-6.2-7.2-4.3-4,8-2.5,14.9,12.7,9.8,12.7,9.8Z"/><path class="cls-12" d="M597.9,455.1s4-6.2,7.2-4.3,4,8,2.5,14.9-12.7,9.8-12.7,9.8Z"/><path class="cls-12" d="M542.8,418.5s-7.6,2.9-9.8,8.3-.7,32.6.7,41.7,4,22.8,6.5,28.3,20.3,16.3,33,12.7,21-11.6,21.4-21,5.4-52.2,5.4-57.6-22.5-18.1-33.7-19.6S542.8,418.5,542.8,418.5Z"/><path class="cls-13" d="M543.8,445.3s4.6-2.9,12.1-1.7"/><path class="cls-13" d="M573.1,445s9.1-2.1,15.2,1.2"/><path class="cls-14" d="M558.6,464.1H540.5a3.12,3.12,0,0,1-3.1-3.1v-9.4a3.12,3.12,0,0,1,3.1-3.1h18.1a3.12,3.12,0,0,1,3.1,3.1V461A3.12,3.12,0,0,1,558.6,464.1Z"/><path class="cls-14" d="M591.2,464.1H573.1A3.12,3.12,0,0,1,570,461v-9.4a3.12,3.12,0,0,1,3.1-3.1h18.1a3.12,3.12,0,0,1,3.1,3.1V461A3.12,3.12,0,0,1,591.2,464.1Z"/><line class="cls-14" x1="558.4" y1="448.5" x2="573.2" y2="448.5"/><line class="cls-14" x1="561.7" y1="451.8" x2="570" y2="451.8"/><line class="cls-14" x1="537.4" y1="451.8" x2="532.3" y2="451.8"/><line class="cls-14" x1="594.3" y1="451.8" x2="597.5" y2="451.8"/><path class="cls-4" d="M553,456.5c0,1.6-.7,2.9-1.6,2.9s-1.6-1.3-1.6-2.9.7-2.9,1.6-2.9S553,454.9,553,456.5Z"/><ellipse class="cls-4" cx="582.7" cy="456.5" rx="1.6" ry="2.9"/><path class="cls-14" d="M556.9,461.2s-6.2,8-10.9,8.7"/><path class="cls-14" d="M577.6,460.8s4.7,6.2,10.9,8"/><path class="cls-4" d="M561.3,476.1s-10.5,1.4-13,6.9c-2.2,4.8-.5,16.4.9,21.5,6.9,4,16.4,7.1,24.1,4.9a37.27,37.27,0,0,0,12.5-6c2-5.9,2.6-15.6-1.3-20.8C580.5,477.1,568.2,475,561.3,476.1Z"/><path class="cls-12" d="M566.4,479.3s-11.6,2.2-12.7,4.7,0,7.2,2.2,9.8,4.3,3.6,6.2,2.2.4-4,3.6-4,4.3-.4,5.4.7.4,3.6,4.3,2.9,5.8-4.7,6.2-8.7S571.8,479,566.4,479.3Z"/><path class="cls-14" d="M556.6,485.5s10.1,2.9,20.3-.4"/><path class="cls-12" d="M557.7,469.5s1.4,8.3,8.7,8a9.36,9.36,0,0,0,8.7-6.9"/><path class="cls-4" d="M592.1,442l1.1,5.4,1.3,2s.1,8.5,2.3,8.1,5.8-16.7,5.8-19.6S591.7,438.4,592.1,442Z"/><path class="cls-4" d="M541.4,425.3a93.17,93.17,0,0,0,29.3,17c17,5.8,35.5-.4,36.9-7.6s-18.5-29.7-38-35.9-34.1,17.8-34.1,17.8a9.72,9.72,0,0,0-9.4,6.5c-2.5,6.9,0,15.2,1.8,19.6s2.5,11.6,2.5,11.6.7,3.3,1.8.7a55,55,0,0,0,2.2-8.3s10.1-5.4,10.1-10.5S541.4,425.3,541.4,425.3Z"/><rect class="cls-15" x="494.7" y="533" width="39" height="9.2"/><rect class="cls-14" x="493.6" y="394.5" width="146.5" height="147.9"/><rect class="cls-10" x="341.4" y="394.5" width="146.5" height="147.9"/><path class="cls-11" d="M440.9,517.7c-10.8-4.5-24.4-6.3-30.3-7s-16.4,1.4-16.4,1.4-36.9,19.9-49.1,23.4c-1.3.4-2.5.7-3.6,1v5.6H488.1v-4.9C475.5,532,449,521.1,440.9,517.7Z"/><path class="cls-14" d="M390.5,542.1h42.7a27.33,27.33,0,0,0,9.5-20.6c0-1.1-.1-2.1-.2-3.2-.6-.2-1.1-.5-1.5-.6-10.8-4.5-24.4-6.3-30.3-7s-16.4,1.4-16.4,1.4-5.6,3-13.1,6.9a20.9,20.9,0,0,0-.1,2.5A26.9,26.9,0,0,0,390.5,542.1Z"/><line class="cls-14" x1="384.4" y1="533.7" x2="391.8" y2="528.5"/><path class="cls-12" d="M391.1,504.4s.7,13.2,1,16,11.5,13.6,17.8,16,15.7-6.3,19.2-10.1,4.5-22,4.5-22-14.3,9.4-22,7.7S391.1,504.4,391.1,504.4Z"/><path class="cls-4" d="M410.6,511.8c-7.7-2-19.5-7.4-19.5-7.4s.7,13.2,1,16c.2,1.2,2.5,4.1,5.5,7a22.11,22.11,0,0,0,2.5-.5,163.26,163.26,0,0,0,20.2-7.1Z"/><path class="cls-12" d="M380.6,472.4s-3.1-4.2-5.9-.3.7,10.8,2.1,14.6,7,3.8,7,3.8Z"/><path class="cls-12" d="M439.7,472.5s2.9-4.4,5.9-.7,0,10.8-1.1,14.7-6.7,4.3-6.7,4.3Z"/><path class="cls-12" d="M380.6,472.4s3.1,23,5.2,28.2,17.1,18.5,18.5,19.9,9.8,4.9,13.9,3.1,7.7-7,7.7-7,11.2-12.9,12.5-18.1,1.4-34.2,1.4-34.2-1.7-18.5-4.2-21.6-23-4.9-34.9-5.2-19.5-.3-20.2,4.9S380.6,472.4,380.6,472.4Z"/><path class="cls-7" d="M432.5,445.2s-1,5.6,0,7.7a40.67,40.67,0,0,0,3.8,5.6s-.3,12.9,0,13.9,2.4,2.4,2.8,0,1.7-11.5,2.4-13.6,3.1-6.6,3.1-12.5a11.79,11.79,0,0,0-4.5-9.1Z"/><path class="cls-7" d="M379.6,468.5s-5.2-17.4-7.3-27.2.7-20.6,5.9-24,12.2-4.2,12.2-4.2,7-8,17.1-9.4,17.4.7,23.7,4.9,13.6,3.1,18.5,3.1,5.6,13.2,0,20.2-16.7,15.7-26.1,17.8-22.3-1.7-27.5-4.2a51.07,51.07,0,0,1-7.7-4.2s4.5,8,2.4,10.8a102.68,102.68,0,0,1-7,7.7s1.7,13.6,0,15S379.6,468.5,379.6,468.5Z"/><path class="cls-14" d="M393.4,432.8c6.1,4.6,16,10.1,28.5,9.6,21.3-.7,27.3-20.6,27.3-20.6"/><path class="cls-14" d="M386.8,426.8s.9,1,2.5,2.5"/><path class="cls-14" d="M438.5,431.8a17.91,17.91,0,0,0,6.2-4.6"/><path class="cls-14" d="M395,420.8a169.59,169.59,0,0,0,27.3,11.7,21.66,21.66,0,0,0,11,.9"/><path class="cls-14" d="M416.9,465.7s-1.7,12.5-1,17.1,2.8,9.8-1,10.5-9.1-2.8-8.4-5.2"/><path class="cls-14" d="M399.8,494.7s6.3,5.9,14.3,5.2a16.29,16.29,0,0,0,11.8-6.6"/><ellipse class="cls-4" cx="400.5" cy="473.1" rx="1.7" ry="3.1"/><path class="cls-4" d="M425.2,473.1c0,1.7-.8,3.1-1.7,3.1s-1.7-1.4-1.7-3.1.8-3.1,1.7-3.1S425.2,471.3,425.2,473.1Z"/><path class="cls-7" d="M392.6,468a12.43,12.43,0,0,1,6.6-2.8c4.5-.7,9.1,1.7,9.1.3s-4.5-4.9-9.8-4.9S390.9,466.6,392.6,468Z"/><path class="cls-7" d="M430.8,465.2a12.43,12.43,0,0,0-6.6-2.8c-4.5-.7-9.1,1.7-9.1.3s4.5-4.9,9.8-4.9S432.5,463.8,430.8,465.2Z"/><line class="cls-14" x1="395.3" y1="478.3" x2="401.4" y2="479.7"/><line class="cls-14" x1="421.6" y1="479.4" x2="428.7" y2="478"/><rect class="cls-15" x="342.6" y="533" width="39" height="9.2"/><rect class="cls-14" x="341.4" y="394.5" width="146.5" height="147.9"/><rect class="cls-10" x="645.8" y="241.2" width="146.5" height="147.9"/><path class="cls-4" d="M683.8,320a74.45,74.45,0,0,0-12.9,17.3c-5.4,10.2,3.1,26.5,18,31.2s49.5,7.1,59-2.7,11.2-25.1,7.1-32.6-12.2-9.2-20.7-17.3S700.4,301,683.8,320Z"/><path class="cls-12" d="M678.7,308.5s-3.7-1-3.7,4.7,3.7,12.5,6.8,13.9,5.8-1,5.8-1l-4.1-17.6Z"/><path class="cls-12" d="M746.5,308.5s3.7-1,3.7,4.7-3.7,12.5-6.8,13.9-5.8-1-5.8-1l4.1-17.6Z"/><path class="cls-12" d="M788.9,388.8v-4.3s-54.6-22.4-56.3-24.8-2.4-18.7-2.4-18.7l-33.6.7v14.6c0,4.7,0,5.1-4.7,9.2s-44.4,21.4-45.8,22.7a.85.85,0,0,0-.2.6Z"/><path class="cls-4" d="M698.3,356.3a22.67,22.67,0,0,1-.1,2.8l21.8-5-3.4-9.8s-2.4-1.4-5-2.8l-13.3.3Z"/><path class="cls-11" d="M788.9,388.8v-4.3s-28.2-11.6-44.7-19c-2.3,4.7-10.4,19.7-23.7,23.3Z"/><path class="cls-11" d="M708.5,388.8c-12.8-3.2-19.9-15.7-22-20.1-12.2,6.5-39.3,18.4-40.4,19.5a.85.85,0,0,0-.2.6Z"/><path class="cls-7" d="M693.7,388.8l-3-22.5c-8.1,5.2-43.3,20.6-44.6,21.9a.85.85,0,0,0-.2.6Z"/><path class="cls-7" d="M792.3,388.8v-4.3s-44.6-16.9-56.6-22.9L734,388.8Z"/><path class="cls-12" d="M683.8,317.7s4.4,15.6,6.4,20.3,18,17,21.4,18.3,10.2.3,13.2-2.7,11.2-13.2,12.9-17,5.1-28.5,5.1-28.5,2.4-6.1,0-11.9-20.7-19.7-31.9-24.1-14.2,0-22.4,13.2-9.2,17.3-8.5,20.3,3.1,10.5,3.1,10.5Z"/><path class="cls-14" d="M716.3,305.4,717,318s2.7,4.1.7,5.1-7.1.3-8.1-1.4"/><path class="cls-14" d="M704.4,330.9s6.4,3.7,11.5,2.4a31.47,31.47,0,0,0,8.5-3.7"/><path class="cls-4" d="M704.8,309.9c0,1.7-.8,3.1-1.7,3.1s-1.7-1.4-1.7-3.1.8-3.1,1.7-3.1S704.8,308.2,704.8,309.9Z"/><path class="cls-4" d="M725.8,309.9c0,1.7-.8,3.1-1.7,3.1s-1.7-1.4-1.7-3.1.8-3.1,1.7-3.1S725.8,308.2,725.8,309.9Z"/><path class="cls-14" d="M695.6,302.7s4.1-3.4,11.5-2.4"/><path class="cls-14" d="M719.7,299.3s6.8-1.4,11.5,3.7"/><path class="cls-4" d="M707.2,278.3s-4.4,12.9-11.9,18.7-11.5,7.5-11.5,7.5v13.2c0,1.7-1-.3-3.1-3.1s-2-6.4-8.5-11.2-10.9-11.5-7.5-19,11.2-25.8,26.5-33.6,26.8-5.8,34.9-2.7,29.5,24.4,32.6,31.9-3.7,19-7.8,22.4-7.8,3.4-14.2.3-23.1-14.6-25.1-16.6S707.2,278.3,707.2,278.3Z"/><path class="cls-16" d="M673.4,296.3c-3.4,1.1-4.2.8-4.2.8"/><path class="cls-16" d="M704.2,268s-3,15.2-17.7,22.6c-3.3,1.6-6,2.9-8.1,3.8"/><path class="cls-16" d="M751.5,295.8c1.3,1.3,1.8,2.6,1.3,3.7"/><path class="cls-16" d="M707.6,264.6s5.4,13.8,19.2,18.7c7.7,2.8,15.6,6.2,20.7,9.4"/><path class="cls-16" d="M743.3,273.6a96.3,96.3,0,0,1,12,17.5"/><path class="cls-16" d="M707.1,256.2s23.1,3.4,32.9,13.8"/><path class="cls-16" d="M700.7,262.1s-8.4,4.9-10.8,10.8-6.4,14.8-11.8,17.2"/><polygon class="cls-4" points="739 303.1 740.7 316 746.8 302.7 738.4 301.7 739 303.1"/><rect class="cls-15" x="646.7" y="378.3" width="39" height="9.2"/><rect class="cls-14" x="645.8" y="241.2" width="146.5" height="147.9"/><rect class="cls-4" x="493.6" y="241.2" width="146.5" height="147.9"/><path class="cls-6" d="M548.1,322.1H546l-1.9-13.9h1.5l1.6,11.8,1.5-11.8h1.5l1.5,11.8,1.6-11.9h1.4L552.8,322h-2l-1.3-9.4Z"/><path class="cls-6" d="M557.5,308.2v13.9H556V308.2Z"/><path class="cls-6" d="M559.1,322.1V308.2h1.5v12.5h4v1.4Z"/><path class="cls-6" d="M571.8,311.5v.4h-1.5v-.5c0-1.3-.5-2-1.6-2s-1.6.7-1.6,2c0,3.1,4.7,3.4,4.7,7.3,0,2.1-1,3.5-3.1,3.5s-3.1-1.4-3.1-3.5V318h1.5v.9c0,1.3.5,2,1.6,2s1.6-.7,1.6-2c0-3.1-4.6-3.4-4.6-7.3,0-2.1,1-3.5,3.1-3.5S571.8,309.4,571.8,311.5Z"/><path class="cls-6" d="M573.1,311.5c0-2.1,1.1-3.5,3.2-3.5s3.2,1.4,3.2,3.5v7.2c0,2.1-1.1,3.5-3.2,3.5s-3.2-1.4-3.2-3.5Zm1.5,7.3c0,1.3.5,2,1.6,2s1.6-.7,1.6-2v-7.4c0-1.3-.5-2-1.6-2s-1.6.8-1.6,2Z"/><path class="cls-6" d="M586,322.1h-1.5L582.2,311v11.1h-1.4V308.2H583l2.3,11.1,2.2-11.1h2.2v13.9h-1.5V310.9Z"/><rect class="cls-10" x="341.4" y="241.2" width="146.5" height="147.9"/><path class="cls-4" d="M454,263.5a59.86,59.86,0,0,0-12.4-7.2s6-2.4,4.4-5.2-20.8-7.6-29.2-7.6-14,.4-14,.4,2.6-1.9,2.9-3.1h-5.9c-5.3,2-12.4,7-17.8,15.9,0,0-18,6.4-21.2,11.6s5.6,4,5.6,4-10.8,19.2-10.8,26.4,6.8,6.4,6.8,6.4.8,25.6,6,29.6,7.2-.4,7.2-.4A95.4,95.4,0,0,0,400,346.7c13.6,4.4,36.8-2.4,44.4-6.4a96.36,96.36,0,0,0,13.2-8.4s.8,4.8,3.6.8,4-27.6,4-27.6,3.6,1.6,4.4-2.4-2.4-9.6-2.4-9.6,5.2,4,4.4-4S459.6,267.9,454,263.5Z"/><path class="cls-7" d="M488,388.8V362.6c-11.4-4.5-50.8-20.1-56.5-22.3-6.6-2.6-31.6-2.9-31.6-2.9s-54.4,24.3-58.8,26.5H341v25H488Z"/><path class="cls-17" d="M370.5,382.6l2.1,6.2h80.8l1.7-5.1-9.2-11,9.2-12.5-11.8-15.3c-5.7-2.2-10.1-4-11.7-4.6-6.6-2.6-31.6-2.9-31.6-2.9l-20.4,9.1-9.4,18.9,10.3,7.4Z"/><path class="cls-12" d="M432.3,388.8V340.6a4.88,4.88,0,0,1-.7-.3c-6.6-2.6-31.6-2.9-31.6-2.9s-3,1.4-7.7,3.4v48Z"/><path class="cls-11" d="M413.2,388.8h2.3c2.6-3.7,8.9-12.8,10.6-17,2.5-6.4,7.4-19.8,4.7-32.6-1-4.6-2.3-11.1-2.3-11.1s-24.4,4.2-33.2-4.6c0,0,1.1,7.2-1.1,13-3.1,7.7-.4,16.4,2.1,23.9C398.4,367,409.6,383.6,413.2,388.8Z"/><path class="cls-4" d="M395.5,332.7S384,356.8,407,360.3c6.9,1,22.2-22.6,22.2-22.6Z"/><path class="cls-11" d="M397.1,271.5s-14.8,22-14.8,23.6,2,22.4,4,28,12,16,18.4,19.6,14,1.6,19.2-.4,13.2-9.2,15.2-15.6,2.8-30.4,2.8-30.4l-26.4-16s-.4,4-3.2,2S397.1,271.5,397.1,271.5Z"/><path class="cls-11" d="M383.5,305.1s-7.1,5.1-5.9,7.1,3.1,10.5,7.5,8.5Z"/><path class="cls-11" d="M441.9,305.5l-1.6,15.8s7.5-5.3,8-9.4C448.7,309.6,441.9,305.5,441.9,305.5Z"/><path class="cls-4" d="M403.5,301.9c0,1.9-.7,3.4-1.6,3.4s-1.6-1.5-1.6-3.4.7-3.4,1.6-3.4S403.5,300.1,403.5,301.9Z"/><path class="cls-4" d="M425.1,301.9c0,1.9-.7,3.4-1.6,3.4s-1.6-1.5-1.6-3.4.7-3.4,1.6-3.4S425.1,300.1,425.1,301.9Z"/><path class="cls-18" d="M393.5,294.7a12.28,12.28,0,0,1,12-2.8"/><path class="cls-18" d="M419.1,291.9a10.63,10.63,0,0,1,12,2.4"/><path class="cls-14" d="M404.9,320.2a15.71,15.71,0,0,0,9.6,3,11,11,0,0,0,8.1-4.2"/><path class="cls-14" d="M419.2,311.9s-5.7,3.8-9.1,1.9l-3.4-1.9"/><line class="cls-14" x1="393.8" y1="307.4" x2="401.8" y2="307.4"/><line class="cls-14" x1="423.3" y1="308.5" x2="430.9" y2="308.5"/><rect class="cls-15" x="342.6" y="378.3" width="39" height="9.2"/><rect class="cls-14" x="341.4" y="241.2" width="146.5" height="147.9"/><path class="cls-1" d="M237.8,785.5a331.91,331.91,0,0,1-3.3,44.5c-.1.5-.1,1-.2,1.6L95,830.8c-.4-.5-.8-1-1.2-1.6a50.67,50.67,0,0,1-3.6-5.4c-5.4-8.9-7.8-19.4-5.4-26.6v-.1a12.44,12.44,0,0,1,2.5-4.3c5.6-6.3,17-5.3,27.3-.2-9.3-10.1-16.6-22.9-17.2-34.3-.5-11.1,5.3-19.1,11.6-25.9a4.35,4.35,0,0,0,.6-.7l.3-.3c4.9-5.2,10.7-10.2,19-9.6,9.1.7,19.2,8.3,26.3,17.2s11.8,19,16.6,28.9,10,20,17.6,28.4c-10.4-13.1-18.8-28.1-21.9-42.6s-.4-28.5,8.9-35.4a21.9,21.9,0,0,1,9.5-3.8c.4-.1.8-.1,1.2-.2,8.6-1,18.8,2,27.5,9.1,9.6,7.8,16.2,19.4,19.5,30.4C237.6,764.7,238,775.3,237.8,785.5Z"/><path class="cls-6" d="M146.7,831.1H144c-.8-.5-1.7-1.1-2.5-1.6-.5-.3-1.1-.7-1.6-1-8.8-5.4-17.7-10.6-26.7-15.5s-17.9-9.7-27-14.2a1,1,0,0,1-.6-1.3v-.1c.1-.2.4-.3.8-.1,1.1.6,2.2,1.1,3.3,1.7q13.65,6.9,27,14.4c9,5,17.9,10.3,26.8,15.8l.6.3C145,830,145.8,830.5,146.7,831.1Z"/><path class="cls-6" d="M181,831.3h-1.6c-.4-.5-.7-1-1.1-1.6-8.7-12.2-17.5-24.5-26.2-36.7-14.3-20-28.6-40.1-42.9-60.1-.1-.1-.1-.2-.2-.4a.56.56,0,0,1,.6-.7,1.46,1.46,0,0,1,.9.6c8,11.2,16,22.5,24,33.7,14.2,19.9,28.4,39.9,42.6,59.8.9,1.3,1.8,2.5,2.7,3.8A6.1,6.1,0,0,1,181,831.3Z"/><path class="cls-6" d="M217.7,821.7c-.1,2.8-.3,5.5-.5,8.2,0,.5-.1,1-.1,1.6h-1.7c.1-.5.1-1,.2-1.6.4-3.9.6-7.9.7-11.9a170.65,170.65,0,0,0-3.3-33.5,220.1,220.1,0,0,0-10.1-34.8,248.53,248.53,0,0,0-16.6-34.5,1.42,1.42,0,0,1-.2-.6c.1-.5.7-.6,1.2-.2.1.1.2.2.2.3.8,1.4,1.6,2.7,2.3,4.1a245.76,245.76,0,0,1,15.9,34.6,209.31,209.31,0,0,1,9.5,34.9A162.41,162.41,0,0,1,217.7,821.7Z"/><path class="cls-9" d="M93.5,831.4H441.6a1.22,1.22,0,0,0,1.2-1.2,1.16,1.16,0,0,0-1.2-1.2H93.5a1.2,1.2,0,1,0,0,2.4Z"/><polygon class="cls-19" points="310.9 818.2 325 818.2 331.8 763.5 310.9 763.5 310.9 818.2"/><path class="cls-4" d="M352.4,831.4H307.8V814.2h27.3a17.22,17.22,0,0,1,17.3,17.2Z"/><polygon class="cls-19" points="208 802.1 220.9 808 249.7 761.1 230.7 752.4 208 802.1"/><path class="cls-4" d="M240.3,831.4l-40.5-18.5h0l7.2-15.7h0l24.9,11.4a17.3,17.3,0,0,1,8.4,22.8Z"/><path class="cls-19" d="M249.3,633.8a11.65,11.65,0,0,1-2.3-16.3,10,10,0,0,1,1.4-1.5l-16.7-37.8,21.2,3.6,12.6,35.4a11.68,11.68,0,0,1-16.2,16.6Z"/><path class="cls-4" d="M306.6,799.2,293,680.4a4.05,4.05,0,0,0-8-.4l-6.7,32.5a5,5,0,0,1-.5,1.3l-39.5,76.8a5.25,5.25,0,0,1-6.4,2.5L218.2,788a5.23,5.23,0,0,1-3.1-6.7v-.1l32.1-83.3a3.19,3.19,0,0,0,.3-1.4l1.6-87a5.36,5.36,0,0,1,4.7-5.1l85.3-8.3a5.19,5.19,0,0,1,5.7,4.7v.9L330.5,799a5.23,5.23,0,0,1-5.2,4.8H311.8A5.2,5.2,0,0,1,306.6,799.2Z"/><circle class="cls-19" cx="305" cy="419.1" r="28.4"/><path class="cls-7" d="M329.6,463c-.8-.4-1.5-.7-2.3-1.1h0a57.52,57.52,0,0,0-57.8,6.2c-15.1,11.3-22.4,28.2-20,46.5,5.1,38.6-.7,90.9-1.3,96.2,46.7,21.5,87.7-5.5,91.3-8Z"/><path class="cls-7" d="M246.8,610.4a5.23,5.23,0,0,1-3.9-3l-23.8-52.8a13.29,13.29,0,0,1,.8-12.4l29.3-47.5a9.57,9.57,0,0,1,13-3.9A9.72,9.72,0,0,1,267,497a9.42,9.42,0,0,1-.7,6.4l-21.7,45.5,14.2,48.2a5.13,5.13,0,0,1-1.2,5l-6.2,6.8a5.17,5.17,0,0,1-3.8,1.7A1.88,1.88,0,0,0,246.8,610.4Z"/><path class="cls-20" d="M313.2,599.3l-4.4-88.1,1.1-.1,19.8,93.2H318.4A5.19,5.19,0,0,1,313.2,599.3Z"/><path class="cls-19" d="M328.9,627.5a11.68,11.68,0,0,1,1.1-16.4,10.38,10.38,0,0,1,1.7-1.2l-8.5-40.5,20,7.9,5,37.2a11.73,11.73,0,0,1-19.3,13Z"/><path class="cls-7" d="M324.9,600,308.2,488.8v-.1l3.2-14.8a15.72,15.72,0,0,1,18.6-12,15.55,15.55,0,0,1,12.3,14.6l5,121.2a5.24,5.24,0,0,1-4.6,5.4l-12.1,1.3H330A5.24,5.24,0,0,1,324.9,600Z"/><path class="cls-4" d="M293.3,444.9a20.7,20.7,0,0,1-18.4-11.8h0c-2.6-5.6-4.1-10-4.3-13.2-.7-8.5,4.2-22,10.5-29.3,7-8.1,18.1-9.2,28.9-10.3,2.9-.3,6-.6,8.8-1.1,2.5-.4,5.5-.9,8.1.1a6.26,6.26,0,0,1,3.4,3.2,2,2,0,0,0,1.1,1.1,1.69,1.69,0,0,0,1.4-.1,3.07,3.07,0,0,1,2.8,0,2.82,2.82,0,0,1,1.5,2,1.14,1.14,0,0,0,.3.8,3.31,3.31,0,0,0,2.2,1.6,3,3,0,0,1,2.3,3.1c-.2,1.5-.2,3-.3,4.6-.3,5.7-.5,11.7-6.3,11.6a15.57,15.57,0,0,1-4.3-.8c-2.1-.6-3.7-1-6,.3-3.4,2.1-4,6.6-4.5,10.5l-.1.7c-.6,4.5-2.9,9.9-7.7,10.3a11.89,11.89,0,0,1-4.5-.8,9.19,9.19,0,0,0-4.6-.6c-2.6.8-3.9,3.9-3.8,6.6.1,1.1.2,2.2.4,3.3a18.7,18.7,0,0,1,.4,5.3c-.1,1.1-1.4,1.8-3.9,2.2A6.72,6.72,0,0,1,293.3,444.9Z"/><path class="cls-4" d="M308.8,511.2c1.4,6.65,2.7,13.32,4,20s2.47,13.35,3.71,20L320,571.3l1.66,10.05c.52,3.36,1.07,6.71,1.56,10.08-.71-3.32-1.36-6.66-2-10l-1.94-10-3.71-20c-1.16-6.7-2.37-13.38-3.49-20.08S309.8,517.92,308.8,511.2Z"/><path class="cls-4" d="M261.14,475.82a44.88,44.88,0,0,0-2.82,5.58c-.85,1.89-1.57,3.85-2.24,5.82a94.36,94.36,0,0,0-3.17,12,113.62,113.62,0,0,0-1.75,12.35c-.24,2.07-.28,4.15-.43,6.23l-.21,6.26q-.2-3.12-.28-6.27c0-2.09,0-4.19.15-6.28s.28-4.18.58-6.26.6-4.16,1-6.22A82.8,82.8,0,0,1,255.36,487,47.34,47.34,0,0,1,261.14,475.82Z"/><path class="cls-4" d="M251.54,557.7c-.1,4.41-.33,8.82-.58,13.22s-.61,8.81-.93,13.21-.79,8.78-1.3,13.17-1.06,8.77-1.93,13.1c.22-2.2.45-4.39.62-6.59l.55-6.59L249,584l1.17-13.17C250.61,566.48,251,562.09,251.54,557.7Z"/><path class="cls-4" d="M267.26,584.05a25.33,25.33,0,0,0,2.88,2.31c1,.72,2,1.37,3.09,2a59.1,59.1,0,0,0,6.58,3.25l1.7.69c.56.23,1.15.42,1.72.63,1.14.46,2.33.77,3.49,1.18s2.36.68,3.54,1,2.4.59,3.59.94c-1.23-.12-2.46-.3-3.69-.46s-2.44-.47-3.65-.77a48.15,48.15,0,0,1-7.09-2.32,40.17,40.17,0,0,1-6.6-3.52A24.11,24.11,0,0,1,267.26,584.05Z"/></svg>