<?xml version="1.0" encoding="utf-8"?>
<!-- Generator: Adobe Illustrator 19.0.0, SVG Export Plug-In . SVG Version: 6.00 Build 0)  -->
<svg version="1.1" id="Layer_1" xmlns="http://www.w3.org/2000/svg" xmlns:xlink="http://www.w3.org/1999/xlink" x="0px" y="0px"
	 viewBox="3404 -1179.8 8000 3442.9" style="enable-background:new 3404 -1179.8 8000 3442.9;" xml:space="preserve">
<style type="text/css">
	.st0{fill:#FFFFFF;stroke:#000000;stroke-miterlimit:10;}
	.st1{opacity:0.1;fill:#A7D4F3;enable-background:new    ;}
	.st2{fill:#ECECEC;}
	.st3{fill:#FFFFFF;}
	.st4{fill:#E1E1E1;}
	.st5{fill:#F5F5F5;}
	.st6{fill:#FAFAFA;}
	.st7{fill:#375A64;}
	.st8{fill:#1A2E35;}
	.st9{fill:#A7D4F3;}
	.st10{opacity:0.3;}
	.st11{fill:#FFBF9D;}
	.st12{fill:#FF9A6C;}
	.st13{fill:none;stroke:#FFFFFF;stroke-width:6;stroke-linecap:round;stroke-miterlimit:10;}
</style>
<rect x="3404" y="-1179.8" class="st0" width="7985.2" height="3442.9"/>
<path class="st1" d="M11290.3,1344c31.2,191.9-112,368.2-306.3,376.9c-735.6,33-2358.9,58.6-2714.6-330.1
	c-202.8-221.6-211.9-498.1-158-739c64.9-290.5,228.5-549.4,461-735.1l557-444.5c251-200.3,579.9-274.7,892.6-201.9l569.3,132.5
	c289.4,67.4,462.2,364.7,377.5,649.5l-21.6,72.4c-84.3,283.4-26.6,590.1,155.1,823.4l34.9,44.9
	C11216.8,1095.3,11269.5,1216,11290.3,1344L11290.3,1344z"/>
<g>
	<g>
		<g>
			<path class="st2" d="M8790.1,1310.5h-226.2c-2.1,0-3.8-1.7-3.8-3.8v-226.2c0-2.1,1.7-3.8,3.8-3.8h226.2c2.1,0,3.8,1.7,3.8,3.8
				v226.2C8793.8,1308.8,8792.1,1310.5,8790.1,1310.5z"/>
		</g>
		<g>
			<path class="st3" d="M8582.7,1262.5l-4.4-3.7l47.3-56.1c5.1-7.2,15.1-9,22.7-4l28.3,18.9l33.1-41.9c3-3.8,7.5-6.1,12.4-6.3
				c4.8-0.3,9.6,1.8,12.9,5.3l40.4,43.7l-4.2,3.9l-40.4-43.7c-2.2-2.4-5.2-3.6-8.5-3.5c-3.2,0.1-6.2,1.6-8.2,4.1l-36.4,46.1
				l-32.7-21.8c-4.9-3.3-11.5-2.1-15,2.8L8582.7,1262.5z"/>
		</g>
		<g>
			<path class="st3" d="M8677,1137.4c0,11.5-9.4,20.9-20.9,20.9c-11.6,0-20.9-9.4-20.9-20.9c0-11.6,9.4-20.9,20.9-20.9
				S8677,1125.9,8677,1137.4z"/>
		</g>
	</g>
	<g>
		<g>
			<g>
				<g>
					<g>
						<path class="st2" d="M10958.7,404.2c-0.6,0-1.4-6.7-2.2-19.4c-0.3-6.3-0.8-14.1-2.6-23.3c-1.4-9.1-2.7-19.7-6.1-31.2
							c-5.2-23.3-15.7-51-32.5-80.3c-16.9-29.3-41.3-59.9-74.8-86.1c-33.3-26-75.4-48.3-124.4-58c-48.5-9.4-103.6-9-156.3,9.7
							c-26.6,8.5-52.2,21.8-75.9,38.7c-12.3,8-23,18.1-34.2,27.8c-10.2,10.8-21,21.4-29.8,33.7c-37.6,47.6-59.6,109.4-61.7,173.6
							c-1,64.3,18,127.1,53.2,176.5c8.3,12.8,18.4,23.8,28.2,35.1c10.8,10.2,21.1,20.9,32.9,29.4c22.8,18,47.9,32.6,74,42.4
							c51.8,21.3,106.7,24.3,155.7,17.3c49.3-7.3,92.5-27.6,127-51.9c34.7-24.5,60.5-53.9,78.8-82.4c18.1-28.5,30-55.6,36.3-78.6
							c4-11.3,5.8-21.8,7.6-30.9c2.2-9,3.1-16.7,3.7-23.1C10957.1,410.9,10958.1,404.2,10958.7,404.2c0.6,0,0.7,6.7,0.3,19.5
							c-0.1,6.4-0.5,14.4-2.2,23.6c-1.4,9.3-2.7,20.1-6.3,31.8c-5.4,23.8-16.7,52.1-34.7,81.9c-18.1,29.8-44.2,60.8-79.7,86.9
							c-35.4,25.9-80.2,47.8-131.7,56c-51.2,7.9-108.8,5.3-163.5-16.7c-27.5-10.1-53.9-25.2-78.1-44.1c-12.5-9-23.4-20.1-34.8-30.9
							c-10.3-11.8-21.1-23.5-29.8-36.9c-37.4-52-57.6-118.5-56.5-186.3c2.2-67.8,25.7-133.2,65.5-183.2
							c9.4-12.9,20.7-24.1,31.6-35.4c11.9-10.2,23.3-20.8,36.3-29.2c25.1-17.7,52.3-31.5,80.2-40.3c55.6-19.3,113.4-19.1,164-8.7
							c51.1,10.7,94.7,34.8,128.9,62.3c34.2,27.8,58.9,60.1,75.5,90.7c16.5,30.7,26.4,59.4,30.6,83.5c3,11.9,3.8,22.7,4.7,32.1
							c1.3,9.3,1.3,17.2,1,23.7C10959.6,397.6,10959.3,404.2,10958.7,404.2z"/>
					</g>
				</g>
			</g>
		</g>
		<g>
			<g>
				<g>
					<g>
						<path class="st2" d="M10897.8,214c0.7,0.9-4.8,5.8-15.4,13.6c-5.8,4.1-12.3,8.9-19.6,14c-3.9,2.6-7.9,5.7-12.4,8.5
							c-4.8,2.5-9.8,5.2-15,7.9c-40.8,23.5-105.3,47.6-179,45.1c-9.1-0.4-18.2-0.8-27.1-1.2c-8.8-1.4-17.5-2.7-26-4.1
							c-4.2-0.7-8.5-1.3-12.6-2.1c-4.1-1.1-8.1-2.2-12.2-3.2c-7.9-2.2-15.9-4.1-23.4-6.5c-29.8-10.4-55.6-22.5-75.9-35
							c-40.8-24.7-60.6-47.1-59.1-48.5c1.6-1.9,23.8,16.9,64.9,38.2c20.4,10.8,45.8,21.4,74.8,30.6c7.3,2.1,14.9,3.7,22.6,5.7
							c3.9,0.9,7.8,1.9,11.7,2.9c4,0.6,8,1.2,12.1,1.9c8.1,1.2,16.4,2.5,24.9,3.6c8.5,0.3,17.1,0.7,25.8,1
							c70.1,2.5,132.2-18.6,173.3-38.9c5.2-2.3,10.3-4.5,15.1-6.6c4.7-2.5,8.8-5,12.9-7.3c7.7-4.2,14.6-8,20.8-11.4
							C10890.4,216.1,10897.2,213.1,10897.8,214z"/>
					</g>
				</g>
			</g>
		</g>
		<g>
			<g>
				<g>
					<g>
						<path class="st2" d="M10410.7,584.2c-0.7-0.9,4.8-5.8,15.4-13.6c5.8-4.1,12.3-8.9,19.6-14c3.9-2.6,7.9-5.7,12.4-8.5
							c4.8-2.5,9.8-5.2,15-7.9c40.8-23.5,105.3-47.6,179-45.1c9.1,0.4,18.2,0.8,27.1,1.2c8.8,1.4,17.5,2.7,26,4.1
							c4.2,0.7,8.5,1.3,12.6,2.1c4.1,1.1,8.1,2.2,12.2,3.2c7.9,2.2,15.9,4.1,23.4,6.5c29.8,10.4,55.6,22.5,75.9,35
							c40.8,24.7,60.6,47.1,59.1,48.5c-1.6,1.9-23.8-16.9-64.9-38.2c-20.4-10.8-45.8-21.4-74.8-30.6c-7.3-2.1-14.9-3.7-22.6-5.7
							c-3.9-0.9-7.8-1.9-11.7-2.9c-4-0.6-8-1.2-12.1-1.9c-8.1-1.2-16.4-2.5-24.9-3.6c-8.5-0.3-17.1-0.7-25.8-1
							c-70.1-2.5-132.2,18.6-173.3,38.9c-5.2,2.3-10.3,4.5-15.1,6.6c-4.7,2.5-8.8,5-12.9,7.3c-7.7,4.2-14.6,8-20.8,11.4
							C10418.1,582.2,10411.4,585.1,10410.7,584.2z"/>
					</g>
				</g>
			</g>
		</g>
		<g>
			<g>
				<g>
					<g>
						<path class="st2" d="M10958.5,411.4c-0.1,4.7-136.5,5.1-304.6,1c-168.2-4.1-304.3-11.2-304.2-15.7c0.1-4.7,136.5-5.1,304.6-1
							C10822.5,399.7,10958.6,406.7,10958.5,411.4z"/>
					</g>
				</g>
			</g>
		</g>
		<g>
			<g>
				<g>
					<g>
						<path class="st2" d="M10640.1,701c-4.7-0.1-5.1-136.5-1-304.5c4.1-168.1,11.2-304.2,15.7-304.1c4.7,0.1,5.1,136.4,1,304.5
							C10651.8,564.9,10644.7,701.1,10640.1,701z"/>
					</g>
				</g>
			</g>
		</g>
		<g>
			<g>
				<g>
					<g>
						<path class="st2" d="M10640.1,700.5c-1.2,1.8-34.7-21-73.4-72.5c-19.1-25.7-39.2-58.8-54.4-98.8
							c-15.1-39.9-24.6-86.9-23.6-136.4c0.8-49.6,13.4-96.1,30.7-135c17.3-39.1,39.2-70.9,59.4-95.7c41-49.6,74.8-71.5,75.9-69.8
							c1.6,1.9-29,26.8-66.6,77c-18.6,25.1-38.7,56.7-54.6,94.6c-15.9,37.8-27.3,82-28.2,129.2c-0.9,47.3,7.5,92.2,21.3,130.8
							c13.8,38.7,32.1,71.4,49.6,97.2C10611.6,673.1,10641.8,698.7,10640.1,700.5z"/>
					</g>
				</g>
			</g>
		</g>
		<g>
			<g>
				<g>
					<g>
						<path class="st2" d="M10661.7,92.5c1.2-1.8,34.7,21,73.4,72.5c19.1,25.7,39.2,58.8,54.5,98.8c15.1,39.9,24.6,86.9,23.6,136.4
							c-0.8,49.6-13.4,96.1-30.7,135c-17.3,39.1-39.2,70.9-59.4,95.7c-41,49.6-74.8,71.5-75.9,69.8c-1.6-1.9,29-26.8,66.6-77
							c18.6-25.1,38.7-56.7,54.6-94.6c15.9-37.8,27.3-82,28.2-129.2c0.9-47.2-7.5-92.2-21.3-130.8c-13.8-38.7-32.1-71.4-49.6-97.2
							C10690.2,119.9,10660,94.3,10661.7,92.5z"/>
					</g>
				</g>
			</g>
		</g>
	</g>
	<g>
		<g>
			<path class="st4" d="M10749.9-468.3h-271.8c-7.6,0-13.7-6.2-13.7-13.7l0,0c0-7.6,6.2-13.7,13.7-13.7h271.8
				c7.6,0,13.7,6.2,13.7,13.7l0,0C10763.6-474.5,10757.5-468.3,10749.9-468.3z"/>
		</g>
		<g>
			<path class="st4" d="M10749.9-407.1h-271.8c-7.6,0-13.7-6.2-13.7-13.7l0,0c0-7.6,6.2-13.7,13.7-13.7h271.8
				c7.6,0,13.7,6.2,13.7,13.7l0,0C10763.6-413.3,10757.5-407.1,10749.9-407.1z"/>
		</g>
		<g>
			<path class="st4" d="M10749.9-345.9h-271.8c-7.6,0-13.7-6.2-13.7-13.7l0,0c0-7.6,6.2-13.7,13.7-13.7h271.8
				c7.6,0,13.7,6.2,13.7,13.7l0,0C10763.6-352,10757.5-345.9,10749.9-345.9z"/>
		</g>
	</g>
	<g>
		<g>
			<path class="st5" d="M10780.5,992h-259.3c-7.3,0-13.1-5.8-13.1-13.1l0,0c0-7.3,5.8-13.1,13.1-13.1h259.3
				c7.3,0,13.1,5.8,13.1,13.1l0,0C10793.6,986.2,10787.6,992,10780.5,992z"/>
		</g>
		<g>
			<path class="st5" d="M10780.5,1050.4h-259.3c-7.3,0-13.1-5.8-13.1-13.1l0,0c0-7.3,5.8-13.1,13.1-13.1h259.3
				c7.3,0,13.1,5.8,13.1,13.1l0,0C10793.6,1044.6,10787.6,1050.4,10780.5,1050.4z"/>
		</g>
		<g>
			<path class="st5" d="M10780.5,1108.9h-259.3c-7.3,0-13.1-5.8-13.1-13.1l0,0c0-7.3,5.8-13.1,13.1-13.1h259.3
				c7.3,0,13.1,5.8,13.1,13.1l0,0C10793.6,1103,10787.6,1108.9,10780.5,1108.9z"/>
		</g>
	</g>
	<g>
		<g>
			<path class="st2" d="M8682.8-367.6c0-52.6-47.5-94-102-83.8c-34.2,6.4-61.6,34.4-67.5,68.7c-3.7,21.5,0.7,41.6,10.5,58.3h-0.1
				l0.3,0.3c3.3,5.5,7.4,9.5,11.5,15.2l49.6,65.7c6.2,8.2,18.4,8.2,24.6,0l48.8-64.6c0,0,9.1-10.8,12.4-16.4l0.2-0.3l0,0
				C8678.5-337.1,8682.8-351.8,8682.8-367.6z M8597.4-330.4c-20.7,0-37.5-16.8-37.5-37.5s16.8-37.5,37.5-37.5s37.5,16.8,37.5,37.5
				C8635-347.2,8618.2-330.4,8597.4-330.4z"/>
		</g>
	</g>
	<g>
		<g>
			<g>
				<g>
					<g>
						<g>
							<g>
								<path class="st2" d="M8702.5,1521.6c0,0-65.4,49.8-2.7,115.6c1.1,1.1,2.6,1.8,4.1,1.8l570.9-3.3c0,0,48.8-54.7,8.3-117.7
									L8702.5,1521.6z"/>
							</g>
						</g>
					</g>
				</g>
			</g>
			<g>
				<g>
					<g>
						<g>
							<g>
								<g>
									<path class="st4" d="M9148.6,1573.5c0,0.7-71.1,1.2-158.8,1.2c-87.7,0-158.8-0.5-158.8-1.2c0-0.7,71.1-1.2,158.8-1.2
										C9077.5,1572.4,9148.6,1572.9,9148.6,1573.5z"/>
								</g>
							</g>
						</g>
					</g>
				</g>
			</g>
			<g>
				<g>
					<g>
						<g>
							<g>
								<g>
									<path class="st4" d="M9059.8,1594.2c0,0.7-33.4,1.2-74.7,1.2s-74.7-0.5-74.7-1.2c0-0.7,33.4-1.2,74.7-1.2
										C9026.4,1593.1,9059.8,1593.6,9059.8,1594.2z"/>
								</g>
							</g>
						</g>
					</g>
				</g>
			</g>
			<g>
				<g>
					<g>
						<g>
							<g>
								<g>
									<path class="st4" d="M9207,1633.7c-0.3-0.1,1.3-6.6,3-17.2c1.8-10.6,3.5-25.3,3.3-41.7c-0.2-16.3-2.1-31-4.1-41.6
										c-1.9-10.6-3.7-17-3.4-17.1c0.2-0.1,0.8,1.5,1.7,4.4c0.9,2.9,2.1,7.1,3.3,12.3c2.4,10.5,4.7,25.4,4.8,41.9
										s-1.8,31.4-4,41.9c-1.1,5.3-2.1,9.6-3,12.4C9207.7,1632.2,9207.1,1633.8,9207,1633.7z"/>
								</g>
							</g>
						</g>
					</g>
				</g>
			</g>
			<g>
				<g>
					<g>
						<g>
							<g>
								<g>
									<path class="st4" d="M9249.6,1517.1c0.2-0.1,1,1.4,2.5,4.1c0.8,1.4,1.7,3,2.5,5.1c0.9,2,2,4.3,2.9,7
										c2,5.2,3.9,11.7,5.4,18.9c1.4,7.3,2.4,15.5,2.5,24c0,8.6-0.8,16.7-2.1,24.1c-1.4,7.3-3.2,13.8-5.2,19c-0.8,2.7-1.9,5-2.8,7
										c-0.8,2-1.7,3.8-2.5,5.2c-1.4,2.8-2.4,4.2-2.5,4.2c-0.4-0.2,2.8-6.3,6.2-16.9c1.8-5.2,3.3-11.7,4.6-18.9
										c1.2-7.2,1.9-15.2,1.9-23.7c-0.1-8.5-1-16.4-2.3-23.7c-1.4-7.2-3-13.5-4.9-18.8C9252.5,1523.5,9249.2,1517.4,9249.6,1517.1
										z"/>
								</g>
							</g>
						</g>
					</g>
				</g>
			</g>
			<g>
				<g>
					<g>
						<g>
							<g>
								<g>
									<path class="st4" d="M8792.6,1634.5c-0.2,0.1-1.1-1.3-2.6-3.8c-0.8-1.3-1.8-2.9-2.7-4.7c-0.9-1.9-2.1-4.1-3-6.6
										c-2.1-4.9-4.1-11.1-5.6-18c-1.4-6.9-2.3-14.8-2.2-23c0.2-8.2,1.3-16,2.8-22.9c1.7-6.9,3.8-13,6.1-17.8
										c1-2.5,2.2-4.6,3.2-6.5c0.9-1.9,1.9-3.5,2.8-4.7c1.7-2.5,2.6-3.8,2.8-3.7c0.4,0.3-3.3,5.8-7.3,15.6
										c-2,4.9-3.9,10.9-5.5,17.7c-1.4,6.8-2.5,14.5-2.6,22.5c-0.1,8,0.8,15.7,2,22.6c1.4,6.8,3.1,12.9,5,17.8
										C8789.4,1628.7,8792.9,1634.2,8792.6,1634.5z"/>
								</g>
							</g>
						</g>
					</g>
				</g>
			</g>
			<g>
				<g>
					<g>
						<g>
							<g>
								<g>
									<path class="st4" d="M8730.9,1648.5c-0.2,0.1-1.2-1.4-3-4.3c-0.9-1.4-1.9-3.2-3-5.3c-1-2.1-2.4-4.6-3.5-7.4
										c-2.5-5.5-4.7-12.3-6.5-20.1c-1.7-7.8-3-16.5-3.2-25.8c-0.2-9.2,0.7-18,2-25.9c1.5-7.9,3.5-14.8,5.7-20.5
										c0.9-2.9,2.2-5.3,3.1-7.5c0.9-2.2,1.9-4.1,2.7-5.5c1.6-3,2.6-4.6,2.7-4.5c0.4,0.3-3.2,6.7-7.1,18
										c-1.9,5.7-3.7,12.5-5.1,20.2c-1.3,7.8-2,16.4-1.9,25.5c0.3,9,1.4,17.7,3,25.4c1.7,7.7,3.8,14.5,6,20
										C8727.4,1641.9,8731.3,1648.2,8730.9,1648.5z"/>
								</g>
							</g>
						</g>
					</g>
				</g>
			</g>
		</g>
		<g>
			<g>
				<g>
					<g>
						<g>
							<g>
								<g>
									<path class="st2" d="M9253.8,1809.5c0,4.3,0,109.3,0,109.3h-211.4v-109.3H9253.8z"/>
								</g>
							</g>
						</g>
					</g>
				</g>
				<g>
					<g>
						<g>
							<g>
								<g>
									<path class="st4" d="M8571.1,1865.1c0,0.9,0.1,1.9,0.2,2.9c1.7,33.1,29.8,58.6,62.9,58.6h629.5v-7.9h-149.4
										c-30.2,0-54.6-24.4-54.6-54.6l0,0c0-30.2,24.4-54.6,54.6-54.6h149.4v-11.6l-629.8,2.1
										C8598.3,1800.1,8569.8,1829.6,8571.1,1865.1z"/>
								</g>
							</g>
						</g>
					</g>
				</g>
				<g>
					<g>
						<g>
							<g>
								<g>
									<g>
										<path class="st4" d="M9253.8,1865.5c0,0.7-43.5,1.2-97.1,1.2s-97.1-0.5-97.1-1.2c0-0.7,43.5-1.2,97.1-1.2
											S9253.8,1864.9,9253.8,1865.5z"/>
									</g>
								</g>
							</g>
						</g>
					</g>
				</g>
				<g>
					<g>
						<g>
							<g>
								<g>
									<g>
										<path class="st4" d="M9250.8,1890.1c0,0.7-41.1,1.2-91.8,1.2s-91.8-0.5-91.8-1.2c0-0.7,41.1-1.2,91.8-1.2
											C9209.6,1889,9250.8,1889.5,9250.8,1890.1z"/>
									</g>
								</g>
							</g>
						</g>
					</g>
				</g>
				<g>
					<g>
						<g>
							<g>
								<g>
									<g>
										<path class="st4" d="M9253.8,1912.6c0,0.7-37,1.2-82.6,1.2c-45.7,0-82.6-0.5-82.6-1.2s37-1.2,82.6-1.2
											C9216.8,1911.5,9253.8,1912,9253.8,1912.6z"/>
									</g>
								</g>
							</g>
						</g>
					</g>
				</g>
				<g>
					<g>
						<g>
							<g>
								<g>
									<g>
										<path class="st4" d="M9253.8,1843.4c0,0.7-42.5,1.2-95,1.2c-52.5,0-95.1-0.5-95.1-1.2c0-0.7,42.5-1.2,95.1-1.2
											C9211.2,1842.3,9253.8,1842.8,9253.8,1843.4z"/>
									</g>
								</g>
							</g>
						</g>
					</g>
				</g>
				<g>
					<g>
						<g>
							<g>
								<g>
									<g>
										<path class="st4" d="M9250.8,1821.3c0,0.7-37.9,1.2-84.6,1.2c-46.8,0-84.6-0.5-84.6-1.2c0-0.7,37.9-1.2,84.6-1.2
											C9212.8,1820.1,9250.8,1820.6,9250.8,1821.3z"/>
									</g>
								</g>
							</g>
						</g>
					</g>
				</g>
			</g>
			<g>
				<g>
					<g>
						<g>
							<g>
								<g>
									<path class="st5" d="M8647.4,1801.8c0.3,0.3-6.2,5.2-13.4,15.9c-7.2,10.5-14.5,27.4-14.4,47c0.3,19.6,8,36.4,15.5,46.7
										c7.4,10.5,14.1,15.2,13.8,15.6c-0.1,0.1-1.8-1-4.6-3.4c-2.8-2.4-6.5-6.1-10.5-11.2c-7.9-10.2-16.2-27.4-16.5-47.6
										c-0.3-20.2,7.6-37.5,15.3-47.9c3.8-5.2,7.5-9.1,10.2-11.5C8645.6,1802.9,8647.3,1801.7,8647.4,1801.8z"/>
								</g>
							</g>
						</g>
					</g>
				</g>
			</g>
			<g>
				<g>
					<g>
						<g>
							<g>
								<g>
									<path class="st5" d="M8626.1,1799.5c0.3,0.3-6.2,5.2-13.4,15.9c-7.2,10.5-14.5,27.4-14.4,47c0.3,19.6,8,36.4,15.5,46.7
										c7.4,10.5,14.1,15.2,13.8,15.6c-0.1,0.1-1.8-1-4.6-3.4s-6.5-6.1-10.5-11.2c-7.9-10.2-16.2-27.4-16.5-47.6
										c-0.3-20.2,7.6-37.5,15.3-47.9c3.8-5.2,7.5-9.1,10.2-11.5C8624.3,1800.5,8626,1799.4,8626.1,1799.5z"/>
								</g>
							</g>
						</g>
					</g>
				</g>
			</g>
			<g>
				<g>
					<g>
						<g>
							<g>
								<g>
									<path class="st5" d="M9053.9,1801.8c0.3,0.3-6.2,5.2-13.4,15.9c-7.2,10.5-14.5,27.4-14.4,47c0.3,19.6,8,36.4,15.5,46.7
										c7.4,10.5,14.1,15.2,13.8,15.6c-0.1,0.1-1.8-1-4.6-3.4c-2.8-2.4-6.5-6.1-10.5-11.2c-7.9-10.2-16.2-27.4-16.5-47.6
										c-0.3-20.2,7.6-37.5,15.3-47.9c3.8-5.2,7.5-9.1,10.2-11.5C9052.1,1802.9,9053.8,1801.7,9053.9,1801.8z"/>
								</g>
							</g>
						</g>
					</g>
				</g>
			</g>
			<g>
				<g>
					<g>
						<g>
							<g>
								<g>
									<path class="st5" d="M9032.5,1799.5c0.3,0.3-6.2,5.2-13.4,15.9c-7.2,10.5-14.5,27.4-14.4,47c0.3,19.6,8,36.4,15.5,46.7
										c7.4,10.5,14.1,15.2,13.8,15.6c-0.1,0.1-1.8-1-4.6-3.4s-6.5-6.1-10.5-11.2c-7.9-10.2-16.2-27.4-16.5-47.6
										c-0.3-20.2,7.6-37.5,15.3-47.9c3.8-5.2,7.5-9.1,10.2-11.5C9030.9,1800.5,9032.5,1799.4,9032.5,1799.5z"/>
								</g>
							</g>
						</g>
					</g>
				</g>
			</g>
			<g>
				<g>
					<g>
						<g>
							<g>
								<path class="st5" d="M8719,1880.4c-0.2-14.8-0.4-29.6-0.6-44.4c-0.1-3.9-0.1-7.9-1.5-11.4c-1.4-3.6-4.6-6.8-8.5-7.1
									c-5.6-2.5-14.2,2.2-18.1,8.6c-3.9,6.4-4.3,14.3-4.4,21.7c-0.1,11.8,0.5,23.4,1.7,35.1c0.6,5.6,1.4,11.2,4.1,16.1
									c2.8,4.8,8,8.6,13.5,8.1c5.5-0.5,9.9-5.2,11.8-10.3C8719.2,1891.6,8719.1,1886,8719,1880.4z"/>
							</g>
						</g>
					</g>
				</g>
			</g>
			<g>
				<g>
					<g>
						<g>
							<g>
								<g>
									<path class="st5" d="M8963.5,1867.6c0,0.7-45.5,1.2-101.6,1.2s-101.6-0.5-101.6-1.2c0-0.7,45.5-1.2,101.6-1.2
										C8918,1866.5,8963.5,1867,8963.5,1867.6z"/>
								</g>
							</g>
						</g>
					</g>
				</g>
			</g>
		</g>
		<g>
			<g>
				<g>
					<g>
						<g>
							<g>
								<g>
									<g>
										<polygon class="st5" points="8676.8,1797.4 8675.7,1693.9 8732,1693.9 8734,1797.4 										"/>
									</g>
								</g>
							</g>
						</g>
					</g>
					<g>
						<g>
							<g>
								<g>
									<g>
										<g>
											<path class="st4" d="M8728.7,1712.3c0,0.7-11.8,1.2-26.2,1.2c-14.5,0-26.2-0.5-26.2-1.2c0-0.7,11.8-1.2,26.2-1.2
												C8717,1711.1,8728.7,1711.6,8728.7,1712.3z"/>
										</g>
									</g>
								</g>
							</g>
						</g>
					</g>
					<g>
						<g>
							<g>
								<g>
									<g>
										<g>
											<path class="st4" d="M8728.7,1728.3c0,0.7-11.8,1.2-26.2,1.2c-14.5,0-26.2-0.5-26.2-1.2c0-0.7,11.8-1.2,26.2-1.2
												C8717,1727.1,8728.7,1727.6,8728.7,1728.3z"/>
										</g>
									</g>
								</g>
							</g>
						</g>
					</g>
					<g>
						<g>
							<g>
								<g>
									<g>
										<g>
											<path class="st4" d="M8728.7,1744.3c0,0.7-11.8,1.2-26.2,1.2c-14.5,0-26.2-0.5-26.2-1.2s11.8-1.2,26.2-1.2
												C8717,1743.1,8728.7,1743.6,8728.7,1744.3z"/>
										</g>
									</g>
								</g>
							</g>
						</g>
					</g>
					<g>
						<g>
							<g>
								<g>
									<g>
										<g>
											<path class="st4" d="M8728.7,1760.2c0,0.7-11.8,1.2-26.2,1.2c-14.5,0-26.2-0.5-26.2-1.2c0-0.7,11.8-1.2,26.2-1.2
												C8717,1759.1,8728.7,1759.6,8728.7,1760.2z"/>
										</g>
									</g>
								</g>
							</g>
						</g>
					</g>
					<g>
						<g>
							<g>
								<g>
									<g>
										<g>
											<path class="st4" d="M8728.7,1776.2c0,0.7-11.8,1.2-26.2,1.2c-14.5,0-26.2-0.5-26.2-1.2c0-0.7,11.8-1.2,26.2-1.2
												C8717,1775,8728.7,1775.5,8728.7,1776.2z"/>
										</g>
									</g>
								</g>
							</g>
						</g>
					</g>
				</g>
				<g>
					<g>
						<g>
							<g>
								<g>
									<path class="st2" d="M8672.7,1691.2h624.7c7.7,34.3,6.6,72,0,112h-622.1v-7.6h38.1c9.9,0,17.9-8,17.9-17.9v-61.9
										c0-9.9-8-17.9-17.9-17.9h-40.7L8672.7,1691.2L8672.7,1691.2z"/>
								</g>
							</g>
						</g>
					</g>
				</g>
				<g>
					<g>
						<g>
							<g>
								<g>
									<path class="st6" d="M8820.4,1747.1h10.4c0.4,0,0.8,0.1,1.1,0.3c0.8,0.4,1.1,1.1,1.1,1.9c0,0.3,0,0.5-0.1,0.7
										c-0.2,0.8-0.4,1.8-0.7,2.6c-1.4,4.7-3.6,8.7-6.5,11.8c-2.9,3-5.8,4.6-8.9,4.6c-0.4,0-0.8,0-1.3-0.1
										c-2.9-0.4-5.2-2.1-7.1-5.2c-2.1-3.4-3.1-7.5-3.1-12.5c0-3,0.4-5.9,1.3-9c1.4-4.8,3.4-8.9,6.2-12.1c3-3.3,6.1-5,9.4-5
										c1.4,0,2.7,0.3,4,0.9c2.7,1.4,4.7,3.9,6.1,7.6c0.2,0.3,0.3,0.7,0.3,1c0,0.4-0.1,0.8-0.3,1.1c-0.4,0.8-1.1,1.1-1.9,1.1
										c-0.3,0-0.4,0-0.7-0.1c-0.8-0.3-1.2-0.7-1.4-1.4l-0.1-0.2c-0.3-0.9-0.8-1.8-1.3-2.5c-1.4-1.9-3-3-5-3
										c-1.2,0-2.3,0.4-3.5,1.3c-2.2,1.6-4.1,4.3-5.7,8.2c-1.6,4-2.5,7.9-2.5,11.8c0,3.7,0.6,6.8,1.8,9.2c1.4,2.7,3.1,4.1,5.4,4.1
										c1.5,0,3.2-1,5.1-3c2.2-2.5,4-5.8,5.3-9.6c-4.8,0-7.3,0-7.4-0.1c-1.6-0.3-2.5-1.1-2.5-2.5c0-0.3,0.1-0.5,0.3-0.8
										C8818.4,1747.6,8819.2,1747.1,8820.4,1747.1z"/>
								</g>
							</g>
						</g>
					</g>
					<g>
						<g>
							<g>
								<g>
									<path class="st6" d="M8855.8,1726.8c0.1,0.2,0.2,0.4,0.3,0.8c0.4,1.5,2.9,14.5,7.4,38.7c0.1,0.2,0.1,0.3,0.1,0.6
										c0,0.4-0.1,0.8-0.3,1.2c-0.4,0.8-1.1,1.2-1.9,1.2c-0.1,0-0.3,0-0.3,0c-0.9-0.2-1.4-0.7-1.7-1.5l-2.5-12.9H8844l-6.2,12.9
										c-0.1,0.2-0.1,0.3-0.2,0.4c-0.6,0.8-1.3,1.1-1.9,1.1c-0.4,0-0.8-0.1-1.2-0.3c-0.7-0.5-1-1.1-1-1.9c0-0.3,0.1-0.4,0.2-0.7
										c0.4-0.9,1-2.3,1.9-4.2c9-19.6,14.4-31.2,16.2-34.8c0.5-1,1.3-1.5,2.2-1.6C8854.7,1725.7,8855.4,1726.1,8855.8,1726.8z
										 M8853,1735.5l-6.9,14.6h9.8L8853,1735.5z"/>
								</g>
							</g>
						</g>
					</g>
					<g>
						<g>
							<g>
								<g>
									<path class="st6" d="M8890.7,1769.1h-18.9c-0.4,0-0.8-0.1-1.2-0.3c-0.5-0.4-0.9-1.2-1.1-2.4l0,0c0-0.8,1.8-13.6,5.2-38.6
										c0-0.3,0.1-0.6,0.1-0.8c0.4-0.9,1.1-1.4,2-1.4c0.3,0,0.8,0.1,1,0.3c0.8,0.4,1.2,1.1,1.2,2c-0.2,1.7-0.6,5.2-1.3,10.6
										c-2.1,16.5-3.3,25.1-3.4,26h16c0.4,0,0.8,0.1,1.2,0.3c0.9,0.4,1.4,1.1,1.4,2.1c0,0.3,0,0.5-0.1,0.8
										C8892.7,1768.4,8891.9,1768.9,8890.7,1769.1z"/>
								</g>
							</g>
						</g>
					</g>
					<g>
						<g>
							<g>
								<g>
									<path class="st6" d="M8916.4,1726.8c0.1,0.2,0.2,0.4,0.3,0.8c0.4,1.5,2.9,14.5,7.4,38.7c0.1,0.2,0.1,0.3,0.1,0.6
										c0,0.4-0.1,0.8-0.3,1.2c-0.4,0.8-1.1,1.2-1.9,1.2c-0.1,0-0.3,0-0.3,0c-0.9-0.2-1.4-0.7-1.7-1.5l-2.5-12.9h-12.9l-6.2,12.9
										c-0.1,0.2-0.1,0.3-0.2,0.4c-0.6,0.8-1.3,1.1-1.9,1.1c-0.4,0-0.8-0.1-1.2-0.3c-0.7-0.5-1-1.1-1-1.9c0-0.3,0.1-0.4,0.2-0.7
										c0.4-0.9,1-2.3,1.9-4.2c9-19.6,14.4-31.2,16.2-34.8c0.5-1,1.3-1.5,2.2-1.6C8915.3,1725.7,8915.9,1726.1,8916.4,1726.8z
										 M8913.7,1735.5l-6.9,14.6h9.8L8913.7,1735.5z"/>
								</g>
							</g>
						</g>
					</g>
					<g>
						<g>
							<g>
								<g>
									<path class="st6" d="M8946.5,1749c1.4,4.1,2.6,7.2,3.4,9.5c1.9,5.3,2.9,8.2,2.9,8.5c0,0.4-0.1,0.8-0.3,1.2
										c-0.4,0.7-1.1,1-1.9,1c-0.8,0-1.4-0.5-1.9-1.5c-0.2-0.4-0.3-0.7-0.3-0.9c-1-2.4-2.7-6.8-5.1-13.3l-10.7,14.5
										c-0.6,0.8-1.3,1.2-2,1.2c-0.4,0-0.8-0.1-1.2-0.3c-0.7-0.4-1.1-1-1.1-1.9c0-0.2,0-0.3,0-0.5c0.1-0.3,0.4-0.9,1.1-1.9
										c3.6-4.7,7.5-10.1,11.8-16.5c-0.4-1.3-0.8-2.5-1.3-3.6c-4-10.7-6-16.3-6-16.7c0-0.4,0.1-0.8,0.3-1.2c0.4-0.8,1-1.1,1.9-1.1
										c1,0,1.7,0.4,2.1,1.3l6.3,16.9l12.6-17.1c0.5-0.7,1.2-1,2-1.1c0.3,0,0.7,0.1,1,0.3c0.8,0.4,1.1,1.1,1.1,2
										c0,0.3-0.1,0.7-0.3,1L8946.5,1749z"/>
								</g>
							</g>
						</g>
					</g>
					<g>
						<g>
							<g>
								<g>
									<path class="st6" d="M8993.1,1725.8c0.3,0,0.7,0.1,1,0.3c0.8,0.4,1.2,1,1.2,1.9c-3,24.4-4.8,37.5-5.1,39.5
										c-0.7,4.1-2,7.6-4.1,10.3c-3,4.1-7.2,6.2-12.5,6.2c-1.7,0-3.7-0.5-6-1.6c-3.2-1.5-5.4-3.5-6.7-5.8
										c-0.2-0.3-0.3-0.7-0.3-1.1c0-0.4,0.1-0.8,0.3-1.1c0.4-0.8,1.1-1.1,1.9-1.1c0.7,0,1.3,0.3,1.7,0.9c2.8,3.6,6,5.5,9.6,5.5
										c2.9,0,5.4-1.3,7.4-3.8c2.4-2.9,3.7-6.8,4.1-11.8c-0.8,1.1-1.7,2.1-2.8,3c-2,1.4-4.3,2.2-6.8,2.2c-0.4,0-0.8,0-1.3-0.1
										c-2.9-0.4-5.2-2.1-7.2-5.2c-2.1-3.4-3.1-7.5-3.1-12.5c0-2.3,0.1-4.7,0.3-7.1c0.3-3.8,1.2-9.2,2.5-16.2
										c0-0.3,0.1-0.4,0.2-0.7c0.4-1,1.1-1.5,2-1.5c0.3,0,0.8,0.1,1.1,0.3c0.8,0.4,1.1,1,1.1,1.8c0,1.2-0.3,4.1-1,8.6
										c-1,6.7-1.5,11.1-1.5,13.1c0,4.1,0.6,7.6,1.7,10.2c1.3,3,3.1,4.6,5.6,4.6c0.3,0,0.5,0,0.8-0.1c1.9-0.3,3.7-1.9,5.7-4.5
										c2.2-3,3.7-6.5,4.7-10.4l2.9-21.5c0-0.3,0.2-0.7,0.3-0.9C8991.4,1726.2,8992.1,1725.8,8993.1,1725.8z"/>
								</g>
							</g>
						</g>
					</g>
				</g>
				<g>
					<g>
						<g>
							<g>
								<g>
									<g>
										<path class="st5" d="M9274,1804.5c-0.7,0-1.2-25.7-1.2-57.4s0.5-57.4,1.2-57.4c0.7,0,1.2,25.7,1.2,57.4
											C9275.1,1778.8,9274.6,1804.5,9274,1804.5z"/>
									</g>
								</g>
							</g>
						</g>
					</g>
				</g>
				<g>
					<g>
						<g>
							<g>
								<g>
									<g>
										<path class="st4" d="M8762.7,1804.5c-0.7,0-1.2-25.7-1.2-57.4s0.5-57.4,1.2-57.4c0.7,0,1.2,25.7,1.2,57.4
											C8763.9,1778.8,8763.4,1804.5,8762.7,1804.5z"/>
									</g>
								</g>
							</g>
						</g>
					</g>
				</g>
				<g>
					<g>
						<g>
							<g>
								<g>
									<g>
										<path class="st5" d="M9285,1804.5c-0.7,0-1.2-25.7-1.2-57.4s0.5-57.4,1.2-57.4s1.2,25.7,1.2,57.4
											C9286,1778.8,9285.5,1804.5,9285,1804.5z"/>
									</g>
								</g>
							</g>
						</g>
					</g>
				</g>
				<g>
					<g>
						<g>
							<g>
								<g>
									<g>
										<path class="st4" d="M8752.5,1804.5c-0.7,0-1.2-25.7-1.2-57.4s0.5-57.4,1.2-57.4c0.7,0,1.2,25.7,1.2,57.4
											C8753.7,1778.8,8753.2,1804.5,8752.5,1804.5z"/>
									</g>
								</g>
							</g>
						</g>
					</g>
				</g>
			</g>
			<g>
				<g>
					<g>
						<g>
							<g>
								<g>
									<g>
										<g>
											<g>
												<g>
													<g>
														<path class="st4" d="M9122.5,1708.6l-0.1-0.2c17.1,13.8,40.3,32.5,66,53.3l0.6,0.5l-0.8,0.2c-2.8,0.8-5.8,1.5-8.8,2.3
															c-20,5.2-39.1,10.2-55.7,14.6h-0.1l-0.1-0.1c-20.7-8.8-38.2-16.2-50.6-21.4c-6.1-2.6-11-4.7-14.3-6.1
															c-1.6-0.7-2.9-1.3-3.8-1.6c-0.4-0.2-0.8-0.3-0.9-0.4c-0.3-0.1-0.3-0.2-0.3-0.2s0.1,0,0.3,0.1c0.3,0.1,0.6,0.3,1,0.4
															c0.9,0.3,2.2,0.8,3.8,1.5c3.4,1.4,8.2,3.4,14.4,5.9c12.3,5.2,29.8,12.5,50.7,21.1h-0.3c16.7-4.4,35.7-9.4,55.7-14.7
															c3-0.8,6-1.6,8.8-2.3l-0.2,0.7c-25.7-20.9-48.9-39.7-65.9-53.4l-0.1-0.1v-0.1"/>
													</g>
												</g>
											</g>
										</g>
									</g>
								</g>
							</g>
						</g>
					</g>
				</g>
				<g>
					<g>
						<g>
							<g>
								<g>
									<g>
										<g>
											<g>
												<g>
													<polygon class="st4" points="9182.5,1753.4 9186,1756.8 9190.8,1755.7 9188.7,1760.2 9191.3,1764.5 9186.4,1763.8 
														9183.1,1767.5 9182.1,1762.7 9177.6,1760.7 9182,1758.3 													"/>
												</g>
											</g>
										</g>
									</g>
								</g>
							</g>
						</g>
					</g>
				</g>
				<g>
					<g>
						<g>
							<g>
								<g>
									<g>
										<g>
											<g>
												<g>
													<polygon class="st4" points="9119.1,1774.4 9121.6,1776.4 9124.6,1775.5 9123.4,1778.5 9125.2,1781.2 9122,1781 
														9120.1,1783.5 9119.3,1780.4 9116.3,1779.3 9119,1777.6 													"/>
												</g>
											</g>
										</g>
									</g>
								</g>
							</g>
						</g>
					</g>
				</g>
				<g>
					<g>
						<g>
							<g>
								<g>
									<g>
										<g>
											<g>
												<g>
													<polygon class="st4" points="9049.1,1745.7 9053.1,1745.9 9055.5,1742.8 9056.5,1746.6 9060.1,1748 9056.8,1750.1 
														9056.7,1754 9053.7,1751.5 9049.9,1752.5 9051.3,1748.9 													"/>
												</g>
											</g>
										</g>
									</g>
								</g>
							</g>
						</g>
					</g>
				</g>
				<g>
					<g>
						<g>
							<g>
								<g>
									<g>
										<g>
											<g>
												<g>
													<polygon class="st4" points="9212.1,1709.4 9216,1709.7 9218.4,1706.5 9219.3,1710.3 9223.1,1711.7 9219.8,1713.8 
														9219.6,1717.8 9216.5,1715.3 9212.8,1716.4 9214.3,1712.7 													"/>
												</g>
											</g>
										</g>
									</g>
								</g>
							</g>
						</g>
					</g>
				</g>
				<g>
					<g>
						<g>
							<g>
								<g>
									<g>
										<g>
											<g>
												<g>
													<polygon class="st4" points="9119.3,1706.9 9121.8,1707 9123.4,1705 9124,1707.5 9126.3,1708.3 9124.2,1709.7 
														9124.1,1712.2 9122.2,1710.6 9119.7,1711.3 9120.7,1708.9 													"/>
												</g>
											</g>
										</g>
									</g>
								</g>
							</g>
						</g>
					</g>
				</g>
				<g>
					<g>
						<g>
							<g>
								<g>
									<g>
										<path class="st4" d="M9217.6,1712.2c0,0.3-21.4-0.4-47.7-1.6c-26.4-1.1-47.7-2.3-47.7-2.5c0-0.3,21.4,0.4,47.7,1.6
											C9196.2,1710.8,9217.6,1712,9217.6,1712.2z"/>
									</g>
								</g>
							</g>
						</g>
					</g>
				</g>
			</g>
		</g>
		<g>
			<g>
				<g>
					<g>
						<g>
							<g>
								<path class="st4" d="M9241.6,1690.1H8608c-8.3-18.9-10.3-36.7,0-52.8h633.6C9249.9,1656.6,9249.2,1674.1,9241.6,1690.1z"/>
							</g>
						</g>
					</g>
				</g>
			</g>
			<g>
				<g>
					<g>
						<g>
							<g>
								<rect x="8739.1" y="1652.5" class="st2" width="343.3" height="19.2"/>
							</g>
						</g>
					</g>
				</g>
			</g>
			<g>
				<g>
					<g>
						<g>
							<g>
								<g>
									<path class="st4" d="M8632.2,1690.5c-0.2,0.2-2.5-2-5-6.3s-5.1-11-5.8-18.7c-0.7-7.7,0.7-14.7,2.5-19.4s3.6-7.3,3.8-7.2
										c0.3,0.2-0.9,3-2.3,7.6c-1.3,4.7-2.3,11.4-1.7,18.8c0.7,7.4,2.9,13.8,4.9,18.2C8630.8,1687.7,8632.6,1690.2,8632.2,1690.5z
										"/>
								</g>
							</g>
						</g>
					</g>
				</g>
			</g>
			<g>
				<g>
					<g>
						<g>
							<g>
								<g>
									<path class="st4" d="M8645.9,1690.5c-0.2,0.2-2.5-2-5-6.3s-5.1-11-5.8-18.7c-0.7-7.7,0.7-14.7,2.5-19.4
										c1.8-4.7,3.6-7.3,3.8-7.2c0.3,0.2-1,3-2.3,7.6c-1.3,4.7-2.3,11.4-1.7,18.8c0.7,7.4,2.9,13.8,4.9,18.2
										C8644.5,1687.7,8646.3,1690.2,8645.9,1690.5z"/>
								</g>
							</g>
						</g>
					</g>
				</g>
			</g>
			<g>
				<g>
					<g>
						<g>
							<g>
								<g>
									<path class="st5" d="M9215.9,1689.2c-0.7-0.3,4.5-11.2,4.5-25.8c0.2-14.5-4.9-25.6-4.1-25.9c0.4-0.3,6.6,10.7,6.4,25.9
										C9222.6,1678.6,9216.3,1689.5,9215.9,1689.2z"/>
								</g>
							</g>
						</g>
					</g>
				</g>
			</g>
			<g>
				<g>
					<g>
						<g>
							<g>
								<g>
									<path class="st5" d="M9204.1,1689c-0.7-0.2,1.9-11.3,1.9-25.3c0-14-2.6-25.1-1.9-25.3c0.5-0.2,4.3,10.9,4.3,25.3
										C9208.4,1678.1,9204.6,1689.3,9204.1,1689z"/>
								</g>
							</g>
						</g>
					</g>
				</g>
			</g>
		</g>
	</g>
	<g>
		<g>
			<g>
				<g>
					<path class="st7" d="M10542,1657.8c0,0-138.9-159.9-191.4-319.8c-52.4-159.9-27.5-141.6-27.5-141.6s70.8,155.3,124.5,230.3
						c53.7,75,149.4,185.1,149.4,185.1L10542,1657.8z"/>
				</g>
			</g>
			<g>
				<g>
					<path class="st7" d="M10569.7,1221.3c-4.5-7.8-16.4-3.7-15.1,5.2c8.5,56.1,26.8,188,26,273.5c-0.9,111,0,154,0,154h57.8
						c0,0-10.2-229.6-23.3-299.6C10606.1,1305.3,10586.7,1250.9,10569.7,1221.3z"/>
				</g>
			</g>
			<g>
				<g>
					<path class="st7" d="M10601.3,1635.3c0,0,36.4-76.5,47.6-172.7c4.7-40.8-3.7-96.1-16.4-169.9c-6.1-35.7-7.5-62.9-7.3-81.7
						c0.2-14.2,18.9-18.9,25.9-6.5c7,12.4,27.1,55,32.3,81.7c14,72.8,29.8,109.2,17.8,178.3s-56.9,175.5-56.9,175.5L10601.3,1635.3z
						"/>
				</g>
			</g>
			<g>
				<g>
					<path class="st7" d="M10653.4,1639.9c0,0,152.5-327.8,163.1-376.5c10.6-48.6,46.5-160.7,50.7-154.3
						c4.2,6.3,10.6,65.5-16.9,133.2s-144.8,407.6-144.8,407.6h-52.1"/>
				</g>
			</g>
			<g>
				<g>
					<g>
						<path class="st8" d="M10584.5,1625.3c-0.1,0.1-1.5-0.9-4.3-3c-2.7-2-6.8-4.9-11.8-9c-10.1-7.9-24.4-20.1-41-36.2
							c-33.3-32-74.8-81.3-110.7-142.1c-36-60.7-60.2-120.2-75.5-163.6c-7.7-21.7-13.3-39.6-16.9-52c-1.9-6.2-3.1-11-4.1-14.3
							c-0.8-3.3-1.3-5-1.2-5.1c0.1,0,0.8,1.6,1.8,4.8c1.2,3.5,2.7,8.2,4.7,14.1c4,12.3,9.9,29.9,17.8,51.6
							c15.8,43.2,40.3,102.2,76.2,162.8c35.8,60.5,76.7,109.8,109.5,142.1c16.3,16.2,30.3,28.6,40.2,36.9c4.9,4.2,8.9,7.3,11.4,9.5
							C10583.3,1624,10584.6,1625.2,10584.5,1625.3z"/>
					</g>
				</g>
			</g>
			<g>
				<g>
					<g>
						<path class="st8" d="M10601.2,1468c-0.3,0-0.7-3.4-1.4-9.6c-0.8-6.8-1.7-15.6-2.8-26.3c-2.5-22.2-6.2-52.8-11.6-86.3
							c-5.4-33.6-11.4-63.8-16.1-85.7c-2.3-10.5-4.1-19.2-5.6-25.8c-1.3-6.1-1.9-9.5-1.7-9.6c0.3-0.1,1.3,3.2,3,9.2
							c1.7,6,4,14.8,6.6,25.6c5.2,21.7,11.6,51.9,17.1,85.7c5.4,33.7,8.8,64.3,10.7,86.7c0.9,11.2,1.5,20.1,1.8,26.4
							C10601.5,1464.5,10601.5,1468,10601.2,1468z"/>
					</g>
				</g>
			</g>
			<g>
				<g>
					<g>
						<path class="st8" d="M10637,1202.1c0.1,0,0.8,1.4,1.8,4.1c1.2,3,2.7,7.1,4.6,12.2c2,5.2,4.3,11.8,6.5,19.5
							c2.3,7.7,5.2,16.4,7.4,26.2c1.2,4.9,2.5,10.1,3.8,15.4c1.3,5.3,2.2,11.1,3.4,16.9c2.5,11.7,4.1,24.3,5.9,37.5
							c3,26.6,4.7,56,3.6,86.8c-1.3,30.9-5,60.1-9.9,86.4c-2.8,13.1-5.2,25.5-8.5,37c-1.6,5.8-2.9,11.3-4.6,16.6
							c-1.7,5.2-3.3,10.3-4.9,15.1c-2.9,9.7-6.4,18.1-9.3,25.6c-2.8,7.5-5.5,13.9-7.9,19c-2.3,4.9-4.1,8.8-5.4,11.8
							c-1.3,2.7-2,4.1-2.1,4.1c-0.1-0.1,0.4-1.5,1.5-4.3c1.3-3,2.9-7,4.9-12c2.2-5.2,4.8-11.6,7.4-19.1c2.6-7.5,6-16,8.8-25.7
							c1.5-4.8,3-9.9,4.7-15.1c1.6-5.2,2.9-10.8,4.4-16.6c3.2-11.4,5.5-23.8,8.2-36.9c4.7-26.2,8.3-55.3,9.6-86
							c0.9-30.7-0.6-60-3.4-86.4c-1.8-13.2-3.2-25.8-5.6-37.4c-1.1-5.8-1.9-11.5-3.1-16.8c-1.3-5.3-2.5-10.5-3.6-15.4
							c-2-9.9-4.8-18.5-6.9-26.3c-2-7.8-4.1-14.3-6-19.6c-1.7-5.2-3-9.2-4-12.3C10637.3,1203.6,10636.9,1202.1,10637,1202.1z"/>
					</g>
				</g>
			</g>
			<g>
				<g>
					<g>
						<path class="st8" d="M10865.4,1115.7c0.1,0,0,0.5-0.1,1.4c-0.2,1.2-0.4,2.5-0.7,4.2c-0.7,3.7-1.5,9.3-3,16.3
							c-3,14.1-7.9,34.4-15.5,59c-7.6,24.6-18,53.5-30.4,85.2c-12.3,31.7-26.6,66.3-40.2,103.1c-13.8,36.8-24.4,72.6-34.3,105.2
							c-9.9,32.6-19.2,61.8-28.2,85.9c-9,24.2-17.6,43.2-24.1,56.1c-3.1,6.5-5.9,11.3-7.8,14.6c-0.8,1.5-1.5,2.7-2.1,3.7
							c-0.5,0.8-0.8,1.3-0.8,1.2c-0.1,0,0.2-0.5,0.5-1.4c0.5-1,1.1-2.4,1.9-3.9c1.6-3.4,4.2-8.4,7.2-14.9
							c6.2-13,14.4-32.1,23.1-56.3c8.7-24.2,17.8-53.4,27.6-86c9.8-32.6,20.3-68.6,34.1-105.4c13.6-36.9,28-71.5,40.4-103.1
							c12.5-31.6,23.1-60.4,30.9-84.8c7.9-24.4,13.1-44.6,16.4-58.6c1.7-7,2.7-12.5,3.6-16.2c0.4-1.7,0.8-3,1-4.2
							C10865.2,1116.2,10865.4,1115.7,10865.4,1115.7z"/>
					</g>
				</g>
			</g>
			<g>
				<g>
					<g>
						<path class="st7" d="M10395.1,1043.3c-9.6-9.6-25.6,0.4-21.6,13.4c4.1,13.1,10.1,30.1,19.2,49.3
							c21,44.6,82.5,204.5,111.4,292.2c28.8,87.8,69.4,251.6,69.4,251.6l61.6-10c0,0-56.3-269.2-111.4-366.1
							C10479.4,1195.9,10435.2,1083.3,10395.1,1043.3z"/>
					</g>
				</g>
				<g>
					<g>
						<g>
							<path class="st8" d="M10520.9,1453.2c0.3-0.1,1.4,2.5,3.2,7.4s4.3,11.8,7.1,20.6c5.7,17.6,12.6,42.1,19.6,69.3
								c6.9,27.2,12.8,52.1,16.8,70c1.9,8.5,3.4,15.6,4.7,21.3c1,5.1,1.5,7.9,1.3,7.9c-0.3,0.1-1.1-2.7-2.5-7.6
								c-1.5-5.6-3.4-12.7-5.7-21.1c-4.7-18.5-10.9-42.9-17.8-69.8c-7-27.2-13.5-51.8-18.7-69.5c-2.5-8.4-4.5-15.4-6.1-21
								C10521.4,1456.1,10520.7,1453.3,10520.9,1453.2z"/>
						</g>
					</g>
				</g>
				<g>
					<g>
						<g>
							<path class="st8" d="M10604.4,1644.9c-0.1,0-0.2-0.6-0.3-1.6c-0.2-1.3-0.4-2.9-0.7-4.8c-0.7-4.2-1.2-10.6-2.5-18.6
								c-2.3-16.2-6.3-39.5-12.9-67.9c-6.6-28.4-16.2-61.9-28.8-98.3c-12.6-36.4-28.5-75.9-46.4-116.7
								c-36.2-81.5-72.4-153.7-96.2-207.2c-12-26.6-21.3-48.5-27.5-63.6c-3.1-7.5-5.3-13.5-6.9-17.5c-0.7-1.9-1.3-3.4-1.7-4.6
								c-0.3-1-0.5-1.6-0.5-1.6c0.1,0,0.3,0.5,0.8,1.5c0.5,1.2,1.2,2.6,2,4.5c1.8,4.1,4.3,10,7.5,17.3c6.5,15,16.1,36.6,28.4,63.2
								c24.3,53.2,60.8,125.2,97.1,206.8c18,40.8,33.7,80.4,46.3,117c12.5,36.6,21.9,70.3,28.2,98.8c6.3,28.6,10.1,52,11.9,68.2
								c1.1,8.1,1.5,14.5,1.9,18.8c0.2,2,0.3,3.6,0.3,4.9C10604.5,1644.4,10604.5,1644.9,10604.4,1644.9z"/>
						</g>
					</g>
				</g>
				<g>
					<g>
						<g>
							<path class="st8" d="M10635.1,1639.9c-0.3,0-0.9-3.6-2.1-10.3c-1.2-7.3-2.9-16.7-4.8-28.3c-4.2-23.8-10.7-56.7-20-92.5
								c-9.2-35.8-19.6-67.6-27.6-90.5c-3.9-11-7.2-20.1-9.6-27.1c-2.3-6.3-3.5-10-3.3-10.1c0.2-0.1,1.8,3.3,4.5,9.6
								c2.6,6.3,6.3,15.4,10.7,26.7c8.5,22.7,19.4,54.5,28.6,90.5c9.4,35.9,15.5,68.9,19.2,92.9c1.8,12,3.1,21.7,3.8,28.5
								C10635,1636.2,10635.3,1639.9,10635.1,1639.9z"/>
						</g>
					</g>
				</g>
			</g>
		</g>
		<g>
			<g>
				<g>
					<rect x="10521.1" y="1631.1" class="st9" width="240.3" height="292.8"/>
				</g>
			</g>
			<g class="st10">
				<g>
					<rect x="10521.1" y="1631.1" width="240.3" height="292.8"/>
				</g>
			</g>
			<g>
				<g>
					<rect x="10471.6" y="1631.1" class="st9" width="213.3" height="292.8"/>
				</g>
			</g>
		</g>
	</g>
	<g>
		<g>
			<g>
				<g>
					<path class="st9" d="M9158.1,688.7c0.1,0,0.2-0.1,0.2-0.1C9158.2,688.4,9158.1,688.5,9158.1,688.7z"/>
				</g>
				<g>
					<path class="st9" d="M10286.2,1486.1c-1.9-41.1-63.5-593.9-72.8-664.9c-14.9-113.4-106-141.8-106-141.8l0,0l-310-107h-306.7
						l-332.4,116.1l-0.2,5.7c-0.1-3.1-0.1-5,0-5.6c-3.3,1.9-85.2,25.1-104.8,105.7c-10.7,44.1-135.5,668.9-137.4,687.2
						c-1.9,18.3,14.7,130.3,102.8,145c33.1,5.5,104.4,0.4,180.8-8l-59.7,306.4h963.5l-34.1-218.9c76.6-29.8,156.9-63.2,170.2-77.1
						C10265.7,1601.7,10288.1,1527.2,10286.2,1486.1z M9196.3,1328.7L9196.3,1328.7L9196.3,1328.7L9196.3,1328.7z"/>
				</g>
			</g>
			<g class="st10">
				<g>
					<path d="M9448.2,1421.2c-2.3-19.6-5.5-39.4-14.2-57.2c-8.7-17.7-23.8-33.1-42.9-38.1c-19.1-4.9-41.9,3-50.4,20.9
						c-34.8,97.6-3.1,152.5,63.2,205.2c10.5,8.4,23.5,14.9,36.4,11.1c12.7-3.8,15.2-13.1,15.8-26.3
						C9457.8,1497.8,9452.7,1460,9448.2,1421.2z"/>
				</g>
			</g>
			<g>
				<g>
					<path class="st8" d="M9312.4,1310.4c0,0.2-2.2,0.5-6.3,1c-4.7,0.5-10.5,1.1-17.4,1.9c-14.9,1.4-35.7,3.3-59.4,5.3l0.7-0.3
						c-5.4,3.8-11,7.7-16.7,11.8c-23.3,16.7-42.8,34-54.7,48.5c-6,7.2-10.2,13.5-12.9,17.9c-2.6,4.5-4.1,7.1-4.3,6.9
						c-0.2-0.1,0.9-2.8,3.3-7.5c2.5-4.7,6.5-11.2,12.3-18.7c11.7-15,31.2-32.7,54.5-49.6c5.7-4.1,11.3-8,16.7-11.8l0.3-0.3h0.4
						c23.8-1.9,44.6-3.4,59.5-4.3c7-0.4,12.9-0.8,17.5-1C9310.1,1310.2,9312.4,1310.2,9312.4,1310.4z"/>
				</g>
			</g>
			<g>
				<g>
					<path class="st8" d="M9462.4,1417.4c0.1,0,0.2,0.6,0.5,1.7c0.3,1.4,0.7,3,1.1,5.2c0.8,4.5,2,11.2,3,19.9
						c2.1,17.3,3.9,42.6,4,73.8c0,7.8,0,16-0.2,24.5c0.4,8.5-2.3,18.2-8.6,25.3c-6.1,7.3-15.8,11.8-25.6,12.9
						c-9.6,1.7-19.5,3.4-29.7,5.2c-40.6,7.2-85.2,15.7-132.3,23.3c-47,7.6-92.2,13-133.3,16.6c-41.1,3.9-78.3,6.5-109.6,4.2
						c-7.9-0.5-15.2-1.6-22.2-3c-6.9-1.7-13.3-4.2-18.5-7.6c-10.7-6.5-18.6-14-24.9-20c-6.3-6.1-10.9-11.1-14-14.5
						c-1.4-1.6-2.6-2.9-3.5-3.9c-0.8-0.8-1.2-1.4-1.1-1.4c0,0,0.5,0.3,1.4,1.2c0.9,0.9,2.2,2.1,3.7,3.6c3.3,3.2,8,8,14.4,14
						c6.4,5.8,14.4,13.1,24.9,19.4c5.2,3.2,11.3,5.6,18.1,7.2c6.8,1.4,14.1,2.5,21.9,2.8c31,2,68.2-0.8,109.3-4.9
						c41.1-3.7,86.1-9.1,133.1-16.8c47-7.5,91.6-16.1,132.3-23.1c10.1-1.7,20.1-3.4,29.8-5.1c9.6-1,18.3-5.1,24.2-11.8
						c5.9-6.7,8.5-15.3,8.2-23.8c0.3-8.5,0.3-16.7,0.4-24.4c0.2-31.2-1.3-56.4-3-73.7c-0.8-8.7-1.9-15.4-2.5-20
						c-0.3-2.1-0.6-3.8-0.8-5.2C9462.4,1418.1,9462.3,1417.4,9462.4,1417.4z"/>
				</g>
			</g>
			<g>
				<g>
					<path class="st8" d="M9264.8,954.1c0.8,0.1-6.5,81.4-16.3,181.6c-9.9,100.3-18.5,181.5-19.4,181.4s6.5-81.4,16.4-181.7
						C9255.4,1035.1,9264.1,954,9264.8,954.1z"/>
				</g>
			</g>
			<g>
				<g>
					<path class="st8" d="M10055.1,883.3c0.1,0,0.1,0.5,0.1,1.4c0,1.1,0,2.5-0.1,4.1c-0.1,3.8-0.3,9-0.5,15.6
						c-0.4,13.5-1.4,33.1-2.6,57.3c-2.5,48.4-7.2,115.2-12.9,188.8c-5.7,73.7-10.7,140.5-13.7,188.8c-1.5,24-2.7,43.5-3.6,57.2
						c-0.4,6.6-0.8,11.8-1,15.6c-0.2,1.6-0.3,3-0.3,4.1c-0.1,0.9-0.2,1.4-0.3,1.4c-0.1,0-0.1-0.5-0.1-1.4c0-1.1,0-2.5,0.1-4.1
						c0.1-3.8,0.3-9,0.5-15.6c0.4-13.5,1.4-33.1,2.6-57.3c2.5-48.4,7.2-115.2,12.9-188.9c5.7-73.7,10.7-140.5,13.7-188.7
						c1.5-24,2.7-43.5,3.6-57.2c0.4-6.6,0.8-11.8,1-15.6c0.2-1.6,0.3-3,0.3-4.1C10054.9,883.7,10055,883.3,10055.1,883.3z"/>
				</g>
			</g>
			<g>
				<g>
					<path class="st8" d="M10257.5,1476.4c-0.6,0.3-5.4-10.7-17.8-25.3c-12.3-14.5-33-32-60.7-41.3c-13.9-4.3-27.5-7.7-39.9-9.3
						c-12.4-1.7-23.8-1-33.1,1.1c-9.2,2.2-16.3,5.3-21.1,7.8c-4.7,2.5-7.4,3.9-7.4,3.7c-0.1-0.1,0.5-0.6,1.7-1.4
						c1.2-0.8,2.9-2,5.2-3.4c4.7-2.8,11.8-6.3,21.1-8.8c9.4-2.5,21.2-3.4,33.9-1.8c12.8,1.5,26.4,4.8,40.5,9.2
						c28.3,9.5,49.4,27.8,61.4,42.8c6.1,7.5,10.1,14.2,12.7,19C10256.6,1473.6,10257.7,1476.3,10257.5,1476.4z"/>
				</g>
			</g>
			<g>
				<g>
					<path class="st8" d="M10096.1,1695.5c0,0.1-1.1,0.7-3.4,1.7c-2.5,1.1-5.8,2.6-9.8,4.4c-8.5,3.8-20.9,9.2-36.3,15.7
						c-15.4,6.4-33.8,14.3-55.5,19.5c-10.8,2.3-22.8,3.6-35,1c-12.1-2.5-23.5-9.4-32.7-18.3c-9.6-9-15.5-20.5-20.3-31.6
						c-4.7-11.2-8.1-22.3-10.8-33.1c-5.3-21.6-8.2-41.3-10.3-57.9c-2-16.6-3.1-30.1-4-39.4c-0.3-4.4-0.6-7.9-0.8-10.7
						c-0.2-2.5-0.2-3.7-0.1-3.7c0.1,0,0.3,1.3,0.7,3.7c0.3,2.8,0.8,6.3,1.4,10.7c1.1,9.3,2.6,22.7,4.9,39.2
						c2.4,16.5,5.4,36.2,10.9,57.5c2.7,10.7,6.1,21.7,10.8,32.6c4.7,10.8,10.6,22,19.6,30.6c9,8.7,19.8,15.2,31.3,17.7
						c11.5,2.5,23.1,1.4,33.7-0.8c21.3-5,39.8-12.7,55.3-18.8c15.2-6.2,27.7-11.2,36.7-14.9c4.1-1.6,7.4-2.9,10.1-3.9
						C10094.9,1695.8,10096,1695.4,10096.1,1695.5z"/>
				</g>
			</g>
			<g class="st10">
				<g>
					<path d="M9462.9,1565.2c-8.5,11.9-26.7,14.4-41.2,16.8c-76.5,12.9-145.6,25.4-222.8,33.7l-9.8,50.6
						c78.2-12.6,158.7-29,232.6-57.8c10-3.9,20.1-8.2,28.2-15.2C9458,1586.3,9463.8,1575.9,9462.9,1565.2z"/>
				</g>
			</g>
			<g class="st10">
				<g>
					<path d="M9906.1,1559.7c3.4,41.2,14.6,83.8,35.3,119.6c4.7,8.2,12,17.3,21.4,16.2c7.3-0.8,12.3-7.4,16.2-13.7
						c14.8-23.8,28.2-46.6,32.8-74.3l-73.1-29.1L9906.1,1559.7z"/>
				</g>
			</g>
			<g>
				<g>
					<path class="st8" d="M9746.9,1551.1c0.5,0.7-55,44.2-124,97.4c-69,53.2-125.4,95.7-125.9,95s55-44.2,124-97.4
						C9690,1593.1,9746.4,1550.5,9746.9,1551.1z"/>
				</g>
			</g>
			<g>
				<g>
					<path class="st8" d="M10051,1450.2c0.2,0,0.5,3.4,0.8,9.6c0.3,3,0,6.8-0.1,11.2c0,4.4-0.6,9.3-1.2,14.8
						c-2.3,21.9-9.4,51.7-20.6,83.3c-11.5,31.5-24.9,58.9-36.3,77.7c-5.7,9.5-10.7,16.7-14.5,21.6c-3.8,4.8-6,7.4-6.2,7.3
						s1.7-3,5.2-7.9c3.4-5.1,8.3-12.5,13.6-22c10.9-18.9,23.9-46.3,35.3-77.7c11.2-31.5,18.5-60.9,21.4-82.5
						c0.8-5.4,1.4-10.3,1.6-14.6c0.3-4.3,0.8-8,0.6-11.1C10050.6,1453.6,10050.7,1450.2,10051,1450.2z"/>
				</g>
			</g>
		</g>
		<g>
			<g>
				<path class="st11" d="M9623.6,1260.5c0,0-84.9-135.6-151.5-109c0,0-33.9-27.7-55.6-10c-21.6,17.8-13.9,53.9-13.9,53.9
					s-41.1-33.3-59.4-16.1s-5,46.7,0,61.1c5,14.5,7.8,45,7.8,45s-25-12.8-36.6,7.8c-11.7,20.5,32.7,89.4,39.4,98.8
					c6.7,9.5,49.4,51.7,78.8,40.5c29.4-11.1,50-40.5,50-40.5L9623.6,1260.5z"/>
			</g>
			<g>
				<g>
					<path class="st12" d="M9402.7,1200.5c0.1-0.2,2.9,1.5,7.7,4.8c5.2,3.6,12.1,8.3,20.3,14c8.6,6.1,18.8,13.2,29.9,21.1
						c2.8,2,5.7,4.3,8.1,7.2c2.5,2.9,4.4,6.7,4.6,10.8c0.3,8.4-5.4,16-12.9,19.7c-7.6,3.7-16.1,3.9-23.6,2.5
						c-7.6-1.5-14.4-4.6-20.5-7.7c-12.3-6.3-23-12.6-31.9-18.1s-15.8-10.2-20.5-13.6c-4.7-3.4-7.3-5.4-7.1-5.6
						c0.1-0.2,2.9,1.5,7.8,4.7s12.1,7.5,21,12.9c9,5.2,19.8,11.2,32,17.4c6.1,3,12.7,5.9,19.9,7.3c7.1,1.4,15,1.1,21.7-2.3
						c6.7-3.2,11.6-10.1,11.3-16.9c-0.3-6.9-6.1-12-11.4-16c-11-8-21-15.3-29.5-21.6c-8-6-14.6-10.9-19.8-14.7
						C9405,1202.7,9402.5,1200.7,9402.7,1200.5z"/>
				</g>
			</g>
			<g>
				<g>
					<path class="st12" d="M9403.8,1196.4c0.1-0.1,0.9,0.5,2.5,1.7c1.9,1.4,4.1,3.1,6.9,5.2c6,4.6,14.6,11.2,25.6,18.9
						c11,7.6,24.4,16.6,41,22.6c8.3,3,17.3,5.2,26.8,6c9.4,0.6,19.7,0.4,28.6-3.9c4.4-2.1,8-5.5,10.2-9.6c2.2-4.1,2.5-8.9,1.2-13.2
						c-2.8-8.8-9.6-15.8-15.3-22.3c-12.1-12.9-24.6-23-35.1-31.4c-10.6-8.3-19.4-14.5-25.6-18.9c-2.9-2-5.2-3.6-7.1-5
						c-1.6-1.2-2.5-1.8-2.4-1.9c0.1-0.1,1,0.4,2.7,1.4c1.7,1,4.2,2.5,7.4,4.5c6.3,4.1,15.5,10.1,26.3,18.2
						c10.7,8.1,23.4,18.2,35.9,31.1c3,3.3,6.1,6.8,9,10.5c2.9,3.8,5.6,7.9,7.1,12.9c1.5,4.9,1.3,10.7-1.4,15.5
						c-2.5,4.7-6.7,8.5-11.5,10.9c-9.8,4.7-20.5,4.7-30.2,4.1c-9.8-0.8-19.1-3.1-27.5-6.3c-17-6.3-30.4-15.6-41.3-23.4
						c-10.9-7.9-19.4-14.9-25.1-19.7c-2.6-2.3-4.8-4.1-6.6-5.7C9404.4,1197.2,9403.7,1196.5,9403.8,1196.4z"/>
				</g>
			</g>
			<g>
				<g>
					<path class="st11" d="M9347.2,1285.1c19.9,9.6,39.8,19.1,59.7,28.7c6.8,3.3,14.6,8.1,14.4,15.6c-0.1,3.5-2.1,6.6-4.3,9.2
						c-9.6,11-25.1,15.2-39.7,14.4c-14.5-0.8-28.4-6.1-42-11.3"/>
				</g>
				<g>
					<g>
						<path class="st12" d="M9335.2,1341.7c0.2-0.6,9.9,3.6,26.1,7.7c8.1,1.9,18.1,3.5,28.9,1.6c5.3-0.9,10.9-2.6,16-5.5
							c5-2.9,10-7,12.6-12.3c1.3-2.6,1.3-5.5,0.1-7.9s-3.4-4.5-5.7-6.2c-4.7-3.3-10.3-5.5-15.2-8c-9.9-4.9-18.9-9.3-26.6-13.1
							c-7.1-3.6-13-6.7-17.8-9c-4.1-2.2-6.4-3.5-6.3-3.7c0.1-0.2,2.5,0.8,6.8,2.6c4.8,2.2,10.9,4.9,18.2,8.2
							c7.9,3.6,16.9,7.9,26.9,12.5c5,2.5,10.5,4.6,15.7,8.1c2.5,1.8,5.2,4.1,6.7,7.3c1.6,3.1,1.5,7.3,0,10.5
							c-6.8,12.3-19.8,17.6-30.9,19.3c-11.3,1.8-21.6-0.2-29.8-2.3c-8.2-2.3-14.5-4.8-18.9-6.6
							C9337.5,1343,9335.1,1341.9,9335.2,1341.7z"/>
					</g>
				</g>
			</g>
			<g>
				<path class="st11" d="M9440.3,1429.1l-90,67.9c0,0-43.6-60.8-14.6-134.4h21.6l-4.9,24.2l41,8.5L9440.3,1429.1z"/>
			</g>
			<g>
				<g>
					<path class="st11" d="M9333.7,1360.9c11,14.4,22.1,28.7,33.1,43c3.9,5,7.8,10.1,12.9,13.9c5.1,3.8,11.5,6.2,17.8,5"/>
				</g>
				<g>
					<g>
						<path class="st12" d="M9397.3,1422.8c0.3,0.3-5.4,2.5-13.5-1.3c-4-1.8-8.1-5-11.9-9.1c-3.8-4.1-7.4-9-11.2-14.1
							c-7.8-10.1-14.6-19.4-19.5-26.1c-4.9-6.8-7.7-11.1-7.4-11.3c0.3-0.3,3.8,3.6,9,10.1c5.3,6.4,12.4,15.5,20.2,25.6
							c3.9,5,7.4,10,11,14c3.6,4.1,7.2,7.3,10.8,9.1C9391.9,1423.5,9397.4,1422.3,9397.3,1422.8z"/>
					</g>
				</g>
			</g>
		</g>
		<g>
			<g>
				<path class="st4" d="M9359.6,1370.5l110.2-105.4c10.8-10.3,25.3-15.9,40.3-15.5l565.2,16.5c11.2,0.3,15.7,14.7,6.7,21.4
					l-158.7,116.6c-2.8,2-6.2,3-9.6,2.9l-549.2-23.8C9357.8,1382.9,9354.9,1375,9359.6,1370.5z"/>
			</g>
			<g>
				<g>
					<path class="st8" d="M10086.5,1280.4c0,0.1-0.7,0.1-1.9,0.1c-1.4,0-3.4,0-5.8,0c-5.3-0.1-12.8-0.2-22.3-0.3
						c-19.6-0.4-47.7-1.1-82.2-1.9c-69.6-1.9-165.4-4.4-271.3-7.3c-52.9-1.5-103.4-3-149.3-4.4c-11.5-0.3-22.7-0.7-33.6-1
						c-5.4-0.1-10.8-0.7-15.9,0c-5.1,0.6-10,2.2-14.3,4.6c-4.4,2.3-7.9,5.7-11.6,9c-3.6,3.3-7.2,6.6-10.7,9.8
						c-6.9,6.4-13.6,12.6-20,18.4c-25.5,23.4-46.2,42.4-60.6,55.6c-7.1,6.4-12.7,11.4-16.6,15c-1.9,1.6-3.3,2.9-4.4,3.8
						c-1,0.8-1.5,1.3-1.5,1.3s0.4-0.5,1.4-1.4c1-1,2.5-2.4,4.1-4.1c3.8-3.6,9.3-8.8,16.2-15.4c14.3-13.4,34.8-32.6,60-56.3
						c6.3-5.9,13-12.2,19.9-18.6c3.5-3.2,7-6.5,10.6-9.9c3.6-3.3,7.4-7,12-9.5c4.6-2.5,9.7-4.3,15.1-5c5.5-0.7,10.8-0.1,16.2-0.1
						c10.9,0.3,22.1,0.6,33.6,0.9c45.9,1.3,96.4,2.6,149.3,4.1c105.9,3.2,201.7,6.1,271.3,8.1c34.6,1.2,62.6,2.1,82.2,2.8
						c9.6,0.4,17.1,0.7,22.3,0.9c2.5,0.2,4.3,0.3,5.8,0.3C10085.8,1280.3,10086.5,1280.4,10086.5,1280.4z"/>
				</g>
			</g>
		</g>
		<g>
			<g>
				<g>
					<path class="st3" d="M10198.5,983.1c0.8,0.4-27.4,54.8-62.9,121.4c-35.4,66.7-64.8,120.5-65.5,120.1
						c-0.8-0.4,27.4-54.8,62.9-121.5C10168.4,1036.5,10197.8,982.7,10198.5,983.1z"/>
				</g>
			</g>
			<g>
				<g>
					<path class="st3" d="M9991.5,971.9c0.8,0.2-10.5,48.8-25.2,108.6c-14.7,59.8-27.3,108.1-28.2,107.8
						c-0.8-0.2,10.5-48.8,25.2-108.6C9978.1,1020,9990.7,971.7,9991.5,971.9z"/>
				</g>
			</g>
			<g>
				<g>
					<path class="st3" d="M9126.7,1060.8c0.6-0.5,35.2,38,77.2,86.1c42,48.1,75.6,87.5,75,88s-35.2-38-77.3-86.1
						C9159.6,1100.8,9126.1,1061.4,9126.7,1060.8z"/>
				</g>
			</g>
			<g>
				<g>
					<path class="st3" d="M9263.2,869.5c0.8-0.3,18.9,59.4,40.3,133.3c21.5,73.9,38.3,133.9,37.5,134.2
						c-0.8,0.3-18.9-59.4-40.3-133.3C9279.2,929.9,9262.4,869.7,9263.2,869.5z"/>
				</g>
			</g>
			<g>
				<g>
					<path class="st3" d="M9822.3,804.1c0.1,0,0.2,1.4,0.3,4.1c0,3,0.1,6.8,0.2,11.6c0,10.4,0,24.9,0.1,42.7
						c-0.3,36.4-0.6,86.1-1,141c-0.8,54.9-1.4,104.6-1.9,141c-0.3,17.8-0.7,32.3-0.9,42.7c-0.2,4.8-0.3,8.6-0.4,11.6
						c-0.1,2.6-0.3,4.1-0.3,4.1c-0.1,0-0.2-1.4-0.3-4.1c0-3-0.1-6.8-0.2-11.6c0-10.4,0-24.9-0.1-42.7c0.3-36.4,0.6-86.1,1-141
						c0.8-54.9,1.4-104.6,1.9-141c0.3-17.8,0.7-32.3,0.9-42.7c0.2-4.8,0.3-8.6,0.4-11.6C9822.1,805.5,9822.2,804.1,9822.3,804.1z"/>
				</g>
			</g>
		</g>
		<g>
			<g>
				<g>
					<g>
						<g>
							<g>
								<path class="st8" d="M10015.4,105.4c-21.3-22.8-47.2-44.5-54.6-74.8c-6.8-27.9,3-60-11.8-84.6
									c-18.2-30.4-63.6-32.9-85.4-60.7c-10.6-13.4-14.3-31.4-24.8-44.9c-17.8-23.1-51-28.3-79.9-24.3
									c-28.9,4.1-56.5,15.4-85.6,18.3c-39.8,4.1-81.5-7.6-119.5,5.2c-41.9,14-66.5,52.3-92.9,89.5l-34.5,43.2
									c-7.2,7.4-14.8,14.3-23.3,20.2c-14.8,10.2-31.8,17.6-44.4,30.4c-26.9,27.6-22.9,78.6,7.9,101.7
									c-30.4,10.8-51.4,43.6-48.5,75.8c1.6,17.7,9.5,34.1,15.4,50.8c5.8,16.7,9.6,35.5,3.1,52c-6.5,16.5-27,28.3-42.8,20.1
									c6.2,22.8,23.3,42.4,45.1,51.6c-8,8.9-19.6,14.5-31.5,15.2c34.9,75,124.4,112,207,109.8c82.7-2.4,160.7-36.4,236.4-69.8
									l220.6-65.4c19.4-5.2,26.7-29.2,25.8-49.2c-0.9-20-6.8-40.8-0.3-59.7c9-26,38.3-40.7,47.8-66.5
									C10055.6,160,10036.7,128.2,10015.4,105.4z"/>
							</g>
						</g>
					</g>
				</g>
				<g>
					<g>
						<g>
							<g>
								<g>
									<g>
										<g>
											<g>
												<g>
													<g>
														<g>
															<g>
																<path class="st8" d="M9495.6,326.3c-17.8-49.7-35.4-99.9-44.5-152c-9-52.1-9-106.6,7.9-156.7
																	c2.5-7.6,24.9-58.7,32.8-58.1c5.8,0.4-7.5,47.8-4.5,52.7c28.9,46.4,38.1,102.9,35.3,157.5
																	C9519.9,224.2,9510,273.5,9495.6,326.3"/>
															</g>
														</g>
													</g>
												</g>
											</g>
										</g>
									</g>
								</g>
								<g>
									<g>
										<g>
											<path class="st11" d="M9691-126.8l-12.3-0.3c-132.5,4.6-202.6,119.7-194.3,251.9l3.8,456.2
												c0.7,82.5,65.9,150.1,148.3,153.7l0,0c86.6,3.8,159.5-64,161.9-150.6c0.7-24,1.3-40.8,1.4-40.8
												c0,0,127.7-16.7,132.3-143.8c2.2-61.4-3.5-188.2-10-302.9C9914.9-26.7,9814.4-123.8,9691-126.8z"/>
										</g>
									</g>
								</g>
								<g>
									<g>
										<g>
											<g>
												<g>
													<g>
														<g>
															<g>
																<g>
																	<g>
																		<path class="st12" d="M9799.7,543.4c0,0-80.2,2.8-164.4-52.8c0,0,36.1,94.6,163.3,86.2L9799.7,543.4z"/>
																	</g>
																</g>
															</g>
														</g>
													</g>
												</g>
											</g>
										</g>
									</g>
								</g>
								<g>
									<g>
										<g>
											<g>
												<g>
													<g>
														<g>
															<g>
																<g>
																	<g>
																		<g>
																			<g>
																				<g>
																					<g>
																						<g>
																							<g>
																								<path class="st8" d="M9866,214c0.1,9.6-7.9,17.6-17.9,17.9c-10,0.3-18.2-7.2-18.3-16.8
																									c-0.1-9.6,7.9-17.6,17.9-17.9C9857.6,196.9,9865.8,204.4,9866,214z"/>
																							</g>
																						</g>
																					</g>
																				</g>
																			</g>
																		</g>
																	</g>
																</g>
															</g>
														</g>
													</g>
												</g>
											</g>
										</g>
									</g>
								</g>
								<g>
									<g>
										<g>
											<g>
												<g>
													<g>
														<g>
															<g>
																<g>
																	<g>
																		<g>
																			<g>
																				<g>
																					<g>
																						<g>
																							<g>
																								<g>
																									<path class="st8" d="M9893.5,148.8c-2.3,2.3-15.8-8.2-35.3-8.6c-19.5-0.7-34.1,9-36.2,6.6
																										c-1-1.1,1.4-5.3,7.7-9.7c6.3-4.4,16.8-8.5,29-8.2c12.2,0.3,22.3,5.1,28.1,9.8
																										C9892.7,143.4,9894.6,147.8,9893.5,148.8z"/>
																								</g>
																							</g>
																						</g>
																					</g>
																				</g>
																			</g>
																		</g>
																	</g>
																</g>
															</g>
														</g>
													</g>
												</g>
											</g>
										</g>
									</g>
								</g>
								<g>
									<g>
										<g>
											<g>
												<g>
													<g>
														<g>
															<g>
																<g>
																	<g>
																		<g>
																			<g>
																				<g>
																					<g>
																						<g>
																							<g>
																								<path class="st8" d="M9689.1,214.1c0.1,9.6-7.9,17.6-17.9,17.9c-10,0.3-18.2-7.2-18.3-16.8
																									c-0.1-9.6,7.9-17.6,17.9-17.9C9680.8,196.9,9689,204.4,9689.1,214.1z"/>
																							</g>
																						</g>
																					</g>
																				</g>
																			</g>
																		</g>
																	</g>
																</g>
															</g>
														</g>
													</g>
												</g>
											</g>
										</g>
									</g>
								</g>
								<g>
									<g>
										<g>
											<g>
												<g>
													<g>
														<g>
															<g>
																<g>
																	<g>
																		<g>
																			<g>
																				<g>
																					<g>
																						<g>
																							<g>
																								<g>
																									<path class="st8" d="M9701.9,152.1c-2.3,2.3-15.8-8.2-35.3-8.6c-19.5-0.7-34.1,9-36.2,6.6
																										c-1-1.1,1.4-5.3,7.7-9.7c6.3-4.4,16.8-8.5,29-8.2c12.2,0.3,22.3,5.1,28.1,9.8
																										C9701.2,146.8,9703.1,151.1,9701.9,152.1z"/>
																								</g>
																							</g>
																						</g>
																					</g>
																				</g>
																			</g>
																		</g>
																	</g>
																</g>
															</g>
														</g>
													</g>
												</g>
											</g>
										</g>
									</g>
								</g>
								<g>
									<g>
										<g>
											<g>
												<g>
													<g>
														<g>
															<g>
																<g>
																	<g>
																		<g>
																			<g>
																				<g>
																					<g>
																						<g>
																							<g>
																								<path class="st8" d="M9768.5,304c-0.1-1.1,12.1-3,31.9-5c5-0.4,9.7-1.3,10.7-4.7c1.3-3.6-0.7-9-3-14.9
																									c-4.4-12.2-9-24.9-13.9-38.3c-19.2-54.5-33-99.4-30.8-100.2s19.5,42.9,38.7,97.5c4.7,13.4,9,26.3,13.2,38.6
																									c1.8,5.8,4.8,12.3,2.1,19.6c-1.4,3.7-5.2,6.3-8.4,7.1c-3.2,0.9-6,0.9-8.5,1
																									C9780.8,305.2,9768.5,305.1,9768.5,304z"/>
																							</g>
																						</g>
																					</g>
																				</g>
																			</g>
																		</g>
																	</g>
																</g>
															</g>
														</g>
													</g>
												</g>
											</g>
										</g>
									</g>
								</g>
								<g>
									<g>
										<g>
											<g>
												<g>
													<g>
														<g>
															<g>
																<g>
																	<g>
																		<g>
																			<g>
																				<g>
																					<g>
																						<g>
																							<g>
																								<path class="st8" d="M9710.6,316.1c3.2-0.1,2.7,21.1,20.5,36.6c17.8,15.6,40.4,13.7,40.5,16.7
																									c0.3,1.4-5.2,4-14.7,4.1c-9.4,0.1-23-3.2-33.8-12.7s-15.3-21.9-15.8-30.6
																									C9706.6,321.1,9709.2,316,9710.6,316.1z"/>
																							</g>
																						</g>
																					</g>
																				</g>
																			</g>
																		</g>
																	</g>
																</g>
															</g>
														</g>
													</g>
												</g>
											</g>
										</g>
									</g>
								</g>
								<g>
									<g>
										<g>
											<g>
												<g>
													<g>
														<g>
															<g>
																<g>
																	<g>
																		<g>
																			<g>
																				<path class="st8" d="M9702.8,72.8c-2,5.2-21.5,2.3-44.5,4.5c-23,1.8-41.7,8-44.6,3.2c-1.3-2.3,2-7.3,9.6-12.2
																					c7.5-5,19.4-9.6,33.2-10.7c13.8-1.2,26.4,1.3,34.6,4.9C9699.5,66,9703.6,70.3,9702.8,72.8z"/>
																			</g>
																		</g>
																	</g>
																</g>
															</g>
														</g>
													</g>
												</g>
											</g>
										</g>
									</g>
								</g>
								<g>
									<g>
										<g>
											<g>
												<g>
													<g>
														<g>
															<g>
																<g>
																	<g>
																		<g>
																			<g>
																				<path class="st8" d="M9887,83.6c-3.6,4.4-16.9-0.6-33.1-1.2c-16.2-1.2-29.9,2.3-33-2.5c-1.4-2.3,0.9-6.7,7-10.7
																					c6-4.1,16-7.3,27.1-6.6c11.1,0.6,20.6,4.9,26.2,9.6C9886.8,76.9,9888.5,81.5,9887,83.6z"/>
																			</g>
																		</g>
																	</g>
																</g>
															</g>
														</g>
													</g>
												</g>
											</g>
										</g>
									</g>
								</g>
								<g>
									<g>
										<g>
											<g>
												<g>
													<g>
														<g>
															<g>
																<path class="st11" d="M9492.5,219.2c-2.1-1-86.8-27.9-86.1,59.1s87.9,68.3,88,65.9
																	C9494.7,341.7,9492.5,219.2,9492.5,219.2z"/>
															</g>
														</g>
													</g>
												</g>
											</g>
										</g>
									</g>
								</g>
								<g>
									<g>
										<g>
											<g>
												<g>
													<g>
														<g>
															<g>
																<g>
																	<path class="st12" d="M9467.7,311.5c-0.4-0.3-1.5,1.1-4.1,2.3c-2.5,1.2-6.8,1.9-11.3,0.3
																		c-9.2-3.3-17.1-17.8-17.6-33.5c-0.3-7.9,1.4-15.5,4.1-21.7c2.6-6.4,6.7-10.8,11.3-11.8c4.6-1.1,7.9,1.6,9,4.1
																		c1.2,2.5,0.7,4.1,1.1,4.3c0.3,0.3,1.9-1.4,1.1-5.1c-0.3-1.7-1.4-3.8-3.5-5.4c-2.1-1.7-5.2-2.5-8.4-2.1
																		c-6.7,0.5-12.7,6.8-15.7,13.6c-3.4,6.9-5.4,15.4-5.1,24.3c0.7,17.5,9.8,33.8,22.4,37.4c6.2,1.5,11.2-0.3,13.9-2.5
																		C9467.5,313.5,9467.9,311.6,9467.7,311.5z"/>
																</g>
															</g>
														</g>
													</g>
												</g>
											</g>
										</g>
									</g>
								</g>
								<g>
									<g>
										<g>
											<g>
												<g>
													<g>
														<g>
															<g>
																<path class="st8" d="M9863.3-46.5c14-8-29.1-52.8-63.9-68c-52.7-22.8-132.8-36.1-180.8-21.6
																	c-57.8,17.4-105.5,47.1-133.8,100.5c-28.2,53.4-38.1,115.1-35.4,175.4c0.8,18.4,3,37.5,13.2,52.9
																	c12.5,19,36,30.8,35.4,57.3c-0.2,9.7,2.7,19.4,9.5,26.4c16.2,16.7,35.4,0.4,44.1-15.6c18.5-34.4,20-75.1,21-114.2
																	c0.8-27.7,1.4-56.1-6.9-82.6c-4.5-14.5-11.6-28-15.3-42.7c-3.7-14.6-3.6-31.4,5.4-43.5c1.4-1.9,3.9-4.5,6.9-7.3
																	c24.3-22,58.6-29.1,89.7-18.7c49.3,16.5,133.3,40.9,154.9,23.9c31-24.4,38.3-40.2,38.3-40.2L9863.3-46.5z"/>
															</g>
														</g>
													</g>
												</g>
											</g>
										</g>
									</g>
								</g>
							</g>
						</g>
						<g>
							<g>
								<g>
									<g>
										<g>
											<g>
												<g>
													<g>
														<path class="st8" d="M9622.8-147.9c47.5-16.8,102-16.9,147,5.6c23.9,11.9,45.7,31.2,53.4,56.9
															c7.7,25.6-2.8,57.5-27.4,68l-1.7,1.1c-36.9,13.1-61.1,8.5-98.3-3.6c-31.3-10.2-59.4-29-90.7-39.1
															c-33.3-10.7-69.9-11.2-103.5-1.3C9534.4-98.8,9575.3-131.2,9622.8-147.9z"/>
													</g>
												</g>
											</g>
										</g>
									</g>
								</g>
							</g>
						</g>
					</g>
				</g>
			</g>
			<g>
				<g>
					<path class="st7" d="M9420,225.7c0,0-1.7-1.5-4.3-5.1c-2.5-3.5-6.3-9-9.2-16.7c-3-7.7-5.4-17.8-5-29.8
						c0.4-11.8,4.2-25.4,12.6-37.9c4.2-6.2,9.6-12.1,16-17.2c6.4-5.1,14.1-9,22.3-12.1c16.2-6.3,35.1-9.6,50.6-21.2
						c7.7-5.7,13.6-13.9,16.1-23.6c2.5-9.6,2.3-20.1,1.7-30.7c-1.5-21.1-2.3-43.8,4.7-65.8c6.9-22.1,22.8-39.6,40.5-51.6
						c17.8-12.2,37.5-19.9,56.7-23.6c19.4-3.7,38.5-3.4,55.6,0.1c17.2,3.6,32.5,10.3,44.6,18.9c24.7,17.1,37.6,38.8,43.5,54.2
						c3,7.8,4.4,14.1,5.2,18.3c0.3,2,0.5,3.6,0.7,4.9c0.2,1.1,0.2,1.7,0.2,1.7c-0.5,0.2-0.8-9.3-7.1-24.5
						c-6.1-15.1-19.1-36.4-43.5-52.8c-12.1-8.3-27.1-14.8-44-18.3c-16.9-3.3-35.6-3.6-54.6,0.2c-18.9,3.7-38.3,11.3-55.6,23.3
						c-17.3,11.8-32.6,28.8-39.3,50.1c-6.8,21.3-6.1,43.6-4.7,64.7c0.6,10.6,0.8,21.4-1.9,31.5c-2.5,10.2-9,19.1-17.2,25
						c-16.2,12.1-35.3,15.2-51.3,21.4c-16.3,5.6-29.3,16-37.5,28.1c-8.3,12-12.1,25.2-12.7,36.7c-0.6,11.6,1.6,21.6,4.5,29.3
						C9413.4,219.1,9420.4,225.5,9420,225.7z"/>
				</g>
			</g>
			<g>
				<g>
					<path class="st7" d="M9410.6,245.6c0,0-2.5-1.1-6.7-3.9c-4.2-2.8-10.2-7.4-16.7-14.5c-6.3-7.2-13.3-17.1-17.9-30.1
						c-4.7-12.9-6.8-29-3.6-46.2c3-17,11.5-35.2,26.4-49.3c14.6-14.4,34-24.7,52.1-38.1c9-6.8,17.7-14.5,24.4-24
						c6.8-9.5,11.7-20.6,15.6-32.2c7.8-23.3,11.2-49,22.3-73.2c11.2-24.2,29.5-43.7,50.4-57.3c21-13.6,44.6-21,67.6-22.5
						c22.9-1.6,44.8,2.4,63.8,9.4c19.1,7.1,35.3,17.4,48.4,28.7c26.1,22.9,39.3,48.6,46.3,66.4c6.9,18,8.1,28.7,8.1,28.7
						c-0.1,0-0.3-0.6-0.6-1.9c-0.3-1.4-0.8-3.2-1.4-5.6c-1.4-4.8-3.5-12-7.2-20.9c-7.2-17.5-20.6-42.8-46.6-65.2
						c-12.9-11.1-29-21.1-47.9-28c-18.8-6.8-40.3-10.6-62.8-9c-22.4,1.5-45.6,8.8-66.1,22.2c-20.5,13.4-38.4,32.6-49.3,56.1
						c-10.8,23.7-14.4,49.3-22.2,72.9c-3.9,11.8-8.9,23.2-16,33c-6.9,9.9-15.9,17.8-25.1,24.6c-18.3,13.5-37.6,23.7-52,37.6
						c-14.5,13.7-22.9,31.3-26,47.9c-3.3,16.7-1.4,32.5,3,45.2s11.1,22.7,17.3,29.8c6.3,7.2,12.2,11.8,16.2,14.8
						C9408.3,244.2,9410.7,245.4,9410.6,245.6z"/>
				</g>
			</g>
		</g>
		<g>
			<g>
				<path class="st11" d="M9924.8,1378.3c0,0-236.3-55-272.4-57.7c-33.8-2.5-42.7,18.7-42.7,18.7s-50.7-6.3-61.8,23.3
					c0,0-8.9,17.3,11.8,26c20.8,8.8,133.4,33.6,156.6,55.1c23.2,21.6,217.3,131.8,217.3,131.8l78.3,32c0,0,35.2-91.9,36.8-118.2
					c1.6-26.3-7.9-40.8-7.9-40.8s48.7-49.6,54.4-69.5c5.6-20,40.8-88.7,40.8-88.7s-33-33.7-65.6,5.9c-32.6,39.6-51,57.3-59.8,64.3
					C9985,1380.7,9939.9,1383,9924.8,1378.3z"/>
			</g>
			<g>
				<g>
					<path class="st12" d="M9846.2,1447.2c-0.1,0.1-0.9-0.3-2.5-1c-1.9-0.9-4.1-2-6.9-3.3c-6.4-3.1-15.1-7.2-25.5-12.2
						c-21.6-10.1-51.7-23.3-85.8-35.9c-17.1-6.3-33.5-11.8-48.5-16.5c-15-4.8-28.8-8.1-39.9-13c-11.2-4.7-19-11.1-22.9-16.7
						c-1.9-2.8-3.1-5.2-3.7-6.8c-0.6-1.7-0.8-2.5-0.8-2.6c0.3-0.2,1.4,3.6,5.3,8.7c4.1,5.2,11.8,11.1,22.8,15.4
						c10.9,4.5,24.9,7.6,39.9,12.3c15.1,4.6,31.6,10.1,48.7,16.3c34.2,12.5,64.3,26.1,85.7,36.8c10.7,5.3,19.2,9.8,25,13.1
						c2.6,1.5,4.8,2.8,6.7,3.8C9845.4,1446.5,9846.2,1447.1,9846.2,1447.2z"/>
				</g>
			</g>
			<g>
				<g>
					<path class="st12" d="M9999.6,1368.1c0.6,0.4-7.5,10.4-21.3,17.6c-13.7,7.4-26.5,8.5-26.6,7.7c-0.2-0.9,11.9-3.3,25.1-10.4
						C9990.3,1376.1,9999.1,1367.4,9999.6,1368.1z"/>
				</g>
			</g>
		</g>
	</g>
	<g>
		<g>
			<path class="st8" d="M10831.3,1925.4c0,0.8-509.6,1.5-1138.2,1.5c-628.7,0-1138.3-0.7-1138.3-1.5s509.6-1.5,1138.3-1.5
				C10321.6,1923.9,10831.3,1924.6,10831.3,1925.4z"/>
		</g>
	</g>
	<g>
		<g>
			<g>
				<polygon class="st3" points="9206.1,54 8453.1,54 8453.1,363.7 9130.3,363.7 9176.4,409.9 9176.4,363.7 9206.1,363.7 				"/>
			</g>
			<g>
				<g>
					<path class="st8" d="M9206.1,54c0,0,0.1,1.8,0.1,5.2c0,3.6,0.1,8.9,0.1,15.7c0.1,14,0.2,34.5,0.3,61.1
						c0.2,53.4,0.3,131,0.6,227.6v1h-1c-9,0-19.2,0-29.6,0l1.1-1.1c0,14.2,0,30,0.1,46.2v2.7l-1.9-1.9c-14.4-14.4-30-30-46.2-46.1
						l0.8,0.3c-179.2,0.1-402.7,0.2-644.4,0.3c-10.9,0-21.9,0-32.7,0h-1.5v-1.5c0-108.7,0.1-213.2,0.1-309.7v-1.4h1.4
						c219.3,0.3,407.7,0.5,541.3,0.7c66.6,0.2,119.6,0.3,155.9,0.4c18.1,0.1,32,0.2,41.5,0.2c4.7,0,8.2,0.1,10.7,0.1
						C9204.9,53.9,9206.1,54,9206.1,54s-1.3,0.1-3.7,0.1c-2.5,0-6.1,0.1-10.8,0.1c-9.6,0-23.6,0.1-41.8,0.2
						c-36.4,0.1-89.5,0.3-156.3,0.4c-133.3,0.2-321.4,0.4-540.3,0.7l1.4-1.4c0,96.6,0.1,201.1,0.1,309.7l-1.5-1.5
						c10.8,0,21.7,0,32.7,0c241.8,0.1,465.2,0.2,644.4,0.3h0.5l0.3,0.3c16.1,16.2,31.7,31.8,46.1,46.2l-1.9,0.8
						c0-16.2,0-31.9,0.1-46.2v-1.1h1.1c10.4,0,20.5,0,29.6,0l-1,1c0.3-96.4,0.4-173.8,0.6-227c0.1-26.6,0.2-47.3,0.3-61.3
						c0.1-6.9,0.1-12.3,0.1-15.9C9206,55.9,9206.1,54,9206.1,54z"/>
				</g>
			</g>
		</g>
		<g>
			<g>
				<path class="st4" d="M9135.9,168.5h-366.1c-1,0-1.8-0.8-1.8-1.8v-22.3c0-1,0.8-1.8,1.8-1.8h366.1c1,0,1.8,0.8,1.8,1.8v22.2
					C9137.6,167.7,9136.8,168.5,9135.9,168.5z"/>
			</g>
			<g>
				<path class="st4" d="M9135.9,226.3h-366.1c-1,0-1.8-0.8-1.8-1.8v-22.2c0-1,0.8-1.8,1.8-1.8h366.1c1,0,1.8,0.8,1.8,1.8v22.2
					C9137.6,225.5,9136.8,226.3,9135.9,226.3z"/>
			</g>
			<g>
				<path class="st4" d="M9135.9,284h-366.1c-1,0-1.8-0.8-1.8-1.8V260c0-1,0.8-1.8,1.8-1.8h366.1c1,0,1.8,0.8,1.8,1.8v22.2
					C9137.6,283.2,9136.8,284,9135.9,284z"/>
			</g>
		</g>
		<g>
			<g>
				<path class="st7" d="M8702.2,308.5h-182.9c-2.1,0-3.8-1.7-3.8-3.8V121.8c0-2.1,1.7-3.8,3.8-3.8h182.9c2.1,0,3.8,1.7,3.8,3.8
					v182.9C8705.9,306.8,8704.2,308.5,8702.2,308.5z"/>
			</g>
			<g>
				<path class="st3" d="M8534.2,269.8l-4.4-3.7l38.5-45.7c4.3-6.1,12.8-7.6,19.2-3.4l22.7,15.1l26.7-33.7c2.5-3.2,6.4-5.2,10.5-5.3
					c4.1-0.2,8.1,1.5,10.9,4.5l33,35.6l-4.2,3.9l-33-35.6c-1.7-1.8-4.1-2.8-6.5-2.7c-2.5,0.1-4.7,1.3-6.3,3.2l-30,37.9l-27.1-18.1
					c-3.8-2.5-8.9-1.6-11.5,2.1L8534.2,269.8z"/>
			</g>
			<g>
				<circle class="st3" cx="8593.7" cy="167.6" r="17"/>
			</g>
		</g>
	</g>
	<g>
		<g>
			<g>
				<polygon class="st3" points="10561.6,615.5 9877.2,615.5 9877.2,907 9947.8,907 9955.3,971.3 10008,907 10561.6,907 				"/>
			</g>
			<g>
				<g>
					<path class="st8" d="M10561.6,615.5c0,0,0.1,1.6,0.1,5s0.1,8.4,0.1,14.9c0.1,13.2,0.2,32.6,0.3,57.6
						c0.2,50.3,0.3,123.3,0.6,214.2v1h-1c-144.1,0.1-336.9,0.3-553.6,0.4l1.1-0.5c-16.7,20.4-34.6,42.2-52.7,64.3l-2.2,2.7l-0.4-3.5
						c-2.4-20.4-4.9-42.2-7.4-64.3l1.4,1.4c-8.5,0-17.6,0-26.7,0c-14.7,0-29.3,0-43.9,0h-1.5v-1.5c0-102.4,0.1-200.7,0.1-291.6v-1.4
						h1.4c199.8,0.3,371,0.5,492.5,0.7c60.5,0.2,108.5,0.3,141.5,0.4c16.4,0.1,29,0.2,37.6,0.2c4.2,0,7.4,0.1,9.6,0.1
						C10560.6,615.4,10561.6,615.5,10561.6,615.5s-1.2,0.1-3.4,0.1c-2.3,0-5.6,0.1-9.8,0.1c-8.7,0-21.4,0.1-37.9,0.2
						c-33.1,0.1-81.2,0.3-141.8,0.4c-121.2,0.2-292.1,0.4-491.5,0.7l1.4-1.4c0,90.9,0.1,189.2,0.1,291.6l-1.5-1.5
						c14.5,0,29.2,0,43.9,0c9.1,0,18.3,0,26.7,0h1.4l0.2,1.4c2.5,22.1,5.1,43.9,7.4,64.3l-2.6-0.8c18.1-22.1,36-43.9,52.8-64.3
						l0.4-0.5h0.7c216.7,0.2,409.6,0.3,553.6,0.4l-1,1c0.3-90.6,0.4-163.4,0.6-213.6c0.1-25.1,0.2-44.6,0.3-57.8
						c0.1-6.6,0.1-11.6,0.1-15.1C10561.6,617.3,10561.6,615.5,10561.6,615.5z"/>
				</g>
			</g>
		</g>
		<g>
			<g>
				<path class="st4" d="M10480.1,707.5h-271.8c-7.6,0-13.7-6.2-13.7-13.7l0,0c0-7.6,6.2-13.7,13.7-13.7h271.8
					c7.6,0,13.7,6.2,13.7,13.7l0,0C10493.9,701.4,10487.7,707.5,10480.1,707.5z"/>
			</g>
			<g>
				<path class="st4" d="M10480.1,768.7h-271.8c-7.6,0-13.7-6.2-13.7-13.7l0,0c0-7.6,6.2-13.7,13.7-13.7h271.8
					c7.6,0,13.7,6.2,13.7,13.7l0,0C10493.9,762.6,10487.7,768.7,10480.1,768.7z"/>
			</g>
			<g>
				<path class="st4" d="M10480.1,829.9h-271.8c-7.6,0-13.7-6.2-13.7-13.7l0,0c0-7.6,6.2-13.7,13.7-13.7h271.8
					c7.6,0,13.7,6.2,13.7,13.7l0,0C10493.9,823.8,10487.7,829.9,10480.1,829.9z"/>
			</g>
		</g>
		<g>
			<g>
				<path class="st2" d="M10125.1,856h-194.3c-2.1,0-3.8-1.7-3.8-3.8V657.8c0-2.1,1.7-3.8,3.8-3.8h194.3c2.1,0,3.8,1.7,3.8,3.8
					v194.3C10128.9,854.3,10127.2,856,10125.1,856z"/>
			</g>
			<g>
				<path class="st3" d="M9946.8,814.8l-4.4-3.7l40.8-48.5c4.6-6.3,13.4-7.9,20.1-3.6l24.2,16.2l28.4-35.9c2.7-3.4,6.7-5.4,11-5.6
					c4.2-0.2,8.5,1.5,11.4,4.7l34.9,37.8l-4.2,3.9l-34.9-37.8c-1.8-1.9-4.4-3-7-2.9c-2.6,0.1-5.2,1.4-6.8,3.5l-31.7,40.1l-28.6-19
					c-4.1-2.7-9.6-1.7-12.4,2.3L9946.8,814.8z"/>
			</g>
			<g>
				<path class="st3" d="M10028,706.5c0,10-8.1,18-18,18c-10,0-18-8.1-18-18c0-10,8.1-18,18-18S10028,696.5,10028,706.5z"/>
			</g>
		</g>
	</g>
	<g>
		<g>
			<path class="st3" d="M9153.6,553.2h-544.9c-19.8,0-35.9,16.1-35.9,35.9v317c0,17.3,14.1,31.5,31.5,31.5h444l69.8,69.8v-69.8h25.9
				c21,0,38-17,38-38V581.7C9182,565.9,9169.4,553.2,9153.6,553.2z"/>
		</g>
		<g>
			<path class="st4" d="M9181.6,627.9h-608.2c-0.3,0-0.5-0.3-0.5-0.5v-68.6c0-3.1,2.5-5.7,5.7-5.7H9178c2.3,0,4.1,1.9,4.1,4.1v70.1
				C9182,627.7,9181.9,627.9,9181.6,627.9z"/>
		</g>
		<g>
			<g>
				<path class="st9" d="M8813.6,871.4h-174.8c-2.1,0-3.8-1.7-3.8-3.8V692.8c0-2.1,1.7-3.8,3.8-3.8h174.8c2.1,0,3.8,1.7,3.8,3.8
					v174.8C8817.4,869.7,8815.7,871.4,8813.6,871.4z"/>
			</g>
			<g class="st10">
				<g>
					<path d="M8801.5,801.2c-0.2,0.2-2.3-1.9-6.1-5.7c-4.1-4.2-9.4-9.7-15.7-16.3c-3.3-3.5-6.9-7.3-10.7-11.3
						c-3.4-3.8-10.4-4.1-14,0.3c-7.9,10-16.4,20.8-25.4,32.2c-0.7,0.8-1.4,1.7-1.9,2.5l-0.8,1.1l-1.1-0.8c-6.8-4.6-13.4-9-19.7-13.2
						c-1.5-1-3-2-4.6-3c-1.4-0.8-3-1.3-4.5-1.3c-3.1-0.1-6.2,1.5-7.9,3.9v0.1l0,0c-10.9,12.6-20.1,23.3-27.1,31.4
						c-3.1,3.5-5.7,6.3-7.8,8.7c-1.9,1.9-2.9,3-3,2.9c-0.1-0.1,0.7-1.3,2.4-3.5c1.9-2.5,4.4-5.5,7.3-9.2c6.8-8.2,15.7-19.2,26.3-32
						l-0.1,0.1c2.1-3.1,6-5.2,10.1-5.2c2,0.1,4.1,0.5,5.9,1.6c1.7,1,3.1,2,4.7,3.1c6.3,4.2,12.9,8.6,19.8,13.1l-2,0.3
						c0.7-0.8,1.3-1.7,1.9-2.5c9-11.4,17.8-22.2,25.7-32.2c2.4-2.7,5.8-4.1,9.2-4.1c3.4,0,6.5,1.5,8.6,3.8c3.7,4.1,7.3,8,10.5,11.6
						c6.1,6.8,11.1,12.5,15.1,16.9C8799.8,798.7,8801.7,801,8801.5,801.2z"/>
				</g>
			</g>
			<g class="st10">
				<path d="M8726.3,736.5c0,9-7.3,16.3-16.3,16.3c-9,0-16.3-7.3-16.3-16.3c0-9,7.3-16.3,16.3-16.3
					C8719,720.2,8726.3,727.4,8726.3,736.5z"/>
			</g>
		</g>
		<g>
			<g>
				<path class="st8" d="M9153.6,553.2c0,0,2.8-0.3,8,1c5,1.4,13,5.3,17.8,14.9c2.5,4.7,3.2,10.7,3,17.1c0,6.4,0.1,13.4,0.1,20.9
					c0.1,15.1,0.1,32.5,0.2,51.9c0.1,39,0.2,86.3,0.3,140.9c0,27.3,0.1,56.3,0.1,87c-0.1,7.5,0.6,15.7-2.4,23.4
					c-2.6,7.7-7.6,14.6-14.2,19.6c-6.5,5.1-14.8,8.2-23.3,8.6c-8.4,0.3-16.7,0.1-25.1,0.2l1.3-1.3c0,21.8,0.1,45.5,0.1,69.8v3.1
					l-2.2-2.2c-22.1-22.1-45.7-45.6-69.8-69.8l0.9,0.4c-122.1,0-256.7,0.1-398.1,0.1c-8.7,0-17.5,0-26.1,0h-13
					c-4.2-0.1-8.7,0.3-13.2-0.7c-8.9-1.7-16.8-7.4-21.6-15.1c-2.4-3.8-3.9-8.1-4.6-12.6c-0.6-4.6-0.3-8.7-0.3-13
					c0-34.1,0-67.6,0-100.6c0-66,0.1-129.6,0.1-190.3c0-3.8,0-7.5,0-11.3c0-3.7-0.2-7.5,0.3-11.4c1-7.7,4.6-15,9.8-20.5
					c5.2-5.6,12.3-9.4,19.6-10.9c3.7-0.8,7.5-0.8,11.1-0.8c3.6,0,7.2,0,10.8,0c28.8,0,56.6,0.1,83.5,0.1c53.9,0.1,104.2,0.1,150,0.2
					c91.7,0.2,165.8,0.3,217.1,0.5c25.6,0.1,45.5,0.3,59,0.3c6.7,0.1,11.8,0.1,15.4,0.2C9151.9,553.1,9153.6,553.2,9153.6,553.2
					s-1.8,0.1-5.2,0.2c-3.6,0-8.6,0.1-15.4,0.2c-13.6,0.1-33.5,0.2-59,0.3c-51.3,0.1-125.6,0.3-217.1,0.5
					c-45.8,0.1-96.1,0.1-150,0.2c-27,0-54.9,0.1-83.5,0.1c-7.1,0.2-14.5-0.5-21.4,0.7c-6.8,1.4-13.4,5-18.2,10.1
					c-4.9,5.2-8.1,11.9-9,19c-0.5,3.6-0.3,7.3-0.3,11.1s0,7.5,0,11.3c0,60.6,0.1,124.3,0.1,190.3c0,33,0,66.5,0,100.6
					c0.1,4.2-0.2,8.6,0.3,12.6c0.6,4.1,1.9,7.9,4.1,11.4c4.2,6.9,11.5,12.1,19.6,13.7c4,0.8,8.3,0.5,12.7,0.6h13
					c8.7,0,17.4,0,26.1,0c141.4,0.1,276,0.1,398.1,0.1h0.6l0.4,0.4c24.2,24.3,47.8,47.8,69.8,69.8l-2.2,0.9c0-24.4,0.1-48,0.1-69.8
					v-1.3h1.3c8.5-0.1,16.9,0.2,25-0.1c8-0.3,15.8-3.3,22-8.1c6.3-4.7,11-11.3,13.4-18.5c2.8-7.2,2.2-15,2.3-22.7
					c0.1-30.7,0.1-59.8,0.1-87c0.1-54.5,0.2-101.9,0.3-140.9c0.1-19.4,0.1-36.8,0.2-51.9c0-7.5,0.1-14.5,0.1-20.9
					c0.3-6.4-0.3-12.2-2.8-16.7c-4.6-9.4-12.3-13.3-17.3-14.8C9156.4,553.1,9153.6,553.4,9153.6,553.2z"/>
			</g>
		</g>
		<g>
			<path class="st3" d="M8625.5,589.3c0,7.1-5.7,12.9-12.9,12.9s-12.9-5.8-12.9-12.9c0-7.1,5.8-12.9,12.9-12.9
				S8625.5,582.2,8625.5,589.3z"/>
		</g>
		<g>
			<path class="st3" d="M8664,589.3c0,7.1-5.8,12.9-12.9,12.9c-7.1,0-12.9-5.8-12.9-12.9c0-7.1,5.8-12.9,12.9-12.9
				C8658.3,576.4,8664,582.2,8664,589.3z"/>
		</g>
		<g>
			<path class="st3" d="M8702.6,589.3c0,7.1-5.8,12.9-12.9,12.9c-7.1,0-12.9-5.8-12.9-12.9c0-7.1,5.8-12.9,12.9-12.9
				C8696.8,576.4,8702.6,582.2,8702.6,589.3z"/>
		</g>
		<g>
			<g>
				<path class="st8" d="M9100.6,724.7c0,0.8-49.8,1.5-111.2,1.5c-61.4,0-111.2-0.7-111.2-1.5s49.8-1.5,111.2-1.5
					C9050.8,723.3,9100.6,724,9100.6,724.7z"/>
			</g>
		</g>
		<g>
			<g>
				<path class="st8" d="M9100.6,766.9c0,0.8-49.8,1.5-111.2,1.5c-61.4,0-111.2-0.7-111.2-1.5c0-0.8,49.8-1.5,111.2-1.5
					C9050.8,765.4,9100.6,766.1,9100.6,766.9z"/>
			</g>
		</g>
		<g>
			<g>
				<path class="st8" d="M9100.6,809c0,0.8-49.8,1.5-111.2,1.5c-61.4,0-111.2-0.7-111.2-1.5s49.8-1.5,111.2-1.5
					C9050.8,807.6,9100.6,808.2,9100.6,809z"/>
			</g>
		</g>
	</g>
	<g>
		<g>
			<g>
				<polygon class="st3" points="10108.6,192.3 10692.3,192.3 10692.3,487.3 10211.1,487.3 10157.6,540.9 10157.6,487.3 
					10108.6,487.3 				"/>
			</g>
			<g>
				<g>
					<path class="st8" d="M10108.6,192.3c0,0,0.1,1.9,0.1,5.3c0,3.6,0.1,8.6,0.1,15.3c0.1,13.5,0.2,33.2,0.3,58.7
						c0.2,50.9,0.3,124.5,0.6,215.6l-1.1-1.1c15.2,0,31.9-0.1,49-0.1h1.2v1.2c0,16.7,0.1,34.8,0.1,53.6l-2.1-0.8
						c16.8-16.8,34.9-34.9,53.5-53.6l0.3-0.4h0.5c129.6-0.1,281.5-0.1,443.2-0.2c12.7,0,25.4,0,38,0l-1.5,1.5
						c0-104,0.1-203.4,0.1-294.9l1.4,1.4c-170.8-0.3-316.5-0.5-419.7-0.7c-51.6-0.2-92.5-0.3-120.7-0.3c-14-0.1-24.8-0.2-32.2-0.2
						c-3.6,0-6.3-0.1-8.4-0.1C10109.6,192.4,10108.6,192.3,10108.6,192.3s0.9-0.1,2.7-0.1c1.9,0,4.7-0.1,8.2-0.1
						c7.4,0,18-0.1,31.9-0.2c28.1-0.1,68.8-0.3,120.3-0.3c103.3-0.2,249.4-0.4,420.6-0.7h1.4v1.4c0,91.5,0.1,190.9,0.1,294.9v1.5
						h-1.5c-12.6,0-25.2,0-38,0c-161.7-0.1-313.5-0.2-443.2-0.2l0.9-0.4c-18.7,18.6-36.8,36.7-53.6,53.5l-2.1,2.1v-3
						c0-18.7,0.1-37,0.1-53.6l1.2,1.2c-17.2,0-33.7-0.1-49-0.1h-1.1v-1.1c0.3-91.4,0.4-165.2,0.6-216.3c0.1-25.4,0.2-45,0.3-58.4
						c0.1-6.6,0.1-11.6,0.1-15.1C10108.6,194,10108.6,192.3,10108.6,192.3z"/>
				</g>
			</g>
		</g>
		<g>
			<g>
				<path class="st8" d="M10594,282.3c0,0.8-87.3,1.5-194.8,1.5c-107.6,0-194.9-0.7-194.9-1.5s87.3-1.5,194.9-1.5
					C10506.7,280.8,10594,281.5,10594,282.3z"/>
			</g>
		</g>
		<g>
			<g>
				<path class="st8" d="M10594,324.4c0,0.8-87.3,1.5-194.8,1.5c-107.6,0-194.9-0.7-194.9-1.5s87.3-1.5,194.9-1.5
					C10506.7,323,10594,323.7,10594,324.4z"/>
			</g>
		</g>
		<g>
			<g>
				<path class="st8" d="M10594,366.6c0,0.8-87.3,1.5-194.8,1.5c-107.6,0-194.9-0.7-194.9-1.5s87.3-1.5,194.9-1.5
					C10506.7,365.1,10594,365.8,10594,366.6z"/>
			</g>
		</g>
	</g>
	<g>
		<g>
			<g>
				<polygon class="st3" points="9233.3,-363.7 8819.5,-363.7 8819.5,-68.8 9130.7,-68.8 9184.2,-15.2 9184.2,-68.8 9233.3,-68.8 
									"/>
			</g>
			<g>
				<g>
					<path class="st8" d="M9233.3-363.7c0,0,0.1,1.7,0.2,5.2c0,3.6,0.1,8.7,0.2,15.4c0.1,13.6,0.2,33.6,0.3,59
						c0.2,51.4,0.3,125.2,0.6,215.4v1.2h-1.2c-15.3,0-31.9,0.1-49,0.1l1.3-1.3c0,16.7,0,34.9,0.1,53.6v3.2l-2.3-2.3
						c-16.9-16.9-35-35-53.6-53.5l1,0.4c-84.1,0-176.6,0.1-273.3,0.1c-12.8,0-25.4,0-38,0h-1.5v-1.5c0.1-106.2,0.1-206.4,0.2-294.9
						v-1.4h1.4c123.1,0.3,226.7,0.5,299.6,0.7c36.2,0.2,64.8,0.3,84.4,0.3c9.6,0.1,17.1,0.1,22.2,0.2c2.5,0,4.3,0.1,5.7,0.1
						C9232.6-363.7,9233.3-363.7,9233.3-363.7s-0.7,0.1-2,0.1c-1.4,0-3.3,0.1-5.8,0.1c-5.2,0-12.7,0.1-22.5,0.2
						c-19.7,0.1-48.4,0.2-84.7,0.3c-72.6,0.2-176,0.4-298.7,0.7l1.4-1.4c0.1,88.5,0.1,188.7,0.2,294.9l-1.5-1.5c12.5,0,25.2,0,38,0
						c96.7,0,189.1,0.1,273.3,0.1h0.6l0.4,0.4c18.6,18.6,36.6,36.7,53.5,53.6l-2.3,0.9c0-18.7,0.1-36.8,0.1-53.6v-1.3h1.3
						c17.1,0,33.7,0.1,49,0.1l-1.2,1.2c0.3-89.9,0.5-163.5,0.6-214.7c0.2-25.6,0.3-45.6,0.3-59.3c0.1-6.8,0.1-11.9,0.2-15.6
						C9233.2-361.9,9233.3-363.7,9233.3-363.7z"/>
				</g>
			</g>
		</g>
		<g>
			<g>
				<path class="st8" d="M8915.2-273.7c0-0.8,49.8-1.5,111.2-1.5c61.4,0,111.2,0.7,111.2,1.5s-49.8,1.5-111.2,1.5
					C8965-272.2,8915.2-272.9,8915.2-273.7z"/>
			</g>
		</g>
		<g>
			<g>
				<path class="st8" d="M8915.2-231.6c0-0.8,49.8-1.5,111.2-1.5c61.4,0,111.2,0.7,111.2,1.5c0,0.8-49.8,1.5-111.2,1.5
					C8965-230.1,8915.2-230.8,8915.2-231.6z"/>
			</g>
		</g>
		<g>
			<g>
				<path class="st8" d="M8915.2-189.4c0-0.8,49.8-1.5,111.2-1.5c61.4,0,111.2,0.7,111.2,1.5c0,0.8-49.8,1.5-111.2,1.5
					C8965-187.9,8915.2-188.6,8915.2-189.4z"/>
			</g>
		</g>
	</g>
	<g>
		<g>
			<g>
				<polygon class="st3" points="9700.9,-593 9415.1,-593 9415.1,-307.2 9442.4,-307.2 9442.4,-264.6 9485,-307.2 9700.9,-307.2 
									"/>
			</g>
			<g>
				<g>
					<path class="st8" d="M9700.9-593c0,0,0.1,1.7,0.2,5.1c0,3.6,0.1,8.5,0.2,15.1c0.1,13.4,0.2,33,0.3,57.8
						c0.2,50.1,0.4,121.7,0.7,207.8v1.3h-1.3c-64.2,0.1-137.4,0.2-215.9,0.2l1-0.4c-13.5,13.5-27.9,28-42.5,42.6l-2.5,2.5v-3.6
						c0-12.6,0-26.1,0-39.7c0-0.9,0-1.9,0-2.8l1.5,1.5c-9.2,0-18.3,0-27.3,0h-1.5v-1.5c0.1-104.9,0.2-202.7,0.3-285.8v-1.3h1.3
						c86.1,0.3,157.6,0.5,207.8,0.7c24.9,0.2,44.3,0.3,57.8,0.3c6.5,0.1,11.6,0.1,15.1,0.2C9699.2-593.1,9700.9-593,9700.9-593
						s-1.9,0.1-5.3,0.2c-3.6,0-8.7,0.1-15.4,0.2c-13.5,0.1-33.1,0.2-58.1,0.3c-50,0.2-121.3,0.4-207,0.7l1.3-1.3
						c0.1,83.1,0.2,180.9,0.3,285.8l-1.5-1.5c9,0,18.1,0,27.3,0h1.5v1.5c0,0.9,0,1.9,0,2.8c0,13.6,0,27.1,0,39.7l-2.5-1
						c14.6-14.6,29.1-29,42.6-42.5l0.4-0.4h0.6c78.5,0.1,151.8,0.2,215.9,0.2l-1.3,1.3c0.3-85.8,0.5-157.1,0.7-207.1
						c0.2-24.9,0.3-44.6,0.3-58c0.1-6.6,0.1-11.8,0.2-15.4C9700.8-591.1,9700.9-593,9700.9-593z"/>
				</g>
			</g>
		</g>
		<g>
			<g>
				<g>
					<g>
						<path class="st7" d="M9573.3-450.1c15-6.3,25.7-21.7,25.8-40c0.1-23.8-18-43.3-40.3-43.4c-22.4-0.1-40.6,19.2-40.7,43
							c-0.1,18.4,10.7,34.1,25.8,40.3c-62.4,9.4-59.5,77.2-59.5,77.2l147.5,0.7C9631.7-372.2,9635.1-440.8,9573.3-450.1z"/>
					</g>
				</g>
			</g>
		</g>
	</g>
	<g>
		<g>
			<g>
				<g>
					<polygon class="st3" points="10316.9,-212.4 10602.7,-212.4 10602.7,73.4 10575.4,73.4 10575.4,116 10532.8,73.4 10316.9,73.4 
											"/>
				</g>
				<g>
					<g>
						<path class="st8" d="M10316.9-212.4c0,0,0.1,1.9,0.2,5.3c0,3.6,0.1,8.7,0.2,15.4c0.1,13.5,0.2,33.1,0.3,58
							c0.2,50,0.4,121.3,0.7,207.1l-1.3-1.3c64.2-0.1,137.4-0.2,215.9-0.2h0.6l0.4,0.4c13.5,13.5,28,27.9,42.6,42.5l-2.5,1
							c0-12.6,0-26.1,0-39.7v-2.8v-1.5h1.5c9.2,0,18.3,0,27.3,0l-1.5,1.5c0.1-104.9,0.2-202.7,0.3-285.8l1.3,1.3
							c-85.7-0.3-157-0.5-207-0.7c-24.9-0.2-44.6-0.3-58.1-0.3c-6.6-0.1-11.8-0.1-15.4-0.2
							C10318.8-212.4,10316.9-212.4,10316.9-212.4s1.7-0.1,5.1-0.2c3.6,0,8.6-0.1,15.1-0.2c13.4-0.1,33-0.2,57.8-0.3
							c50.1-0.2,121.8-0.4,207.8-0.7h1.3v1.3c0.1,83.1,0.2,180.9,0.3,285.8v1.5h-1.5c-9,0-18.1,0-27.3,0l1.5-1.5c0,0.9,0,1.9,0,2.8
							c0,13.6,0,27.1,0,39.7v3.6l-2.5-2.5c-14.6-14.6-29-29.1-42.5-42.6l1,0.4c-78.5-0.1-151.8-0.2-215.9-0.2h-1.3v-1.3
							c0.3-86.2,0.5-157.7,0.7-207.8c0.2-24.8,0.3-44.3,0.3-57.8c0.1-6.5,0.1-11.6,0.2-15.1
							C10316.8-210.7,10316.9-212.4,10316.9-212.4z"/>
					</g>
				</g>
			</g>
		</g>
		<g>
			<g>
				<path class="st9" d="M10529.3-86.8c0-42.8-38.6-76.5-83-68.2c-27.9,5.2-50.1,28-55,55.9c-3,17.4,0.6,33.9,8.5,47.4l0,0l0.2,0.3
					c2.7,4.5,6,7.7,9.4,12.4l40.3,53.4c5,6.7,15.1,6.7,20,0l39.7-52.6c0,0,7.4-8.8,10.1-13.4l0.2-0.2l0,0
					C10525.8-62,10529.3-73.9,10529.3-86.8z M10459.8-56.5c-16.9,0-30.6-13.7-30.6-30.6s13.7-30.6,30.6-30.6
					c16.9,0,30.6,13.7,30.6,30.6C10490.4-70.2,10476.7-56.5,10459.8-56.5z"/>
			</g>
		</g>
	</g>
	<g>
		<g>
			<g>
				<path class="st3" d="M9715.2,768.7h-297.5c-15,0-27.1,12.1-27.1,27.1v274.3c0,15,12.1,27.1,27.1,27.1h244.1l49,49v-49h4.3
					c15,0,27.1-12.1,27.1-27.1V795.8C9742.2,780.9,9730.1,768.7,9715.2,768.7z"/>
			</g>
			<g>
				<g>
					<path class="st8" d="M9715.2,768.7c0,0,2.3-0.3,6.7,0.7c4.2,0.9,10.8,3.7,16,10.9c2.5,3.6,4.4,8.2,4.8,13.5
						c0.3,5.3,0.1,11,0.2,17.2c0.1,12.4,0.1,26.6,0.2,42.5c0.1,31.9,0.2,70.5,0.3,114.7c0,22.2,0.1,45.7,0.1,70.5
						c0,6.2,0,12.5,0,18.9c0,3.2,0,6.3,0,9.6c0.1,3.1,0,6.7-0.9,10c-1.7,6.6-5.9,12.6-11.8,16.5c-2.9,1.9-6.2,3.4-9.6,4.1
						c-3.5,0.8-7,0.7-10.4,0.7l1.3-1.3c0,15.3,0,32,0.1,49v3.3l-2.4-2.3c-15.5-15.5-32-32-49-48.9l1,0.4c-65.1,0-136,0.1-209.5,0.1
						c-11.9,0-23.8,0-35.6-0.1c-6.3-0.2-12.3-2.5-17.1-6.4c-4.7-4-8.3-9.4-9.6-15.4c-0.8-3-0.9-6.2-0.8-9v-8.7c0-5.8,0-11.5,0-17.3
						c0-11.4,0-22.8,0-34.1c0-45,0.1-88.4,0.1-129.8c0-20.7,0-40.8,0.1-60.5c0-4.9,0-9.7,0-14.5v-7.2c0.1-2.5,0.3-5,1-7.4
						c2.5-9.7,10.4-17.4,19.8-19.9c4.7-1.4,9.5-1,13.9-1c4.5,0,9,0,13.4,0c8.9,0,17.6,0,26.1,0.1c17.1,0,33.5,0.1,49.1,0.1
						c62.5,0.2,113.1,0.3,148.1,0.5c17.4,0.1,30.9,0.3,40.3,0.3c4.6,0.1,8,0.1,10.5,0.2C9713.9,768.6,9715.2,768.7,9715.2,768.7
						s-1.2,0.1-3.6,0.2c-2.5,0-5.9,0.1-10.5,0.2c-9.3,0.1-22.8,0.2-40.3,0.3c-35.1,0.1-85.7,0.3-148.1,0.5c-15.6,0-32,0.1-49.1,0.1
						c-8.5,0-17.3,0-26.1,0.1c-4.4,0-8.9,0-13.4,0c-4.6,0.1-9-0.3-13.3,1c-8.5,2.3-15.7,9.4-17.9,18.2c-1.3,4.3-0.8,9-0.9,14
						c0,4.8,0,9.7,0,14.5c0,19.6,0,39.7,0.1,60.5c0,41.3,0.1,84.7,0.1,129.8c0,11.2,0,22.6,0,34.1c0,5.8,0,11.5,0,17.2
						c0.2,5.8-0.5,11.8,0.8,17c1.2,5.4,4.4,10.2,8.6,13.8c4.3,3.5,9.7,5.7,15.3,5.8c11.8,0,23.6,0,35.5,0.1
						c73.6,0,144.4,0.1,209.5,0.1h0.6l0.4,0.4c16.9,16.9,33.4,33.5,48.9,49l-2.3,0.9c0-17,0-33.7,0.1-49v-1.3h1.3
						c3.5,0,6.7,0.1,9.8-0.6s6.1-1.9,8.8-3.7c5.3-3.5,9.1-9,10.7-15c0.8-3,0.9-6,0.8-9.3c0-3.2,0-6.4,0-9.6c0-6.3,0-12.7,0-18.9
						c0.1-24.8,0.1-48.4,0.1-70.5c0.1-44.2,0.3-82.9,0.3-114.7c0.1-15.9,0.1-30.1,0.2-42.5c0-6.2,0.2-11.9,0-17.2
						c-0.3-5.2-2.2-9.6-4.5-13.1c-4.8-7-11.2-9.9-15.4-10.9C9717.5,768.7,9715.1,768.9,9715.2,768.7z"/>
				</g>
			</g>
		</g>
		<g>
			<g>
				<path class="st7" d="M9628.4,1036h-124c-3.6,0-6.5-2.9-6.5-6.5V841c0-3.6,2.9-6.5,6.5-6.5h124c3.6,0,6.5,2.9,6.5,6.5v188.5
					C9634.9,1033.1,9632,1036,9628.4,1036z"/>
			</g>
		</g>
		<g>
			<path class="st13" d="M9516.6,872.5c8.4,0,8.4,6.8,16.7,6.8s8.4-6.8,16.7-6.8s8.4,6.8,16.7,6.8c8.4,0,8.4-6.8,16.7-6.8
				s8.4,6.8,16.7,6.8s8.4-6.8,16.7-6.8"/>
		</g>
		<g>
			<path class="st13" d="M9516.6,907.7c8.4,0,8.4,6.8,16.7,6.8s8.4-6.8,16.7-6.8s8.4,6.8,16.7,6.8c8.4,0,8.4-6.8,16.7-6.8
				s8.4,6.8,16.7,6.8s8.4-6.8,16.7-6.8"/>
		</g>
		<g>
			<path class="st13" d="M9516.6,942.9c8.4,0,8.4,6.8,16.7,6.8s8.4-6.8,16.7-6.8s8.4,6.8,16.7,6.8c8.4,0,8.4-6.8,16.7-6.8
				s8.4,6.8,16.7,6.8s8.4-6.8,16.7-6.8"/>
		</g>
		<g>
			<path class="st13" d="M9516.6,978.2c8.4,0,8.4,6.8,16.7,6.8s8.4-6.8,16.7-6.8s8.4,6.8,16.7,6.8c8.4,0,8.4-6.8,16.7-6.8
				s8.4,6.8,16.7,6.8s8.4-6.8,16.7-6.8"/>
		</g>
	</g>
	<g>
		<g>
			<g>
				<ellipse class="st3" cx="10086.4" cy="-390.5" rx="203.8" ry="203.8"/>
			</g>
			<g>
				<g>
					<path class="st8" d="M10290.2-390.5c0,0-0.2-1.1-0.3-3.3c-0.2-2.3-0.3-5.5-0.7-9.6c-0.2-2.1-0.3-4.5-0.4-7.1
						c-0.3-2.6-0.8-5.4-1.3-8.5c-1-6.2-1.9-13.3-4.2-21.1c-3.6-15.7-11-34.3-22.6-54c-11.7-19.6-28.6-40.1-51.6-57.5
						c-22.9-17.3-51.8-31.9-85.2-37.8c-8.4-1.2-16.8-2.9-25.6-3c-4.4-0.2-8.8-0.6-13.2-0.5c-4.4,0.3-8.9,0.4-13.4,0.7
						c-2.3,0.2-4.5,0.2-6.8,0.4l-6.8,1c-4.5,0.8-9,1.3-13.6,2.2c-9,2.5-18.2,4.2-27,7.9c-9,2.9-17.6,7.4-26.4,11.6
						c-4.3,2.3-8.4,5-12.6,7.5c-4.3,2.4-8.3,5.4-12.2,8.5c-8.2,5.7-15.4,12.7-22.9,19.5c-6.8,7.5-14,14.9-19.8,23.4
						c-12,16.7-22.6,35.3-28.9,55.7c-6.6,20.3-10.1,41.9-10.4,63.8c0.3,22,3.8,43.5,10.4,63.8c1.9,5,3.6,10,5.5,15
						c2.3,4.7,4.6,9.6,6.8,14.3c1.1,2.5,2.4,4.7,3.8,6.9l4.1,6.7l4.1,6.7l4.7,6.3c5.8,8.5,13,15.9,19.8,23.4
						c7.5,6.8,14.7,13.9,22.9,19.5c4,3,7.9,6,12.2,8.5c4.2,2.5,8.3,5.2,12.6,7.5c8.8,4.2,17.3,8.7,26.4,11.6
						c8.8,3.7,18.1,5.5,27,7.9c4.6,0.9,9.1,1.4,13.6,2.2l6.8,1c2.3,0.3,4.5,0.3,6.8,0.4c4.5,0.3,9,0.4,13.4,0.7
						c4.4,0.1,8.8-0.3,13.2-0.5c8.8-0.1,17.3-1.8,25.6-3c33.4-5.9,62.3-20.5,85.2-37.8c23-17.4,39.9-37.9,51.6-57.5
						c11.6-19.7,18.9-38.3,22.6-54c2.4-7.8,3.3-14.9,4.2-21c0.4-3,1-5.9,1.3-8.5c0.2-2.6,0.3-5,0.4-7.1c0.3-4.1,0.5-7.4,0.7-9.6
						C10290.1-389.4,10290.2-390.5,10290.2-390.5s0.1,1.1,0,3.3c-0.1,2.3-0.2,5.5-0.3,9.7c-0.1,2.1-0.2,4.6-0.3,7.2
						c-0.3,2.6-0.8,5.5-1.2,8.5c-0.8,6.2-1.7,13.4-4,21.1c-3.5,15.9-10.7,34.7-22.2,54.5c-11.7,19.9-28.6,40.7-51.8,58.3
						c-23.1,17.5-52.3,32.5-86.1,38.6c-8.5,1.3-17,3-25.9,3c-4.4,0.2-8.9,0.6-13.4,0.5c-4.5-0.3-9-0.4-13.5-0.7
						c-2.3-0.2-4.6-0.2-6.8-0.4l-6.8-1c-4.6-0.8-9.2-1.3-13.8-2.2c-9-2.5-18.4-4.2-27.4-7.9c-9.2-3-17.8-7.4-26.8-11.8
						c-4.3-2.4-8.5-5.1-12.8-7.6c-4.4-2.5-8.4-5.5-12.4-8.5c-8.4-5.8-15.6-12.9-23.3-19.8c-6.9-7.6-14.2-15.1-20.1-23.8l-4.7-6.3
						l-4.1-6.8l-4.1-6.8c-1.4-2.2-2.8-4.6-3.8-7c-2.3-4.8-4.7-9.6-7-14.5c-1.9-5.1-3.7-10.1-5.6-15.2c-6.7-20.6-10.3-42.5-10.6-64.8
						c0.3-22.2,3.9-44.1,10.6-64.8c6.5-20.7,17.2-39.6,29.3-56.5c6-8.6,13.2-16.2,20.1-23.8c7.6-6.9,15-14,23.3-19.8
						c4-3,8-6.1,12.4-8.5c4.3-2.5,8.5-5.2,12.8-7.6c8.9-4.2,17.6-8.8,26.8-11.8c9-3.7,18.3-5.5,27.4-7.9c4.6-0.9,9.2-1.4,13.8-2.2
						l6.8-1c2.3-0.3,4.6-0.3,6.8-0.4c4.6-0.3,9-0.4,13.5-0.7c4.5-0.1,9,0.4,13.4,0.5c8.9,0.1,17.4,1.9,25.9,3
						c33.8,6.1,63,21.1,86.1,38.6c23.2,17.7,40.1,38.5,51.8,58.3c11.6,20,18.9,38.7,22.2,54.6c2.3,7.8,3.1,15,4,21.1
						c0.4,3.1,0.9,5.9,1.2,8.5c0.1,2.6,0.2,5,0.3,7.2c0.2,4.1,0.3,7.4,0.3,9.7C10290.3-391.6,10290.2-390.5,10290.2-390.5z"/>
				</g>
			</g>
		</g>
		<g>
			<path class="st8" d="M10049.3-311.7c9.7-0.9,15.9-2.5,18.4-5c2.5-2.4,3.8-9,3.8-19.5v-65c0-5.9-0.4-10-1.3-12.3
				c-1.4-3.7-4.2-5.6-8.6-5.6c-1,0-1.9,0.1-3,0.3c-0.9,0.2-3.7,0.9-8.3,2.2v-4.2l5.8-1.9c15.9-5.2,27-9,33.2-11.8
				c2.5-1.1,4.1-1.6,4.9-1.6c0.2,0.7,0.3,1.4,0.3,2v97.9c0,10.4,1.3,16.8,3.7,19.5c2.5,2.6,8.1,4.3,17,5.1v3.8h-66.3v-3.9H10049.3z
				 M10070.9-494c2.7-2.8,6.1-4.2,10.1-4.2c3.9,0,7.3,1.4,10.1,4.1s4.1,6.2,4.1,10.1c0,3.9-1.4,7.2-4.1,10s-6.1,4.1-10.1,4.1
				c-4,0-7.4-1.4-10.1-4.1s-4.1-6.1-4.1-10C10066.9-487.8,10068.2-491.2,10070.9-494z"/>
		</g>
		<g>
			<g>
				<path class="st3" d="M9949.3-165.2c0,17.7-14.4,32-32,32s-32-14.4-32-32s14.4-32,32-32S9949.3-182.8,9949.3-165.2z"/>
			</g>
			<g>
				<g>
					<path class="st8" d="M9949.3-165.2c-0.3,0-0.3-2.9-1.6-7.7c-1.4-4.7-4.6-11.7-11.8-16.9c-6.9-5.3-18.3-8.3-29.2-4.1
						c-10.8,3.7-20.2,15.3-20.1,28.8c-0.1,13.5,9.2,25,20.1,28.8c11,4.1,22.3,1.2,29.2-4.1c7.2-5.3,10.4-12.2,11.8-16.9
						C9949.1-162.3,9949-165.2,9949.3-165.2c0.1,0,0.2,0.7,0.2,2c0.1,1.4-0.1,3.4-0.7,5.9c-1,5-4.1,12.4-11.6,18.3
						c-7.2,5.9-19.4,9.4-31.5,5.1c-5.9-2-11.6-6-15.6-11.6c-4.1-5.5-6.5-12.5-6.5-19.8c0.1-7.3,2.5-14.4,6.6-19.8
						c4.1-5.6,9.7-9.6,15.6-11.6c12-4.3,24.2-0.8,31.5,5.1c7.4,5.9,10.6,13.4,11.6,18.3c0.5,2.5,0.7,4.6,0.7,5.9
						S9949.4-165.2,9949.3-165.2z"/>
				</g>
			</g>
		</g>
	</g>
</g>
<g>
	<polygon class="st9" points="8041.8,255.3 8095.5,430.7 8220.6,296.4 	"/>
	<polygon class="st9" points="8189,389.8 8221.5,495.6 8296.9,414.6 	"/>
	<polygon class="st9" points="8274.6,469.9 8307.1,575.6 8382.5,494.6 	"/>
</g>
<g>
	<polygon class="st9" points="10863.8,948 10957,789.8 10773.4,788.1 	"/>
	<polygon class="st9" points="10863.8,748.5 10920,653.1 10809.2,652.1 	"/>
	<polygon class="st9" points="10865,631.2 10921.3,535.9 10810.6,534.9 	"/>
</g>
</svg>
