<?xml version="1.0" encoding="utf-8"?>
<!-- Generator: Adobe Illustrator 23.1.0, SVG Export Plug-In . SVG Version: 6.00 Build 0)  -->
<svg version="1.1" xmlns="http://www.w3.org/2000/svg" xmlns:xlink="http://www.w3.org/1999/xlink" x="0px" y="0px"
	 viewBox="0 0 1130 831.6" style="enable-background:new 0 0 1130 831.6;" xml:space="preserve">
<style type="text/css">
	.st0{opacity:0.1;fill:#5BC8DE;enable-background:new    ;}
	.st1{fill:#D0D2D5;}
	.st2{opacity:0.1;enable-background:new    ;}
	.st3{fill:#444053;}
	.st4{opacity:0.1;fill:#FFFFFF;enable-background:new    ;}
	.st5{fill:#5BC8DE;}
	.st6{fill:#FFFFFF;}
	.st7{opacity:0.3;fill:#5BC8DE;enable-background:new    ;}
	.st8{fill:#3F3D56;}
	.st9{fill:#D4D4D4;stroke:#1A2E35;stroke-linecap:round;stroke-miterlimit:10;}
	.st10{fill:#ADADAD;stroke:#1A2E35;stroke-linecap:round;stroke-miterlimit:10;}
	.st11{fill:#FFFFFF;stroke:#1A2E35;stroke-linecap:round;stroke-miterlimit:10;}
	.st12{fill:#FFFFFF;stroke:#1A2E35;stroke-width:3;stroke-linecap:round;stroke-miterlimit:10;}
	.st13{fill:none;stroke:#1A2E35;stroke-linecap:round;stroke-miterlimit:10;}
	.st14{fill:#7A7A7A;stroke:#1A2E35;stroke-linecap:round;stroke-miterlimit:10;}
	.st15{opacity:0.1;fill:#FFFFFF;stroke:#1A2E35;stroke-width:2;stroke-miterlimit:10;enable-background:new    ;}
	.st16{fill:none;stroke:#878787;stroke-linecap:round;stroke-miterlimit:10;}
	.st17{fill:#5BC8DE;stroke:#1A2E35;stroke-miterlimit:10;}
	.st18{fill:none;stroke:#1A2E35;stroke-width:3;stroke-linecap:round;stroke-miterlimit:10;}
	.st19{fill:#A0616A;}
	.st20{fill:#2F2E41;}
	.st21{opacity:0.2;enable-background:new    ;}
</style>
<g id="b847c0d8-de26-4ae3-b269-ef35a8ef771f">
	<title>youtube tutorial</title>
	<path class="st0" d="M656.5,124.7c-72.4-2.5-141.4-25.9-207.3-51.5S318.1,19.3,247.4,5.7C201.9-3,149.9-4.2,113.2,20.1
		C78,43.6,66.6,84.1,60.5,121.7c-4.6,28.3-7.3,58,5.3,84.5c8.8,18.4,24.3,33.8,35.1,51.4c37.4,61.3,11,136.8-29.6,196.6
		c-19,28.1-41.1,54.8-55.8,84.7C0.7,568.8-6.1,603,6.8,633.4c12.8,30.2,43.1,52.9,76,68.8c66.8,32.4,145.5,41.7,222.3,46.9
		c169.9,11.6,340.8,6.6,511.2,1.6c63.1-1.9,126.4-3.8,188.4-13.5c34.4-5.4,70-14,95-34.8c31.8-26.3,39.6-70.9,18.3-104
		c-35.7-55.4-134.3-69.2-159.3-128.6c-13.7-32.7,0.4-69.2,20.3-99.5c42.8-65.1,114.5-122.2,118.3-196.6
		c2.6-51.1-31.9-102.3-85.2-126.5c-55.9-25.3-133.4-22.2-174.6,19.8C795.1,110.3,720.5,126.9,656.5,124.7z"/>
	<polygon class="st1" points="664.2,755.9 469.2,753.4 469.8,748.4 479.2,665.9 650.4,665.9 663,748.4 664,754.6 	"/>
	<polygon class="st2" points="664,754.6 566.7,754.6 469.2,753.4 469.8,748.4 663,748.4 	"/>
	<rect x="436.7" y="749.6" class="st1" width="258.8" height="6.3"/>
	<path class="st3" d="M942.3,170.4c0-9-7.2-16.3-16.2-16.4c0,0,0,0,0,0H203.5c-9,0-16.2,7.4-16.2,16.3c0,0,0,0,0,0v438h755V170.4z"
		/>
	<path class="st1" d="M187.3,604v51.3c0,8.9,7.3,16.2,16.2,16.2l0,0h722.6c8.9,0,16.2-7.3,16.2-16.2V604H187.3z"/>
	<rect x="218.6" y="181.5" class="st4" width="696.3" height="393.8"/>
	<path class="st5" d="M568.5,652.1c5.2,0,10.1-2.4,13.3-6.4l0,0c0.5-0.6,0.9-1.3,1.3-1.9l-9.3-1.5l10,0.1c1.9-4.2,2.1-9.1,0.3-13.4
		l-13.4,7l12.4-9.1c-4.7-8-15-10.8-23.1-6.1s-10.8,15-6.1,23.1c0.4,0.7,0.8,1.3,1.3,1.9l0,0C558.5,649.7,563.4,652.1,568.5,652.1z"
		/>
	<polygon class="st2" points="585.4,671.5 663.2,749.6 651.3,671.5 	"/>
	<rect x="219" y="181.6" class="st6" width="696" height="23"/>
	<path class="st5" d="M222.8,185.6h18.4c0.4,0,0.8,0.3,0.8,0.8v12.4c0,0.4-0.3,0.8-0.8,0.8h-18.4c-0.4,0-0.8-0.3-0.8-0.8v-12.4
		C222,185.9,222.3,185.6,222.8,185.6z"/>
	<path class="st7" d="M460.6,185.6h208.8c0.3,0,0.6,0.3,0.6,0.6V199c0,0.3-0.3,0.6-0.6,0.6H460.6c-0.3,0-0.6-0.3-0.6-0.6v-12.8
		C460,185.8,460.3,185.6,460.6,185.6z"/>
	<path class="st3" d="M663.8,194h-0.5l-0.2-0.2c0.6-0.8,1-1.7,1-2.7c0-2.3-1.9-4.1-4.2-4.1c-2.3,0-4.1,1.9-4.1,4.2
		c0,2.3,1.9,4.1,4.1,4.1c1,0,2-0.4,2.7-1l0.2,0.2v0.5l3.2,3.2l1-1L663.8,194z M659.9,194c-1.6,0-2.9-1.3-2.9-2.9s1.3-2.9,2.9-2.9
		s2.9,1.3,2.9,2.9c0,0,0,0,0,0C662.8,192.7,661.5,194,659.9,194C660,194,659.9,194,659.9,194z"/>
	<circle class="st5" cx="905" cy="192.6" r="7"/>
	<ellipse class="st5" cx="957.1" cy="758.5" rx="59.5" ry="11.4"/>
	<ellipse class="st8" cx="956.1" cy="753.7" rx="6.9" ry="9.1"/>
	<ellipse class="st8" cx="956.1" cy="742.6" rx="6.9" ry="9.1"/>
	<ellipse class="st8" cx="956.1" cy="731.5" rx="6.9" ry="9.1"/>
	<ellipse class="st8" cx="956.1" cy="720.5" rx="6.9" ry="9.1"/>
	<ellipse class="st8" cx="956.1" cy="709.4" rx="6.9" ry="9.1"/>
	<ellipse class="st8" cx="956.1" cy="698.3" rx="6.9" ry="9.1"/>
	<ellipse class="st8" cx="956.1" cy="687.2" rx="6.9" ry="9.1"/>
	<path class="st5" d="M982,611.4c0.9-1.2,1.8-2.5,2.6-3.8l-18.2-3l19.7,0.2c3.8-8.3,4-17.8,0.6-26.3l-26.4,13.7l24.3-17.9
		c-9.2-15.9-29.5-21.3-45.3-12.1c-15.9,9.2-21.3,29.5-12.1,45.3c0.8,1.4,1.7,2.7,2.6,3.9c-1.5,1.9-2.7,3.9-3.8,6l23.6,12.3
		l-25.2-8.5c-3.6,10.6-1.6,22.3,5.3,31.1c-11.3,14.4-8.8,35.2,5.6,46.6s35.2,8.8,46.6-5.6c9.5-12,9.5-29,0-41
		C991.5,640.3,991.5,623.4,982,611.4L982,611.4z"/>
	<path class="st2" d="M922.8,631.9c0,7.4,2.5,14.7,7.1,20.5c-11.3,14.4-8.8,35.2,5.6,46.6c14.4,11.3,35.2,8.8,46.6-5.6
		c9.5-12,9.5-29,0-41C986.5,646.8,922.8,628.2,922.8,631.9z"/>
	<ellipse class="st0" cx="297" cy="810.6" rx="99" ry="21"/>
	<g>
		<g>
			<rect x="645.8" y="394.5" class="st3" width="146.5" height="147.9"/>
			<rect x="683.8" y="432.8" class="st5" width="70.6" height="71.3"/>
			<g>
				<path class="st3" d="M717.5,470.1l-1.7,2.8v9.7h-3.2v-28.8h3.2v13.9l7.6-13.9h3.3l-7.3,13.1l7.5,15.7h-3.3L717.5,470.1z"/>
			</g>
		</g>
		<g>
			<rect x="493.6" y="394.5" class="st9" width="146.5" height="147.9"/>
			<g>
				<path class="st10" d="M640.4,542.1v-24.5c-7.6-3.4-28.9-12.7-39.2-16.5c-12.7-4.7-28.3-14.1-56.5-8.3c0,0-37.3,20.3-44.9,23.2
					c-3,1.1-5,2-6.4,2.6v23.6H640.4z"/>
				<polyline class="st10" points="523.2,512.7 518.2,526.4 535.2,530 523.8,541.2 				"/>
				<path class="st10" d="M611.6,538l2.3-4l-13-6.5l14.5-7.6l-6.4-15.8c-2.9-1.2-5.6-2.2-7.8-3.1c-12.7-4.7-28.3-14.1-56.5-8.3
					c0,0-8.1,4.4-17.6,9.4l-2.5,6.9"/>
				<path class="st11" d="M553.9,542.1h27.8c1.8-4.6,3.6-10.1,5.3-16c5.1-18.5,1.4-29.7,1.4-29.7l-46.7-1.1c0,0,0,17,7.6,36.6
					C550.9,535.8,552.4,539.2,553.9,542.1z"/>
				<polygon class="st5" points="563.9,542.1 579,542.1 574.3,533.7 581.6,520.3 571.1,505.4 555.5,519.2 566.4,535.1 				"/>
				<path class="st11" d="M541.7,495.3c0,0,0,17,7.6,36.6c0.3,0.8,0.6,1.5,0.9,2.2l18.7-19.3l15.8,18.9c0.8-2.4,1.6-5,2.3-7.6
					c5.1-18.5,1.4-29.7,1.4-29.7L541.7,495.3z"/>
				<path class="st11" d="M543.5,497.4c0,0,4,12.7,10.5,18.1c6.5,5.4,17.9,3.5,22.5,1.1c5.9-3.2,13.9-16.6,11.6-16.7
					C585,499.9,543.5,497.4,543.5,497.4z"/>
				<g>
					<path class="st11" d="M532.3,455.1c0,0-4-6.2-7.2-4.3c-3.3,1.8-4,8-2.5,14.9c1.4,6.9,12.7,9.8,12.7,9.8L532.3,455.1z"/>
					<path class="st11" d="M597.9,455.1c0,0,4-6.2,7.2-4.3c3.3,1.8,4,8,2.5,14.9c-1.4,6.9-12.7,9.8-12.7,9.8L597.9,455.1z"/>
					<path class="st11" d="M542.8,418.5c0,0-7.6,2.9-9.8,8.3s-0.7,32.6,0.7,41.7c1.4,9.1,4,22.8,6.5,28.3c2.5,5.4,20.3,16.3,33,12.7
						c12.7-3.6,21-11.6,21.4-21c0.4-9.4,5.4-52.2,5.4-57.6s-22.5-18.1-33.7-19.6C555.1,409.8,542.8,418.5,542.8,418.5z"/>
					<path class="st12" d="M543.8,445.3c0,0,4.6-2.9,12.1-1.7"/>
					<path class="st12" d="M573.1,445c0,0,9.1-2.1,15.2,1.2"/>
					<g>
						<path class="st13" d="M558.6,464.1h-18.1c-1.7,0-3.1-1.4-3.1-3.1v-9.4c0-1.7,1.4-3.1,3.1-3.1h18.1c1.7,0,3.1,1.4,3.1,3.1v9.4
							C561.7,462.7,560.3,464.1,558.6,464.1z"/>
						<path class="st13" d="M591.2,464.1h-18.1c-1.7,0-3.1-1.4-3.1-3.1v-9.4c0-1.7,1.4-3.1,3.1-3.1h18.1c1.7,0,3.1,1.4,3.1,3.1v9.4
							C594.3,462.7,592.9,464.1,591.2,464.1z"/>
						<line class="st13" x1="558.4" y1="448.5" x2="573.2" y2="448.5"/>
						<line class="st13" x1="561.7" y1="451.8" x2="570" y2="451.8"/>
						<line class="st13" x1="537.4" y1="451.8" x2="532.3" y2="451.8"/>
						<line class="st11" x1="594.3" y1="451.8" x2="597.5" y2="451.8"/>
					</g>
					<path class="st3" d="M553,456.5c0,1.6-0.7,2.9-1.6,2.9c-0.9,0-1.6-1.3-1.6-2.9c0-1.6,0.7-2.9,1.6-2.9
						C552.2,453.6,553,454.9,553,456.5z"/>
					<ellipse class="st3" cx="582.7" cy="456.5" rx="1.6" ry="2.9"/>
					<path class="st13" d="M556.9,461.2c0,0-6.2,8-10.9,8.7"/>
					<path class="st13" d="M577.6,460.8c0,0,4.7,6.2,10.9,8"/>
					<path class="st3" d="M561.3,476.1c0,0-10.5,1.4-13,6.9c-2.2,4.8-0.5,16.4,0.9,21.5c6.9,4,16.4,7.1,24.1,4.9
						c4.9-1.4,9.1-3.4,12.5-6c2-5.9,2.6-15.6-1.3-20.8C580.5,477.1,568.2,475,561.3,476.1z"/>
					<path class="st11" d="M566.4,479.3c0,0-11.6,2.2-12.7,4.7c-1.1,2.5,0,7.2,2.2,9.8c2.2,2.5,4.3,3.6,6.2,2.2c1.8-1.4,0.4-4,3.6-4
						c3.3,0,4.3-0.4,5.4,0.7c1.1,1.1,0.4,3.6,4.3,2.9c4-0.7,5.8-4.7,6.2-8.7C581.9,482.9,571.8,479,566.4,479.3z"/>
					<path class="st13" d="M556.6,485.5c0,0,10.1,2.9,20.3-0.4"/>
					<path class="st11" d="M557.7,469.5c0,0,1.4,8.3,8.7,8c7.2-0.4,8.7-6.9,8.7-6.9"/>
					<path class="st3" d="M592.1,442l1.1,5.4l1.3,2c0,0,0.1,8.5,2.3,8.1c2.2-0.4,5.8-16.7,5.8-19.6S591.7,438.4,592.1,442z"/>
					<path class="st3" d="M541.4,425.3c0,0,12.3,11.2,29.3,17c17,5.8,35.5-0.4,36.9-7.6c1.4-7.2-18.5-29.7-38-35.9
						c-19.6-6.2-34.1,17.8-34.1,17.8s-6.9-0.4-9.4,6.5c-2.5,6.9,0,15.2,1.8,19.6c1.8,4.3,2.5,11.6,2.5,11.6s0.7,3.3,1.8,0.7
						c1.1-2.5,2.2-8.3,2.2-8.3s10.1-5.4,10.1-10.5C544.6,431.1,541.4,425.3,541.4,425.3z"/>
				</g>
			</g>
			<rect x="494.7" y="533" class="st14" width="39" height="9.2"/>
			<rect x="493.6" y="394.5" class="st13" width="146.5" height="147.9"/>
		</g>
		<g>
			<rect x="341.4" y="394.5" class="st15" width="146.5" height="147.9"/>
			<g>
				<g>
					<path class="st10" d="M440.9,517.7c-10.8-4.5-24.4-6.3-30.3-7c-5.9-0.7-16.4,1.4-16.4,1.4s-36.9,19.9-49.1,23.4
						c-1.3,0.4-2.5,0.7-3.6,1v5.6h146.6v-4.9C475.5,532,449,521.1,440.9,517.7z"/>
					<path class="st13" d="M390.5,542.1h42.7c5.9-5.2,9.5-12.5,9.5-20.6c0-1.1-0.1-2.1-0.2-3.2c-0.6-0.2-1.1-0.5-1.5-0.6
						c-10.8-4.5-24.4-6.3-30.3-7c-5.9-0.7-16.4,1.4-16.4,1.4s-5.6,3-13.1,6.9c-0.1,0.8-0.1,1.7-0.1,2.5
						C381,529.6,384.6,536.9,390.5,542.1z"/>
					<line class="st13" x1="384.4" y1="533.7" x2="391.8" y2="528.5"/>
				</g>
				<path class="st11" d="M391.1,504.4c0,0,0.7,13.2,1,16c0.3,2.8,11.5,13.6,17.8,16c6.3,2.4,15.7-6.3,19.2-10.1
					c3.5-3.8,4.5-22,4.5-22s-14.3,9.4-22,7.7C404,510.3,391.1,504.4,391.1,504.4z"/>
				<path class="st3" d="M410.6,511.8c-7.7-2-19.5-7.4-19.5-7.4s0.7,13.2,1,16c0.2,1.2,2.5,4.1,5.5,7c0.8-0.1,1.7-0.3,2.5-0.5
					c9.6-2.5,20.2-7.1,20.2-7.1L410.6,511.8z"/>
				<g>
					<path class="st11" d="M380.6,472.4c0,0-3.1-4.2-5.9-0.3c-2.8,3.8,0.7,10.8,2.1,14.6c1.4,3.8,7,3.8,7,3.8L380.6,472.4z"/>
					<path class="st11" d="M439.7,472.5c0,0,2.9-4.4,5.9-0.7c3,3.6,0,10.8-1.1,14.7c-1.1,3.9-6.7,4.3-6.7,4.3L439.7,472.5z"/>
					<path class="st11" d="M380.6,472.4c0,0,3.1,23,5.2,28.2c2.1,5.2,17.1,18.5,18.5,19.9c1.4,1.4,9.8,4.9,13.9,3.1
						c4.2-1.7,7.7-7,7.7-7s11.2-12.9,12.5-18.1c1.4-5.2,1.4-34.2,1.4-34.2s-1.7-18.5-4.2-21.6s-23-4.9-34.9-5.2
						c-11.8-0.3-19.5-0.3-20.2,4.9C379.9,447.6,380.6,472.4,380.6,472.4z"/>
					<path class="st5" d="M432.5,445.2c0,0-1,5.6,0,7.7c1,2.1,3.8,5.6,3.8,5.6s-0.3,12.9,0,13.9c0.3,1,2.4,2.4,2.8,0
						c0.3-2.4,1.7-11.5,2.4-13.6c0.7-2.1,3.1-6.6,3.1-12.5s-4.5-9.1-4.5-9.1L432.5,445.2z"/>
					<g>
						<path class="st5" d="M379.6,468.5c0,0-5.2-17.4-7.3-27.2c-2.1-9.8,0.7-20.6,5.9-24c5.2-3.5,12.2-4.2,12.2-4.2s7-8,17.1-9.4
							c10.1-1.4,17.4,0.7,23.7,4.9c6.3,4.2,13.6,3.1,18.5,3.1c4.9,0,5.6,13.2,0,20.2c-5.6,7-16.7,15.7-26.1,17.8
							c-9.4,2.1-22.3-1.7-27.5-4.2c-5.2-2.4-7.7-4.2-7.7-4.2s4.5,8,2.4,10.8c-2.1,2.8-7,7.7-7,7.7s1.7,13.6,0,15
							C382,476.2,379.6,468.5,379.6,468.5z"/>
						<g>
							<path class="st13" d="M393.4,432.8c6.1,4.6,16,10.1,28.5,9.6c21.3-0.7,27.3-20.6,27.3-20.6"/>
							<path class="st13" d="M386.8,426.8c0,0,0.9,1,2.5,2.5"/>
							<path class="st13" d="M438.5,431.8c4.1-1.9,6.2-4.6,6.2-4.6"/>
							<path class="st13" d="M395,420.8c0,0,12.8,7.1,27.3,11.7c4.3,1.4,8,1.5,11,0.9"/>
						</g>
					</g>
					<path class="st13" d="M416.9,465.7c0,0-1.7,12.5-1,17.1c0.7,4.5,2.8,9.8-1,10.5c-3.8,0.7-9.1-2.8-8.4-5.2"/>
					<path class="st13" d="M399.8,494.7c0,0,6.3,5.9,14.3,5.2c8-0.7,11.8-6.6,11.8-6.6"/>
					<ellipse class="st3" cx="400.5" cy="473.1" rx="1.7" ry="3.1"/>
					<path class="st3" d="M425.2,473.1c0,1.7-0.8,3.1-1.7,3.1c-1,0-1.7-1.4-1.7-3.1s0.8-3.1,1.7-3.1
						C424.4,469.9,425.2,471.3,425.2,473.1z"/>
					<path class="st5" d="M392.6,468c0,0,2.1-2.1,6.6-2.8c4.5-0.7,9.1,1.7,9.1,0.3c0-1.4-4.5-4.9-9.8-4.9S390.9,466.6,392.6,468z"/>
					<path class="st5" d="M430.8,465.2c0,0-2.1-2.1-6.6-2.8c-4.5-0.7-9.1,1.7-9.1,0.3c0-1.4,4.5-4.9,9.8-4.9
						C430.1,457.9,432.5,463.8,430.8,465.2z"/>
				</g>
				<line class="st13" x1="395.3" y1="478.3" x2="401.4" y2="479.7"/>
				<line class="st13" x1="421.6" y1="479.4" x2="428.7" y2="478"/>
			</g>
			<rect x="342.6" y="533" class="st14" width="39" height="9.2"/>
			<rect x="341.4" y="394.5" class="st13" width="146.5" height="147.9"/>
		</g>
		<g>
			<rect x="645.8" y="241.2" class="st15" width="146.5" height="147.9"/>
			<g>
				<path class="st3" d="M683.8,320c0,0-7.5,7.1-12.9,17.3c-5.4,10.2,3.1,26.5,18,31.2c14.9,4.7,49.5,7.1,59-2.7
					c9.5-9.8,11.2-25.1,7.1-32.6c-4.1-7.5-12.2-9.2-20.7-17.3C725.8,307.8,700.4,301,683.8,320z"/>
				<path class="st11" d="M678.7,308.5c0,0-3.7-1-3.7,4.7c0,5.8,3.7,12.5,6.8,13.9c3.1,1.4,5.8-1,5.8-1l-4.1-17.6H678.7z"/>
				<path class="st11" d="M746.5,308.5c0,0,3.7-1,3.7,4.7c0,5.8-3.7,12.5-6.8,13.9c-3.1,1.4-5.8-1-5.8-1l4.1-17.6H746.5z"/>
				<g>
					<path class="st11" d="M788.9,388.8v-4.3c0,0-54.6-22.4-56.3-24.8c-1.7-2.4-2.4-18.7-2.4-18.7l-33.6,0.7c0,0,0,9.8,0,14.6
						c0,4.7,0,5.1-4.7,9.2c-4.7,4.1-44.4,21.4-45.8,22.7c-0.1,0.1-0.2,0.3-0.2,0.6H788.9z"/>
					<path class="st3" d="M698.3,356.3c0,1.2,0,2-0.1,2.8l21.8-5l-3.4-9.8c0,0-2.4-1.4-5-2.8l-13.3,0.3
						C698.3,341.7,698.3,351.6,698.3,356.3z"/>
				</g>
				<path class="st10" d="M788.9,388.8v-4.3c0,0-28.2-11.6-44.7-19c-2.3,4.7-10.4,19.7-23.7,23.3H788.9z"/>
				<path class="st10" d="M708.5,388.8c-12.8-3.2-19.9-15.7-22-20.1c-12.2,6.5-39.3,18.4-40.4,19.5c-0.1,0.1-0.2,0.3-0.2,0.6H708.5z
					"/>
				<g>
					<path class="st5" d="M693.7,388.8l-3-22.5c-8.1,5.2-43.3,20.6-44.6,21.9c-0.1,0.1-0.2,0.3-0.2,0.6H693.7z"/>
					<path class="st5" d="M792.3,388.8v-4.3c0,0-44.6-16.9-56.6-22.9l-1.7,27.2H792.3z"/>
				</g>
				<g>
					<path class="st11" d="M683.8,317.7c0,0,4.4,15.6,6.4,20.3c2,4.7,18,17,21.4,18.3c3.4,1.4,10.2,0.3,13.2-2.7
						c3.1-3.1,11.2-13.2,12.9-17c1.7-3.7,5.1-28.5,5.1-28.5s2.4-6.1,0-11.9c-2.4-5.8-20.7-19.7-31.9-24.1
						c-11.2-4.4-14.2,0-22.4,13.2c-8.1,13.2-9.2,17.3-8.5,20.3c0.7,3.1,3.1,10.5,3.1,10.5L683.8,317.7z"/>
					<g>
						<path class="st13" d="M716.3,305.4L717,318c0,0,2.7,4.1,0.7,5.1c-2,1-7.1,0.3-8.1-1.4"/>
						<path class="st13" d="M704.4,330.9c0,0,6.4,3.7,11.5,2.4c5.1-1.4,8.5-3.7,8.5-3.7"/>
						<path class="st3" d="M704.8,309.9c0,1.7-0.8,3.1-1.7,3.1c-0.9,0-1.7-1.4-1.7-3.1c0-1.7,0.8-3.1,1.7-3.1
							C704,306.8,704.8,308.2,704.8,309.9z"/>
						<path class="st3" d="M725.8,309.9c0,1.7-0.8,3.1-1.7,3.1c-0.9,0-1.7-1.4-1.7-3.1c0-1.7,0.8-3.1,1.7-3.1
							C725,306.8,725.8,308.2,725.8,309.9z"/>
						<path class="st13" d="M695.6,302.7c0,0,4.1-3.4,11.5-2.4"/>
						<path class="st13" d="M719.7,299.3c0,0,6.8-1.4,11.5,3.7"/>
					</g>
				</g>
				<g>
					<path class="st3" d="M707.2,278.3c0,0-4.4,12.9-11.9,18.7c-7.5,5.8-11.5,7.5-11.5,7.5s0,11.5,0,13.2c0,1.7-1-0.3-3.1-3.1
						c-2-2.7-2-6.4-8.5-11.2c-6.4-4.7-10.9-11.5-7.5-19c3.4-7.5,11.2-25.8,26.5-33.6c15.3-7.8,26.8-5.8,34.9-2.7
						c8.1,3.1,29.5,24.4,32.6,31.9c3.1,7.5-3.7,19-7.8,22.4s-7.8,3.4-14.2,0.3c-6.4-3.1-23.1-14.6-25.1-16.6
						C709.5,284.1,707.2,278.3,707.2,278.3z"/>
					<path class="st16" d="M673.4,296.3c-3.4,1.1-4.2,0.8-4.2,0.8"/>
					<path class="st16" d="M704.2,268c0,0-3,15.2-17.7,22.6c-3.3,1.6-6,2.9-8.1,3.8"/>
					<path class="st16" d="M751.5,295.8c1.3,1.3,1.8,2.6,1.3,3.7"/>
					<path class="st16" d="M707.6,264.6c0,0,5.4,13.8,19.2,18.7c7.7,2.8,15.6,6.2,20.7,9.4"/>
					<path class="st16" d="M743.3,273.6c7.8,9.1,12,17.5,12,17.5"/>
					<path class="st16" d="M707.1,256.2c0,0,23.1,3.4,32.9,13.8"/>
					<path class="st16" d="M700.7,262.1c0,0-8.4,4.9-10.8,10.8c-2.5,5.9-6.4,14.8-11.8,17.2"/>
				</g>
				<polygon class="st3" points="739,303.1 740.7,316 746.8,302.7 738.4,301.7 				"/>
			</g>
			<rect x="646.7" y="378.3" class="st14" width="39" height="9.2"/>
			<rect x="645.8" y="241.2" class="st13" width="146.5" height="147.9"/>
		</g>
		<g>
			<rect x="493.6" y="241.2" class="st3" width="146.5" height="147.9"/>
			<g>
				<path class="st6" d="M548.1,322.1h-2.1l-1.9-13.9h1.5l1.6,11.8l1.5-11.8h1.5l1.5,11.8l1.6-11.9h1.4l-1.9,13.9h-2l-1.3-9.4
					L548.1,322.1z"/>
				<path class="st6" d="M557.5,308.2v13.9H556v-13.9H557.5z"/>
				<path class="st6" d="M559.1,322.1v-13.9h1.5v12.5h4v1.4H559.1z"/>
				<path class="st6" d="M571.8,311.5v0.4h-1.5v-0.5c0-1.3-0.5-2-1.6-2c-1.1,0-1.6,0.7-1.6,2c0,3.1,4.7,3.4,4.7,7.3
					c0,2.1-1,3.5-3.1,3.5c-2.1,0-3.1-1.4-3.1-3.5V318h1.5v0.9c0,1.3,0.5,2,1.6,2c1.1,0,1.6-0.7,1.6-2c0-3.1-4.6-3.4-4.6-7.3
					c0-2.1,1-3.5,3.1-3.5C570.8,308,571.8,309.4,571.8,311.5z"/>
				<path class="st6" d="M573.1,311.5c0-2.1,1.1-3.5,3.2-3.5c2.1,0,3.2,1.4,3.2,3.5v7.2c0,2.1-1.1,3.5-3.2,3.5
					c-2.1,0-3.2-1.4-3.2-3.5V311.5z M574.6,318.8c0,1.3,0.5,2,1.6,2c1.1,0,1.6-0.7,1.6-2v-7.4c0-1.3-0.5-2-1.6-2
					c-1.1,0-1.6,0.8-1.6,2V318.8z"/>
				<path class="st6" d="M586,322.1h-1.5l-2.3-11.1v11.1h-1.4v-13.9h2.2l2.3,11.1l2.2-11.1h2.2v13.9h-1.5v-11.2L586,322.1z"/>
			</g>
		</g>
		<g>
			<rect x="341.4" y="241.2" class="st15" width="146.5" height="147.9"/>
			<g>
				<path class="st3" d="M454,263.5c-5.6-4.4-12.4-7.2-12.4-7.2s6-2.4,4.4-5.2c-1.6-2.8-20.8-7.6-29.2-7.6c-8.4,0-14,0.4-14,0.4
					s2.6-1.9,2.9-3.1h-5.9c-5.3,2-12.4,7-17.8,15.9c0,0-18,6.4-21.2,11.6c-3.2,5.2,5.6,4,5.6,4s-10.8,19.2-10.8,26.4
					c0,7.2,6.8,6.4,6.8,6.4s0.8,25.6,6,29.6c5.2,4,7.2-0.4,7.2-0.4s10.8,8,24.4,12.4c13.6,4.4,36.8-2.4,44.4-6.4
					c7.6-4,13.2-8.4,13.2-8.4s0.8,4.8,3.6,0.8c2.8-4,4-27.6,4-27.6s3.6,1.6,4.4-2.4c0.8-4-2.4-9.6-2.4-9.6s5.2,4,4.4-4
					C470.8,281.1,459.6,267.9,454,263.5z"/>
				<path class="st5" d="M488,388.8v-26.2c-11.4-4.5-50.8-20.1-56.5-22.3c-6.6-2.6-31.6-2.9-31.6-2.9s-54.4,24.3-58.8,26.5
					c0,0,0,0-0.1,0v25H488z"/>
				<path class="st17" d="M370.5,382.6l2.1,6.2h80.8l1.7-5.1l-9.2-11l9.2-12.5l-11.8-15.3c-5.7-2.2-10.1-4-11.7-4.6
					c-6.6-2.6-31.6-2.9-31.6-2.9s-9.2,4.1-20.4,9.1l-9.4,18.9l10.3,7.4L370.5,382.6z"/>
				<path class="st11" d="M432.3,388.8v-48.2c-0.3-0.1-0.5-0.2-0.7-0.3c-6.6-2.6-31.6-2.9-31.6-2.9s-3,1.4-7.7,3.4v48H432.3z"/>
				<g>
					<path class="st10" d="M413.2,388.8h2.3c2.6-3.7,8.9-12.8,10.6-17c2.5-6.4,7.4-19.8,4.7-32.6c-1-4.6-2.3-11.1-2.3-11.1
						s-24.4,4.2-33.2-4.6c0,0,1.1,7.2-1.1,13c-3.1,7.7-0.4,16.4,2.1,23.9C398.4,367,409.6,383.6,413.2,388.8z"/>
					<path class="st3" d="M395.5,332.7c0,0-11.5,24.1,11.5,27.6c6.9,1,22.2-22.6,22.2-22.6L395.5,332.7z"/>
				</g>
				<g>
					<path class="st10" d="M397.1,271.5c0,0-14.8,22-14.8,23.6c0,1.6,2,22.4,4,28c2,5.6,12,16,18.4,19.6c6.4,3.6,14,1.6,19.2-0.4
						c5.2-2,13.2-9.2,15.2-15.6c2-6.4,2.8-30.4,2.8-30.4l-26.4-16c0,0-0.4,4-3.2,2C409.5,280.3,397.1,271.5,397.1,271.5z"/>
					<path class="st10" d="M383.5,305.1c0,0-7.1,5.1-5.9,7.1c1.2,2,3.1,10.5,7.5,8.5L383.5,305.1z"/>
					<path class="st10" d="M441.9,305.5l-1.6,15.8c0,0,7.5-5.3,8-9.4C448.7,309.6,441.9,305.5,441.9,305.5z"/>
					<path class="st3" d="M403.5,301.9c0,1.9-0.7,3.4-1.6,3.4s-1.6-1.5-1.6-3.4c0-1.9,0.7-3.4,1.6-3.4S403.5,300.1,403.5,301.9z"/>
					<path class="st3" d="M425.1,301.9c0,1.9-0.7,3.4-1.6,3.4c-0.9,0-1.6-1.5-1.6-3.4c0-1.9,0.7-3.4,1.6-3.4
						C424.4,298.5,425.1,300.1,425.1,301.9z"/>
					<path class="st18" d="M393.5,294.7c0,0,4.4-4.8,12-2.8"/>
					<path class="st18" d="M419.1,291.9c0,0,6.4-3.2,12,2.4"/>
					<path class="st13" d="M404.9,320.2c0,0,4.2,3.3,9.6,3c5.4-0.3,8.1-4.2,8.1-4.2"/>
					<path class="st13" d="M419.2,311.9c0,0-5.7,3.8-9.1,1.9c-3.4-1.9-3.4-1.9-3.4-1.9"/>
					<line class="st13" x1="393.8" y1="307.4" x2="401.8" y2="307.4"/>
					<line class="st13" x1="423.3" y1="308.5" x2="430.9" y2="308.5"/>
				</g>
			</g>
			<rect x="342.6" y="378.3" class="st14" width="39" height="9.2"/>
			<rect x="341.4" y="241.2" class="st13" width="146.5" height="147.9"/>
		</g>
	</g>
	<g>
		<path class="st0" d="M237.8,785.5c-0.1,14.9-1.2,29.7-3.3,44.5c-0.1,0.5-0.1,1-0.2,1.6L95,830.8c-0.4-0.5-0.8-1-1.2-1.6
			c-1.3-1.7-2.5-3.5-3.6-5.4c-5.4-8.9-7.8-19.4-5.4-26.6l0-0.1c0.5-1.6,1.4-3,2.5-4.3c5.6-6.3,17-5.3,27.3-0.2
			c-9.3-10.1-16.6-22.9-17.2-34.3c-0.5-11.1,5.3-19.1,11.6-25.9c0.2-0.2,0.4-0.4,0.6-0.7c0.1-0.1,0.2-0.2,0.3-0.3
			c4.9-5.2,10.7-10.2,19-9.6c9.1,0.7,19.2,8.3,26.3,17.2c7.1,8.9,11.8,19,16.6,28.9c4.8,9.9,10,20,17.6,28.4
			c-10.4-13.1-18.8-28.1-21.9-42.6c-3.1-14.5-0.4-28.5,8.9-35.4c2.8-2,6.1-3.3,9.5-3.8c0.4-0.1,0.8-0.1,1.2-0.2
			c8.6-1,18.8,2,27.5,9.1c9.6,7.8,16.2,19.4,19.5,30.4C237.6,764.7,238,775.3,237.8,785.5z"/>
		<path class="st6" d="M146.7,831.1l-2.7,0c-0.8-0.5-1.7-1.1-2.5-1.6c-0.5-0.3-1.1-0.7-1.6-1c-8.8-5.4-17.7-10.6-26.7-15.5
			c-8.9-5-17.9-9.7-27-14.2c-0.5-0.2-0.8-0.8-0.6-1.3c0,0,0-0.1,0-0.1c0.1-0.2,0.4-0.3,0.8-0.1c1.1,0.6,2.2,1.1,3.3,1.7
			c9.1,4.6,18.1,9.4,27,14.4c9,5,17.9,10.3,26.8,15.8c0.2,0.1,0.4,0.2,0.6,0.3C145,830,145.8,830.5,146.7,831.1z"/>
		<path class="st6" d="M181,831.3l-1.6,0c-0.4-0.5-0.7-1-1.1-1.6c-8.7-12.2-17.5-24.5-26.2-36.7c-14.3-20-28.6-40.1-42.9-60.1
			c-0.1-0.1-0.1-0.2-0.2-0.4c-0.1-0.4,0.2-0.7,0.6-0.7c0.4,0.1,0.7,0.3,0.9,0.6c8,11.2,16,22.5,24,33.7
			c14.2,19.9,28.4,39.9,42.6,59.8c0.9,1.3,1.8,2.5,2.7,3.8C180.3,830.2,180.7,830.7,181,831.3z"/>
		<path class="st6" d="M217.7,821.7c-0.1,2.8-0.3,5.5-0.5,8.2c0,0.5-0.1,1-0.1,1.6l-1.7,0c0.1-0.5,0.1-1,0.2-1.6
			c0.4-3.9,0.6-7.9,0.7-11.9c0-11.3-1.1-22.5-3.3-33.5c-2.4-11.9-5.8-23.5-10.1-34.8c-4.6-11.9-10.2-23.4-16.6-34.5
			c-0.1-0.2-0.2-0.4-0.2-0.6c0.1-0.5,0.7-0.6,1.2-0.2c0.1,0.1,0.2,0.2,0.2,0.3c0.8,1.4,1.6,2.7,2.3,4.1
			c6.2,11.1,11.5,22.7,15.9,34.6c4.2,11.3,7.3,23,9.5,34.9C217.2,799.3,218,810.5,217.7,821.7z"/>
		<path class="st8" d="M93.5,831.4h348.1c0.6,0,1.2-0.5,1.2-1.2s-0.5-1.2-1.2-1.2H93.5c-0.6,0-1.2,0.5-1.2,1.2
			S92.9,831.4,93.5,831.4z"/>
		<polygon class="st19" points="310.9,818.2 325,818.2 331.8,763.5 310.9,763.5 		"/>
		<path class="st20" d="M352.4,831.4l-44.6,0l0,0l0-17.2l0,0l27.3,0C344.7,814.2,352.4,821.9,352.4,831.4L352.4,831.4L352.4,831.4z"
			/>
		<polygon class="st19" points="208,802.1 220.9,808 249.7,761.1 230.7,752.4 		"/>
		<path class="st20" d="M240.3,831.4l-40.5-18.5l0,0l7.2-15.7l0,0l24.9,11.4C240.4,812.5,244.2,822.7,240.3,831.4L240.3,831.4
			L240.3,831.4z"/>
		<path class="st19" d="M249.3,633.8c-5.1-3.9-6.2-11.2-2.3-16.3c0.4-0.5,0.9-1.1,1.4-1.5l-16.7-37.8l21.2,3.6l12.6,35.4
			c4.1,5,3.3,12.4-1.7,16.4C259.6,637,253.6,637.1,249.3,633.8z"/>
		<path class="st20" d="M306.6,799.2L293,680.4c-0.3-2.2-2.3-3.8-4.5-3.6c-1.7,0.2-3.1,1.5-3.5,3.2l-6.7,32.5
			c-0.1,0.5-0.3,0.9-0.5,1.3l-39.5,76.8c-1.2,2.3-4,3.4-6.4,2.5l-13.7-5.1c-2.7-1-4.1-4-3.1-6.7c0,0,0,0,0-0.1l32.1-83.3
			c0.2-0.4,0.3-0.9,0.3-1.4l1.6-87c0.1-2.6,2.1-4.8,4.7-5.1l85.3-8.3c2.9-0.3,5.4,1.8,5.7,4.7c0,0.3,0,0.6,0,0.9L330.5,799
			c-0.2,2.7-2.5,4.8-5.2,4.8h-13.5C309.1,803.8,306.9,801.8,306.6,799.2z"/>
		<circle class="st19" cx="305" cy="419.1" r="28.4"/>
		<path class="st5" d="M329.6,463c-0.8-0.4-1.5-0.7-2.3-1.1h0c-19-8.5-41.1-6.2-57.8,6.2c-15.1,11.3-22.4,28.2-20,46.5
			c5.1,38.6-0.7,90.9-1.3,96.2c46.7,21.5,87.7-5.5,91.3-8L329.6,463z"/>
		<path class="st5" d="M246.8,610.4c-1.7-0.3-3.2-1.4-3.9-3l-23.8-52.8c-1.8-4-1.5-8.7,0.8-12.4l29.3-47.5c2.5-4.7,8.3-6.4,13-3.9
			c2.4,1.3,4.1,3.5,4.8,6.2c0.5,2.2,0.3,4.4-0.7,6.4l-21.7,45.5l14.2,48.2c0.5,1.8,0.1,3.6-1.2,5l-6.2,6.8c-1,1.1-2.4,1.7-3.8,1.7
			C247.4,610.5,247.1,610.4,246.8,610.4z"/>
		<path class="st21" d="M313.2,599.3l-4.4-88.1l1.1-0.1l19.8,93.2h-11.3C315.6,604.3,313.3,602.1,313.2,599.3z"/>
		<path class="st19" d="M328.9,627.5c-4.2-4.8-3.7-12.2,1.1-16.4c0.5-0.4,1.1-0.9,1.7-1.2l-8.5-40.5l20,7.9l5,37.2
			c2.9,5.7,0.7,12.8-5.1,15.7C338.3,632.7,332.4,631.6,328.9,627.5z"/>
		<path class="st5" d="M324.9,600l-16.7-111.2l0-0.1l3.2-14.8c1.8-8.4,10.2-13.8,18.6-12c7,1.5,12,7.5,12.3,14.6l5,121.2
			c0.1,2.7-1.9,5.1-4.6,5.4l-12.1,1.3c-0.2,0-0.4,0-0.6,0C327.5,604.4,325.3,602.5,324.9,600z"/>
		<path class="st20" d="M293.3,444.9c-7.9-0.1-15-4.7-18.4-11.8l0,0c-2.6-5.6-4.1-10-4.3-13.2c-0.7-8.5,4.2-22,10.5-29.3
			c7-8.1,18.1-9.2,28.9-10.3c2.9-0.3,6-0.6,8.8-1.1c2.5-0.4,5.5-0.9,8.1,0.1c1.5,0.6,2.7,1.7,3.4,3.2c0.2,0.5,0.6,0.9,1.1,1.1
			c0.5,0.2,1,0.1,1.4-0.1c0.9-0.4,1.9-0.5,2.8,0c0.8,0.4,1.3,1.1,1.5,2c0,0.3,0.1,0.6,0.3,0.8c0.5,0.8,1.2,1.4,2.2,1.6
			c1.4,0.3,2.4,1.7,2.3,3.1c-0.2,1.5-0.2,3-0.3,4.6c-0.3,5.7-0.5,11.7-6.3,11.6c-1.5-0.1-2.9-0.3-4.3-0.8c-2.1-0.6-3.7-1-6,0.3
			c-3.4,2.1-4,6.6-4.5,10.5l-0.1,0.7c-0.6,4.5-2.9,9.9-7.7,10.3c-1.5,0-3-0.2-4.5-0.8c-1.5-0.6-3.1-0.8-4.6-0.6
			c-2.6,0.8-3.9,3.9-3.8,6.6c0.1,1.1,0.2,2.2,0.4,3.3c0.4,1.7,0.5,3.5,0.4,5.3c-0.1,1.1-1.4,1.8-3.9,2.2
			C295.6,444.8,294.5,444.9,293.3,444.9z"/>
	</g>
</g>
<g id="Layer_2">
</g>
</svg>
